<?xml version="1.0" encoding="utf-8"?>
<!-- Generator: Adobe Illustrator 15.1.0, SVG Export Plug-In . SVG Version: 6.00 Build 0)  -->
<!DOCTYPE svg PUBLIC "-//W3C//DTD SVG 1.1//EN" "http://www.w3.org/Graphics/SVG/1.1/DTD/svg11.dtd">
<svg version="1.1" id="Layer_1" xmlns="http://www.w3.org/2000/svg" xmlns:xlink="http://www.w3.org/1999/xlink" x="0px" y="0px"
	 width="1000px" height="590px" viewBox="0 0 1000 590" enable-background="new 0 0 1000 590" xml:space="preserve">
<g>
	
		<rect x="251.127" y="142.488" transform="matrix(0.7144 0.6997 -0.6997 0.7144 185.5053 -130.0997)" fill="#6E6F72" width="2" height="39.417"/>
	<g>
		<g>
			<g>
				<g>
					<g>
						<g>
							<g>
								<g>
									<g>
										<path fill="#6E6F72" d="M299.535,300.428v-2.108l-1.574-1.123l-0.644-1.944v-1.347l5.305-2.017v-0.414l0.248-0.248v-0.248
											l0.826-0.825l0.986-4.438l1.485-1.486h1.881v-1.098l2.322-1.161l1.608,0.27l-0.279-0.978l0.5-1.506l0.533-0.179v-0.674
											l0.414-1.133l1.022-1.532l2.26,1.397l-0.334-0.802l1.309-2.942l2.998-1.498h2.562l-0.216-0.435l0.862-2.15l2.101-0.423
											l0.693,0.349l0.447-0.896l1.609-0.404l4.562,0.508l1.665,0.029l0.868,0.216h0.578l1.57-0.981l0.506-0.676l0.107-0.432
											l-0.719-1.441l1.47-0.985l1.361-1.02l0.75,0.249l8.312-2.081l7.319-1.223l6.247-3.245l1.92-3.6l2.376-1.899l0.499-1.746
											l1.408-1.033l1.735-0.868l0.295-0.444l0.789-1.799l0.584-0.878l2.298-1.786l0.742-0.742h1.317l1.118,0.375l1.095,1.094
											l-0.761,2.289l-1.022,1.025l-1.283,0.641l-0.732-0.733l-0.737,0.861l-1.978,2.967l0.19,0.112h1.62l-0.464,0.926
											l1.979-1.328l1.383,0.694l0.198,0.589l0.699-0.618v-1.155l1.219-1.222l1.448,0.479l0.696-0.584l0.307-1.23h1.157
											l1.144-0.961l-0.24,0.961h0.781l0.31-0.448l1.032-1.032h0.401v-0.849l1.256-0.631h0.66l-0.208-0.623l1.841-0.602
											l1.482-0.245l0.461,1.22l3.005,0.001l-3.396,2.262l-4.729,4.978l-2.835,1.416l0.254,1.019l-0.86-0.573l-1.63,1.357
											l1.504,1.614l-4.228,4.785l-2.593,1.802l-1.291,0.646l-1.308,1.571l-1.693,0.42l-0.868,0.871l-1.574,1.841l-2.81,1.277
											l-4.261,3.234l-0.35,0.176l-0.673,0.67h-1.521l-0.727-1.438l-1.113,0.419v1.664l-1.228,1.232l-1.499,0.342l-0.686-0.019
											l-0.897-0.179l-0.041,0.021l-0.987,0.988l-1.334,0.639l-2.879,0.727l-0.246,0.738l-3.046,1.524h-1.213l-0.42-0.21
											l0.176,0.531v1.064L343,283.02l-4.023,0.046l-0.618,0.894l-0.608,0.607l-2.959,1.48l-1.517,1.492l-0.994,0.614
											l-4.561,1.44l-4.848,3.01l-1.612,0.439v1.115l-9.001,2.119l-6.27,3.761h-4.177l0.711-0.708l-0.845,0.374L299.535,300.428z
											 M299.654,295.948l1.881,1.342v0.293l1.381-0.616l0.727-0.725l0.877-0.437l-0.365-0.365l-0.647-1.282l0.675-0.675
											l-4.758,1.772L299.654,295.948z M306.267,294.229l1.228,1.232l2.361-1.539l-3.459,0.178L306.267,294.229z
											 M304.622,292.303v0.742l0.903-0.903l4.989-0.257l1.011-0.505h2.937l1.955,0.978l1.949-0.445l1.268-0.5l2.567-0.7
											l4.792-2.988l4.549-1.437l0.541-0.359l1.522-1.525l2.96-1.48l0.309-0.308l0.402-0.605l0.497-0.99h4.243l-0.187-0.566
											v-1.518l1.257-0.629h1.212l0.493,0.247h0.268l1.883-0.942l0.247-0.74l1.067-0.506l2.854-0.715l0.743-0.369l0.987-0.988
											l0.945-0.471l1.471,0.293h0.27l0.598-0.149l0.251-0.251v-0.157l-1.59-1.589l3.012-1.006l5.253-1.994l2.659-0.669
											l0.379-0.258l2.51-1.141l1.301-1.519l-0.328-0.328l-0.449-1.355l0.118-0.238l-0.547,0.109l-1.083-0.27h-0.366
											l-0.942,1.254l-1.028-0.516h-0.511l-2.227,1.118l0.82-3.293l0.953-1.258l0.851-0.836l0.795-0.594l0.528-1.07v-0.164
											l0.248-0.822v-0.41l0.827-0.838h0.689l1.245-1.434l0.442-0.438v-0.248l0.43-1.29l0.607-0.302l-0.829-0.829l0.463-0.695
											l-0.376,0.188l-0.645,0.482l-0.489,1.712l-2.554,2.04l-2.025,3.797l-1.271,0.639l-5.956,3.051l-7.398,1.233l-6.563,1.646
											v0.742l-1.079,1.079l-1.91-0.019l-0.294,1.182l-0.972,1.299l-2.374,1.483l-1.515-0.029l-0.868-0.216l-1.467-0.006
											l-1.604-0.178l0.003,0.003v2.402h-2.686l-0.75,1.119l-1.309-0.868l0.028,0.028l-0.898,1.797l-2.125-0.353h-1.411v-0.493
											h-1.23l-1.933,0.967l-0.667,1.5l1.48,3.556l-2.257,0.75l-0.816-0.612l0.026,0.077v1.312l-1.493,1.5l-1.135-1.14
											l0.162,0.707v2.213l-2.503-0.997l-1.054-0.177l-0.634,0.317v1.861h-3.052l-0.488,0.488l-0.986,4.437l-0.652,0.653v0.247
											L304.622,292.303z M324.944,271.852l0.337,0.337l0.143-0.705l-0.361,0.072L324.944,271.852z M340.171,266.338l0.179,0.359
											v-0.489L340.171,266.338z M372.549,261.857l0.938,0.465l0.126,0.381l0.393-0.472l1.599-0.8l2.307-1.616l2.779-3.173
											l-1.713-1.838l2.798-2.332l-0.113-0.024h-0.537l-0.169-0.255l-0.092,0.077l0.039-0.156l-0.357-0.46l0.366,0.732
											l-1.292,0.648l-1.327,1.033l-1.141,0.571l-0.348-0.35l-0.387,0.776l-1.056,0.793l-1.884,2.59l-0.456,0.764l0.542,1.627
											L372.549,261.857z M366.456,261.298l1.522,0.03l0.767,0.191l0.817-0.163l0.686-0.449l0.839-0.418l0.188-0.188
											l-0.441-1.331l0.819-1.364l-1.4-0.696l-0.12-0.18l-0.947,1.139h-0.567l-0.134,0.482v0.236l-0.951,1.904L366.456,261.298z
											 M372.052,254.643l0.782,1.171l-0.197,0.393l1.403-1.858l0.798-0.6l0.111-0.221l-0.954-1.271l-0.643,1.283l-1.349,0.342
											l-0.064,0.193v0.342L372.052,254.643z M386.643,248.622l-0.966,1.548l0.069-0.034l1.786-1.88h-0.523L386.643,248.622z
											 M376.025,245.006l0.464,0.464l0.235-0.236l0.2-0.601l-0.229-0.077h-0.162L376.025,245.006z"/>
										<path fill="#6E6F72" d="M302.514,292.916l-0.636-3.26l0.035-2.976l1.664-5.982l-0.234-1.409l0.509-2.794v-2.475
											l-16.086-5.36l-5.411-1.723l-21.168-7.055l-0.589-1.473l-1.705-1.734l-0.507-0.76l-0.466,0.466h-1.323l-0.571-0.572
											l-0.675-0.134l-2.121,0.707h-1.387l-1.436-0.718l-0.447-0.673l-0.315-0.104l-2.356-0.264l-0.942-0.628l-1.221-0.958
											l-3.354-4.311l-0.892-0.594l-0.393-1.229l-0.71-4.285l-1.028-2.312v-1.009l0.494-0.768l-0.284-0.85l-0.947-0.315
											l-2.379-0.48l0.94-2.191l-0.377-0.19l-0.885-0.884l-1.105-0.223l-1.144-0.684h-0.273l-2.776,1.11l-1.434-0.958
											l-0.609-1.521l-0.489-1.466l-0.292-0.583l-0.878-0.35l-1.428-0.478l-1.761-0.701l-0.104-0.417l-6.991,1.396l-6.127,1.472
											l-6.201,1.242l-6.382,1.472l-12.358,2.472l-6.128,1.47l-25.198,4.94l-6.12,1.47l-24.943,4.94l-12.579,2.465l-6.455,0.994
											l-18.702,3.692l-6.196,0.994L66.1,258.826l-6.204,0.994l-6.379,1.227l-6.196,0.99l-6.383,1.239l-6.196,0.994l-6.38,1.227
											l-8.947,1.386l-0.362-2.907l-0.503-1.803l-0.481-3.613l-0.503-1.812l-0.731-5.358l-0.501-2.041l-0.248-1.972l-0.477-2.129
											l-0.503-4.247l-0.481-2.165l-0.265-2.065l-0.475-2.128l-0.337-2.65l12.312-8.977l6.434-4.454l12.676-9.264l1.813-2.494
											l1.354-3.163v-2.271l-0.238-0.477l-0.568-0.283l-1.277-0.274l-1.375-0.564l-2.179-1.369l-0.715-1.069l-0.33-1.649
											l0.211-0.843l-0.209-0.418l-0.671-0.472l-1.346-1.348l-0.426-0.849v-1.952l0.248-0.493v-1.869l-1.182-5.199l-0.44-0.879
											l-2.166-3.845l-5.762-7.685l4.802-3.305l5.382-4.16l8.271-6.003l2.862-1.56l10.523-1.753l72.206-13.777l1.033-1.032h0.183
											l1.251-3.755l1.227-3.927l2.472-7.414l1.228-3.928l2.472-7.415l1.323-4.143l0.815-1.344l2.986-3.802v-1.055l0.785-1.142
											l0.42-0.385l4.592-2.901l0.516-0.515l0.305-0.763l-1.081-2.157l1.388-2.377l3.343-3.576l6.66-4.933l1.063-0.642
											l0.304-0.607l0.553-2.832l1.232-2.465l1.254-2.259l1.798-4.058l4.44-5.92l4.164-6.127l3.953-5.68l2.597-3.85l5.631-5.33
											l2.218-1.232l0.527-0.354l1.483-1.974l3.02-2.013l1.56-1.534l0.991-0.662h0.979l5.609-0.732l1.362-0.255h0.603
											l4.308-1.196l4.231-0.996l8.888-1.976l4.18-0.985l4.401-1.223l4.488-0.999l4.182-0.984l4.451-0.988l4.126-1.216
											l8.943-1.991l4.127-1.216l3.167-0.706l0.496,1.491l0.794,1.409l0.23,0.768l0.294,0.293v3.074l-0.494,1.233v1.857
											l0.248,0.247v0.494l0.642,0.644l1.039,0.791l0.784,0.782v0.92l0.246,0.492v3.852l0.248,1.562v3.848l0.205,1.026
											l1.121,2.476l0.887,1.106l2.798,2.825l0.556,0.848l0.421,0.842l0.423,0.425v0.745l0.247,0.74l-0.039,3.149l-0.455,1.591
											v0.854l0.141,0.282l1.565,3.456l0.249,1.232l0.265,1.677v0.975l-0.499,1.004l-0.497,0.248l-0.283,0.451l-0.377,0.38
											l-0.316,0.642v0.394l0.247,1.333v0.739l-0.523,5.667l-0.207,0.833l0.06,0.06l0.246,0.492l1.234,1.232l0.423,0.851v0.588
											l0.688,2.292l0.937,2.572l0.586,0.943l0.34,0.17l0.653,0.653v0.424l0.248,0.494v0.566l0.246,0.741v1.523l1.373,1.64
											l0.354,0.705v0.63l0.246,1.332l-0.006,0.851l-0.733,7.041v0.578l0.787,2.239l0.358-0.713l-0.246-0.987l0.305-0.625v-0.414
											l1.082-1.078h0.241l0.245-0.247h2.313l0.926,0.963l1.174,1.877l0.544,0.546l0.604,0.365l0.707,0.707l0.282,1.399
											l0.272,0.626l0.245,1.232l0.483,1.927l0.507,2.776l0.727,2.894l1.49,7.197l0.739,3.7l0.97,3.637l1.493,7.201l0.732,2.925
											l0.507,2.776l0.479,1.909l0.23,1.149l0.291,0.585v0.628l0.249,1.333v1.954l2.106,3.685l-0.627,1.255v6.176l-0.248,4.739
											l0.001,4.632l-0.249,4.738l0.001,4.632l-0.247,4.737l0.001,4.634l-0.247,4.982l0.001,2.886l1.643,1.174l8.14,47.421
											l2.095,2.111l0.658,0.872l1.627,1.222l-1.144,1.682l-8.168,8.168l2.695,2.698h0.244l1.152,1.147l1.042,2.085h-0.372
											l0.116,0.233l-0.426,0.854l-0.43,1.611v0.82l-1.979,0.417l-0.097,0.195l-1.469,2.693l-0.398,0.999v2.287h-0.964
											l0.508,0.843l2.114,2.114h-3.751l-1.502,0.43l-1.303,0.649l-0.9,0.721l-0.403,1.42l-0.778,4.159L302.514,292.916z
											 M305.374,279.304l0.257,1.553l-0.323,0.974l-0.4,1.466l1.224-0.951l1.652-0.805l1.566-0.448l-0.565-1.065v-1.346
											l1.233-0.62v-0.681l0.614-1.52l1.857-3.471l1.044-0.484l0.56-0.112l0.419-1.466l-0.895-0.446l0.539-1.072l-0.1-0.1h-0.245
											l-4.702-4.695l9.405-9.406l-0.403-0.352l-0.701-0.93l-2.381-2.383l-0.308-1.529l-7.828-45.734l-1.806-1.291v-3.965
											l0.246-4.982l-0.001-4.637l0.247-4.737l-0.001-4.633l0.249-4.738l-0.001-4.632l0.248-4.739l-0.001-6.596l0.36-0.719
											l-1.839-3.217v-2.385l-0.249-1.333v-0.259l-0.226-0.533l-0.246-1.232l-0.482-1.925l-0.507-2.776l-0.727-2.895
											l-1.491-7.199l-0.97-3.638l-2.23-10.897l-0.733-2.924l-0.507-2.777l-0.48-1.911l-0.229-1.149l-0.271-0.623l-0.188-0.937
											l-0.169-0.169l-0.597-0.359l-0.884-0.92l-1.295-1.997h-0.648l-0.245,0.247h-0.169l-0.173,0.348l0.245,0.987l-0.305,0.624
											v0.416l-0.426,0.424l-0.245,0.493l-0.902,0.9h-1.073l-1.147-1.147l-0.375-0.77l-0.79-2.371l0.006-1.507L286.596,98v-0.587
											l-0.315-1.727l-0.133-0.133l-1.523-1.822v-1.925l-0.246-0.741v-0.417l-0.239-0.478l-0.494-0.247l-0.367-0.737
											l-0.565-0.899l-1.242-3.48l-0.545-2.041V82.51l-0.067-0.135l-1.234-1.233l-0.248-0.495l-0.422-0.425l0.029-1.146
											l0.227-0.912l0.486-5.349l-0.003-0.546l-0.247-1.336v-0.978l0.672-1.34l0.491-0.494l0.325-0.647l0.483-0.241v-0.412
											l-0.448-2.465l-0.187-0.374l-1.585-3.417l0.039-1.741l0.455-1.591v-2.41l-0.247-0.74v-0.243l-0.068-0.068l-0.538-1.074
											l-0.404-0.607l-2.715-2.723l-1.104-1.413l-0.245-0.493l-1.073-2.47l-0.265-1.428v-3.863l-0.248-1.562v-3.462l-0.246-0.492
											v-0.562l-0.151-0.152l-1.039-0.791l-1.275-1.276v-0.493l-0.248-0.247v-3.074l0.494-1.233v-1.857l-0.148-0.148l-0.28-1.114
											l-0.711-1.187l-1.343,0.298l-4.126,1.216l-8.944,1.991l-4.126,1.216l-4.504,1.002l-4.182,0.984l-4.449,0.988l-4.389,1.22
											l-4.23,0.998L220,33.943l-4.181,0.983l-4.668,1.259h-0.64l-1.135,0.227l-5.87,0.76h-0.438l-0.404,0.27l-1.562,1.534
											l-2.816,1.878l-1.483,1.973l-0.881,0.587l-2.175,1.212l-5.254,5.015l-2.405,3.605l-3.958,5.688l-4.185,6.156l-4.397,5.865
											l-1.677,3.837l-1.276,2.306l-1.145,2.292l-0.56,2.846l-0.624,1.248l-1.483,0.889l-6.504,4.823l-3.064,3.3l-0.664,1.162
											l0.853,1.704v0.676l-0.642,1.603l-1.058,1.022l-4.689,2.999l-0.27,0.404v0.917l-0.464,0.885l-2.918,3.646l-0.642,1.072
											l-1.197,3.832l-2.472,7.415l-1.228,3.929l-2.472,7.414l-1.227,3.927l-1.188,3.647v0.416l-1.078,1.078h-0.248l-0.91,0.911
											l-72.802,13.867l-10.214,1.702l-2.509,1.368l-8.085,5.879l-5.403,4.175L32.56,170.3l4.624,6.181l2.221,3.944l0.598,1.256
											l1.258,5.648v2.455l-0.248,0.493v1.005l0.069,0.137l1.049,1.05l0.876,0.585l0.778,1.556l-0.282,1.125l0.164,0.818
											l0.272,0.408l0.574,0.383l1.123,0.672l1.074,0.43l1.391,0.316l1.285,0.64l0.749,1.497v3.153l-1.671,3.837l-2.19,2.931
											l-12.823,9.371l-6.434,4.454l-11.34,8.27l0.174,1.386l0.475,2.128l0.264,2.064l0.495,2.233l0.489,4.179l0.477,2.128
											l0.256,2.004l0.497,2.016l0.734,5.368l0.498,1.786l0.486,3.641l0.503,1.803l0.12,0.961l0.719-0.103l6.149-0.982
											l6.379-1.227l6.194-0.994l6.384-1.239l6.198-0.99l6.379-1.227l6.196-0.992l6.125-1.227l6.421-1.234l6.196-0.994
											l18.701-3.692l6.455-0.994l37.439-7.389l6.127-1.472l25.199-4.941l6.121-1.469l12.366-2.474l6.382-1.472l6.192-1.239
											l6.127-1.472l7.303-1.46l1.49-0.749l0.424,1.704l0.756,0.302l1.428,0.477l1.639,0.651l0.719,1.46l0.491,1.478l0.401,0.918
											l2.156-0.862h1.21l1.324,0.791l1.36,0.274l1.223,1.153h2.12l-1.2,2.479l0.145,0.037l1.954,0.651l0.704,2.105v0.96
											l-0.488,0.731l0.962,2.224l0.246,1.232l0.488,3.165l0.111,0.333l0.589,0.393l3.471,4.461l1.371,0.987l2.181,0.266
											l1.069,0.354l0.535,0.805l0.538,0.269h0.59l2.316-0.771l1.79,0.356l0.248,0.247l0.148-0.148l1.086-0.54l1.234,0.616
											l0.37,0.736l0.404,0.605l1.801,1.803l0.397,0.992l20.275,6.758l5.411,1.723l13.91,4.635l-1.88-4.983l-0.493-2.713
											l-0.183-0.726l-0.576-0.771l-0.576-0.576l-0.987-0.492l-1.005-1.011l-0.743-1.97l-0.522-0.596l-0.356-0.704v-1.145
											l0.352-1.016l0.342-0.653l1.806-2.407l1.265,3.159l-0.284,1.428v0.473l0.845,0.845l1.609,0.92l0.953,0.655l0.87,0.871
											l1.061,2.391l0.808,2.431l1.253,6.359l-0.016,5.603L305.374,279.304z M302.366,265.961l0.894,2.347l-0.61-3.053
											l-0.722-2.162l-0.222-0.497l0.169,0.679L302.366,265.961z M300.125,260.334l0.597,0.612l0.615,0.822l-0.284-0.636
											l-0.538-0.538L300.125,260.334z"/>
									</g>
									<polygon fill="#6E6F72" points="77.527,255.697 69.66,231.383 62.39,222.508 45.123,210.843 46.242,209.186 
										63.845,221.127 71.446,230.407 79.431,255.082 									"/>
								</g>
								<polygon fill="#6E6F72" points="140.294,244.125 131.277,231.209 131.277,186.704 110.95,170.435 92.029,148.778 
									93.535,147.462 112.397,169.052 133.277,185.742 133.277,230.581 141.934,242.98 								"/>
							</g>
							<polygon fill="#6E6F72" points="132.474,187.204 132.081,185.243 150.981,181.482 166.949,181.482 185.374,169.098 
								195.596,147.892 195.596,134.06 211.707,112.938 211.707,97.441 196.384,97.419 159.396,89.421 159.819,87.466 
								196.703,95.441 213.707,95.441 213.707,113.614 197.596,134.736 197.596,148.349 186.94,170.456 167.558,183.482 
								151.081,183.482 							"/>
						</g>
						<polygon fill="#6E6F72" points="213.042,97.383 212.371,95.5 234.98,87.444 257.295,87.444 279.786,77.419 280.601,79.247 
							257.721,89.444 235.326,89.444 						"/>
					</g>
					<polygon fill="#6E6F72" points="266.133,149.211 199.414,131.33 199.931,129.398 265.707,147.027 279.719,136.438 
						300.342,129.417 300.986,131.311 280.668,138.229 					"/>
				</g>
				
					<rect x="282.401" y="199.701" transform="matrix(0.6445 0.7646 -0.7646 0.6445 279.3355 -133.6574)" fill="#6E6F72" width="2" height="67.727"/>
			</g>
			<polygon fill="#6E6F72" points="260.859,196.836 231.236,196.836 236.988,177.304 208.139,177.943 195.734,170.424 
				191.885,156.148 193.816,155.627 197.457,169.129 208.677,175.93 239.679,175.245 233.91,194.836 260.454,194.836 
				283.121,185.264 306.299,178.478 306.861,180.396 283.738,187.167 			"/>
		</g>
		<polygon fill="#6E6F72" points="267.859,246.129 261.215,222.915 232.189,196.836 217.555,196.836 200.096,201.679 
			189.204,209.015 167.53,221.806 132.554,231.856 132.001,229.934 166.854,219.919 188.136,207.325 199.249,199.838 
			199.405,199.795 217.419,194.836 232.956,194.836 262.98,221.811 269.782,245.58 		"/>
	</g>
</g>
<polygon fill="#6E6F72" points="595.231,193.408 594.945,190.516 591.86,180.89 591.86,166.126 604.863,148.933 606.459,150.139 
	593.86,166.797 593.86,180.731 596.925,190.211 597.222,193.21 "/>
<polygon fill="#6E6F72" points="605.452,150.943 592.003,132.582 581.872,133.4 570.917,132.545 550.838,135.577 550.539,133.599 
	570.845,130.534 581.87,131.395 592.956,130.498 605.87,148.128 617.821,139.155 619.022,140.754 "/>
<g>
	<g>
		<g>
			<path fill="#6E6F72" d="M560.154,202.386l-2.938-3.458l-0.844,3.187l-2.531-2.533l-3.437-2.292l-0.364-0.729l-0.611-0.918
				l-0.623-2.607v-0.986l0.274-0.827v-0.935l-0.271-2.933l-0.004-2l1.925-1.335v-0.785l-0.55-3.11v-4.037l-0.236-1.417l-0.812-1.645
				l-0.322-1.043l-0.302-3.034l0.297-0.595v-0.136h-0.273v-0.276h-0.274v-2.814l0.579-1.74l0.228-1.133l-0.232-1.389l-0.828-2.505
				l-2.474-11.534l-0.312-2.187l0.442-1.575l1.276-2.043l0.222-1.097v-1.273l-0.273-2.929l-0.276-2.291v-1.125l1.781-2.673
				l2.062-4.127v-2.688l-0.254-1.276l-0.32-1.923l0.625-1.882l1.795-4.875l-0.217-0.108l-0.274-0.549l-0.805-0.401l0.034-2.25
				l1.079-4.048l0.249-2.243l-0.518-2.594l-1.368-6.018l-0.591-3.534l0.628-3.137l1.613-2.259l2.558-1.6l2.523-0.279l0.792-0.396
				l0.564-0.564l1.121-2.74l0.648-0.948l3.702-3.964l0.849-0.636l0.786-2.357l1.373-1.648l0.397-1.191l-0.18-0.71l-0.606-1.212
				v-2.023l0.958-0.957l0.888-0.474l-0.018-0.034l-1.373-1.396l-3.096-4.519l-0.475-0.951l-0.808-0.818l-0.968-1.294l-0.345-2.068
				l0.623-3.067l2.688-7.528v-1.063l-0.623-0.637l-0.882-1.184l-0.927-1.546l-0.34-2.357l0.512-1.521l0.347-0.115l-0.234-0.7
				l-0.354-1.416l0.331-1.338l1.071-3.482l0.042-2.883l0.781-2.606v-0.608l-0.545-0.271l-2.312-0.922l0.905-1.791l1.975-1.132
				l0.356-0.532l0.859-2.292l1.087-1.071l1.364-1.023l1.439,0.041l4.668,1.372l1.065,0.21l0.715-0.179l0.381-0.253l0.785-2.562
				l1.104-2.2h1.627l4.613,14.989l1.352,3.507l2.218,7.205l1.104,3.867l1.345,3.485l3.317,10.777l1.353,3.505l4.417,14.348
				l1.35,3.506l3.319,10.776l1.35,3.505l3.318,10.778l1.352,3.505l3.315,10.776l1.352,3.508l2.205,7.153l0.877,2.145l0.265,2.137
				l0.292,1.284v1.136l0.273,0.547v0.484l0.479,0.713l0.347,1.512v2.784l0.921,1.844l0.375,0.374l1.935,1.387l4.243,3.713
				l2.504,0.837l0.831,0.827l1.003,2.003v2.822l0.273,0.845l1.04,1.032l2.091,1.568l2.373,1.357v0.747l0.924-0.461l1.55,0.776v1.878
				l-0.276,0.823v1.649l-1.664,4.992l-0.265,2.636l-0.249,1.272l0.384,1.927l-2.541,1.272l-1.477-0.01l-2.094-0.264l-0.243,0.122
				l-3.993,3.194l-0.591,0.591l-0.283,1.036l-0.338,0.654l-0.695,1.045l-0.999,0.498h-1.171l-0.604,0.203l-0.343,0.169l-0.593,0.594
				l-0.096,0.23v0.161l-0.273,0.826v1.903l-0.402,0.398l-0.272,0.826l-0.87,0.839l-0.931,0.611l-0.453,0.25l-0.443,0.889
				l-0.329,0.981l-1.379,1.378l-0.9,0.424l-1.1,0.274l-28.581,6.599l-3.643,0.563L560.154,202.386z M555.905,196.067h1.507
				l3.479,4.096l20.829-4.808l3.643-0.563l29.467-6.823l0.308-0.154l0.816-0.816l0.255-0.729l0.621-1.247l0.506-0.501l0.638-0.32
				l0.691-0.461l0.312-0.31l0.273-0.828l0.15-0.149v-1.392l0.273-0.939v-0.236l0.453-0.906l1.052-1.055l0.825-0.397l0.978-0.329
				l1.129-0.05l0.366-0.551l0.2-0.396l0.312-1.263l1.104-1.091l4.299-3.409l0.761-0.38l0.928,0.01l1.85,0.264h0.791l0.754-0.377
				l-0.163-0.82l0.312-1.569l0.309-2.868l1.596-4.789v-1.652l0.223-0.664l-0.094,0.047l-2.326,1.555v-3.214l-1.524-0.88
				l-2.299-1.737l-1.681-1.667v-0.529l-0.273-0.827v-2.671l-0.646-1.289l-0.269-0.267l-2.438-0.816l-4.511-3.946l-2.008-1.45
				l-0.663-0.662l-1.278-2.556v-3.134l-0.202-0.811l-0.623-0.929v-0.621l-0.273-0.547v-1.484l-0.269-1.1l-0.255-2.057l-0.807-1.892
				l-2.198-7.14l-1.352-3.508l-3.315-10.775l-1.352-3.505l-3.318-10.778l-1.35-3.505l-3.319-10.777l-1.35-3.506l-4.417-14.348
				l-1.353-3.505l-3.317-10.777l-1.351-3.505l-1.126-3.932l-2.189-7.121l-1.352-3.507l-3.756-12.196l-0.776,2.582l-1.268,0.844
				l-1.484,0.372l-1.595-0.32l-4.615-1.353h-0.348l-0.774,0.581l-0.622,0.622l-0.854,2.198l-0.681,1.019l-1.021,0.584l1.595,0.791
				l-0.042,2.28l-0.781,2.606l-0.044,2.894l-1.298,4.375l0.212,0.859l0.847,2.52l-1.3,0.435l-0.043,0.125l0.215,1.487l0.693,1.157
				l0.75,1l1.066,1.066v2.237l-2.779,7.786l-0.498,2.495l0.204,1.228l0.633,0.846l0.893,0.888l0.594,1.189l0.515,0.774l2.412,3.479
				l1.425,1.425l0.531,1.066l-0.536,1.609l-1.326,0.662l-0.142,0.142v0.721l0.52,1.09l0.349,1.383l-0.702,2.104l-1.373,1.649
				l-0.861,2.588l-1.278,0.959l-3.455,3.721l-0.447,0.669L560.271,84l-1.084,1.084l-1.403,0.701l-2.424,0.269l-1.835,1.148
				l-1.133,1.587l-0.472,2.356l0.52,3.114l1.362,5.986l0.583,2.925l-0.319,2.773l-1.064,3.994v0.624l0.295,0.147l0.274,0.55
				l0.804,0.401v1.347l-2.442,6.769l0.52,2.94v3.259l-2.363,4.713l-1.479,2.22v0.459l0.265,2.139l0.281,3.052l0.004,1.565
				l-0.333,1.648l-1.385,2.216l-0.188,0.755l0.245,1.733l2.449,11.411l0.845,2.571l0.306,1.83l-0.343,1.67l-0.497,1.496v0.488h0.274
				v0.276h0.273v2.608l-0.25,0.5l0.234,2.348l0.217,0.653l0.886,1.868l0.288,1.812v4.029l0.55,3.11v1.874l-1.925,1.409v0.837
				l0.271,2.933l0.004,1.349l-0.274,0.827v0.54l0.479,1.908l0.673,1.101l3.372,2.32L555.905,196.067z"/>
			<polygon fill="#6E6F72" points="583.176,65.76 569.312,65.76 569.312,63.76 582.234,63.76 592.162,51.762 593.703,53.038 			"/>
		</g>
		<polygon fill="#6E6F72" points="553.496,106.606 552.719,104.764 569.11,97.858 593.142,97.88 609.626,101.411 609.208,103.367 
			592.827,99.858 569.515,99.858 		"/>
	</g>
	<polygon fill="#6E6F72" points="592.437,168.548 580.857,161.924 569.485,161.924 560.175,165.244 550.09,168.175 549.531,166.254 
		559.56,163.342 569.14,159.924 581.389,159.924 593.429,166.812 	"/>
</g>
<polygon fill="#6E6F72" points="578.444,99.279 576.63,98.438 581.104,88.796 583.03,82.197 584.95,82.758 582.95,89.569 "/>
<polygon fill="#6E6F72" points="584.757,85.432 582.763,85.273 583.549,75.446 581.791,64.245 583.768,63.936 585.561,75.37 
	585.552,75.487 "/>
<g>
	<g>
		<g>
			<g>
				<g>
					<g>
						<g>
							<g>
								<g>
									<g>
										<g>
											<g>
												<path fill="#6E6F72" d="M859.609,325.273l-3.017-4.54l-0.631-1.254v-2.604l-2.019-4.06l-2.132-5.903l-0.519-3.128
													l-0.537-2.766l0.042-6.011l0.982-3.271l-3.247-0.646h-0.322l-0.139,0.277l-0.03,0.525l-0.984,3.923l-5.291-5.96
													l-1.703-0.851h-2.671l-3.527-2.372l-1.336-1.335v-0.703l-0.487-0.979l-0.533-4.241l-0.413-1.244l-0.644-0.646v-2.854
													l-0.459-1.248h-0.461l-1.562,0.523h-1.624l-1.099-1.113v-0.777l-2.558-8.188l-1.023-3.575l-0.613-1.226l-3.86,1.288
													l-8.938,2.109l-8.259,2.585l-8.87,2.608l-9.153,2.284l-0.521-1.044l-10.161,2.42l-14.073,3.125l-14.552,3.639
													l-14.084,3.128l-14.026,3.637l-5.065,1.015l-1.316,0.878l-0.742,0.74h-3.945l-18.238,4.159l-5.132,0.516l-6.181,1.543
													l-6.785,1.566l-11.503,2.094l-11.939,2.597l-12.016,2.089l-11.843,2.69l-4.43-3.161v-7.8l0.521-10.464l-0.001-9.845
													l0.523-9.947l-0.001-9.836l0.52-9.947l-0.001-9.839l0.521-9.944l-0.001-13.721l1.358-2.72l5.153-1.145l5.229-1.044
													l14.143-3.137l4.63-0.516l37.544-8.333l4.635-0.517l4.851-1.054h0.405l47.274-10.911l6.842-1.054l53.994-12.467
													l3.384-1.451l1.259-1.258l0.497-1.472l1.116-2.228l0.752-0.75l1.126-0.567l1.433-0.95l0.8-0.805l0.523-1.561
													l0.393-0.395v-2.874l0.52-1.562v-0.596l0.699-1.398l1.935-1.862l1.174-0.578l1.716-0.571h2.006l0.591-0.295l0.86-1.291
													l0.441-0.885l0.564-2.248l1.837-1.83l7.988-6.362l1.247-0.625l1.42,0.01l3.574,0.509h1.789l4.338-2.169v1.928
													l2.086,4.685v1.669l-1.019,1.017l-1.668,0.371l1.276,0.316l0.516-0.514h1.35l0.928,0.924l0.476,0.952l1.529,1.02
													l4.94,8.24v1.969l5.644,1.41l-2.528,2.467l0.286,0.171l5.672-0.568l0.599,1.801l0.31,0.077v-0.12l-1.097-3.286
													l0.698-2.102l4.544-4.542l0.879,3.529l0.208,0.208l0.448,0.225l1.042-0.522l2.042,1.024v2.082l1.037,0.522v2.273
													l-1.445,0.727l-0.242,0.24l-0.496,1.466l-1.116,2.232l-0.927,0.925h-3.122l-0.061,0.061l-0.917,2.749v1.498
													l-10.886,5.441l-3.977,2.982l-0.757,1.009l0.532,0.265l0.279-0.556l4.273,4.292l-1.329,1.344l-1.044,0.52l-0.112,0.113
													v0.383l-1.855,3.036l-1.333,1.333h-1.499v1.189l0.583,0.583l4.719,1.568l-4.204,3.147l-3.549-2.536l-0.767,0.766
													l-0.361,1.456l1.395,2.792l1.071,2.681l0.414,0.818l1.911,1.907l-2.927,1.466l-0.205-0.205l-3.207,1.072l-0.259-0.065
													l1.031,2.075l-1.786,0.896l-0.63,0.632v0.849l0.679,1.022l1.044,0.347l3.191-3.189l0.679,4.764h0.57l2.649-0.658
													l1.601,2.398v0.987l-0.309,0.92h0.972l4.06-4.062l1.257,1.258l0.238-0.719l-0.993-0.332l-1.854-1.881l-1.157-1.801
													l-1.385-4.132l7.461,4.478l2.35,0.938h5.206l2.784,1.114l2.353,1.202l3.122,2.604l0.784,0.773l0.961,3.68l1.812,1.207
													l2.757,2.209l3.559,3.557l2.983,1.791v2.756l5.139,5.139h1.109v2.981l-1.628,1.621h-5.094l0.101,1.207l-1.992-0.992
													l-0.338,0.305l5.847,3.337l1.665,0.832l1.17-0.389l4.013-1.149l3.226,1.291l2.842,4.565l2.166,4.882v3.69l0.888,2.665
													l3.266,2.333l7.052,2.52l3.913,0.486l14.949-2.595l-3.47,3.455l-0.948,0.271l2.058-0.512l2.39-1.914l4.318-4.275
													l7.703-4.619l2.63-2.631l3.124-1.567l0.731-0.727l0.929-3.718l-0.481-3.861l-1.432-3.806l-4.676-3.9l0.296,2.359
													l-1.685,5.024l-2.364-9.465l-0.992-1.983l-3.084-5.14l-1.017-1.52l-1.942-3.392l-3.496-1.31l-2.286,0.761l-0.461,1.616
													l1.689-1.685v3.988l-2.419,1.605l-2.205-0.732l-2.988-2.493h-0.577l-0.518-0.521h-1.627v-3.319l1.297-2.593l1.711-0.853
													l1.618,0.538l4.003-1.501h2.052l1.658,1.106l4.504,0.999l2.787,0.559l7.074,4.917l3.262,3.299l8.791,13.963l2.715,2.706
													l-0.938,0.939v1.105l-1.76-0.03l-2.346-0.623l0.427,3l0.702-0.702h2.512l1.455,2.244l2.12,6.393l1.771,10.026h-4.602
													l-14.597,7.263l-4.404,0.979l-2.511,2.512l-1.928,0.967l-0.306,0.609l-0.544,3.29l-2.978,2.974v-5.749l-0.007,0.004
													l-2.039,1.53l-1.786,1.193l-3.185,0.53l-0.669,0.337l-1.021,1.493l-1.749,1.751l-2.493-2.5h-0.213l-0.552,0.553
													l-1.537,6.111l-1.118,2.794l-2.417,2.374l-2.802,1.653l-3.128,1.042l-2.408,0.966l-5.346,4.22l-5.052,2.02l2.645-5.266
													v-3.276l-2.544-9.669l-0.968-1.932l-1.277-1.92l0.745-2.25l0.917-0.917v-0.913l-0.078-0.157v0.404h-1.729l-3.763-1.611
													l-1.642-0.413l-0.078,0.04l0.402,3.229l2.781,4.167l-3.498,0.703l-0.284,0.857v2.11l-1.6,3.993l-2.632-1.971
													l-0.118,0.06l-0.193,0.582l0.375,0.375v1.353l-3.078,3.078l0.999,1.996v2.415l-2.239,1.124l-1.121-1.141l-1.655-2.232
													l-0.376-0.747l-0.755-0.386l-0.916-0.363l0.303,2.127l-0.564,2.275l-0.452,2.252l1.642,3.832l-1.977,3.231l-1.156,1.158
													l-1.824,0.91l-0.241-0.239l-2.607,2.946l-2.429,1.827l-5.457-0.916l2.639-2.642v-0.912l-0.143-0.286l-1.563,1.569
													h-2.062l0.319,0.427l1.296,1.282l-2.857,2.138L859.609,325.273z M858.353,319.779l1.169,1.756l3.977-6.622l1.354-1.014
													l-2.596-3.468h5.228l0.367-0.369l-0.888-4.449l3.792,2.53l1.265,2.532v2.213l-0.482,0.483l0.785,0.131l1.658-1.247
													l2.469-2.82l-0.046-0.045l1.199-1.27l0.686,0.642l0.201-0.122l0.015,0.014l0.25-0.125l0.841-0.841l1.235-2.057
													l-1.483-3.464l0.585-2.906l0.48-1.94l-0.733-5.156l4.206,1.675l1.423,0.721l0.631,1.253l1.269,1.691V297.1l-2.182-4.358
													h2.243l1.865-1.865l-0.512-0.51l0.846-2.538l1.962-0.989l1.538,1.151l0.486-1.215v-2.048l0.751-2.266l1.709-0.343
													l-1.385-2.079l-0.637-5.098l2.006-1.007l2.589,0.665l2.776,1.188v-1.027l0.899-1.808h2.074l2.042,2.042l-1.116,1.116
													l-0.223,0.445l0.401,0.807v2.21l-1.167,1.167l-0.29,0.875l0.833,1.265l1.114,2.273l2.637,10.149v3.88l-0.49,0.977
													l0.018-0.008l5.344-4.218l2.602-1.042l3.079-1.028l2.404-1.442l1.847-1.847l0.94-2.35l1.613-6.453l1.528-1.532h1.873
													l1.665,1.669l0.263-0.264l1.134-1.699l1.562-0.735l2.91-0.484l1.384-0.923l2.039-1.53l3.161-2.111v1.798l0.339-0.674
													l2.23-1.118l2.694-2.696l4.853-1.079l14.678-7.337h2.689l-1.342-7.606l-2.019-6.054l-0.671-1.004h-0.613l-3.498,3.499
													v-4.428l-0.519-3.716v-3.43l2.973,1.982l1.19,0.296l-1.407-1.438l-4.93-7.83v2.108l-2.074,1.437l1.917,1.599
													l1.716,4.639l0.543,4.35l-1.155,4.621l-1.354,1.345l-3.121,1.565l-2.681,2.64l-7.703,4.62l-4.16,4.15l-2.774,2.221
													l-4.619,1.12h-2.5l-1.514-1.518l1.045-1.05l-5.86,1.017l-4.531-0.587l-7.531-2.732l-3.908-2.792l-1.196-3.589v-3.591
													l-1.966-4.43l-2.392-3.827l-1.983-0.794l-3.314,0.948l-1.915,0.638l-2.454-1.229l-8.166-4.66l1.229-2.44h1.241
													l0.741-0.733l0.092,0.046l-0.399-4.757l1.062-2.107v-2.333l-2.311-1.421l-3.606-3.605l-2.562-2.05l-1.237-0.82h-0.996
													l-1.165-4.654l-0.324-0.322l-2.969-2.471l-1.98-0.99l-2.35-0.937h-5.206l-2.925-1.182l-2.143-1.286l1.117,1.117
													l2.021,0.675v1.403l-0.624,1.848l-1.144,2.282l-1.835-1.837l-3.163,3.165v0.587h-2.972l-1.111-1.104v-1.101l0.523-1.616
													l-0.483-0.725l-1.645,0.378h-2.429l-0.358-2.522l-0.962,0.961h-1.096l-2.047-0.681l-1.394-2.1v-2.279l1.442-1.447
													l0.185-0.093l-0.346-0.173h-3.119l1.085-4.372l2.793,0.913l-0.82-1.628l2.149-1.078h2.095l-0.701-1.755l-1.69-3.378
													l0.674-2.709l2.356-2.356l0.668,0.477v-2.71l1.109-1.108h1.56l0.664-0.663l1.354-2.26v-0.654l0.925-0.932l0.643-0.321
													l-0.829-0.827l-1.109,1.635l-2.748,2.75v-5.253l0.489-0.984l-1.009-0.502l2.481-3.246l4.315-3.216l9.861-4.929v-0.588
													l1.167-3.502l1.318-1.315l-3.821-0.949l-0.441-1.328l-4.739,0.474l-5.986-3.589h4.414l0.148-0.074l-4.594-1.193
													l-2.881-1.73l-2.565-5.989l3.864,1.292l0.844,0.737l-2.609-4.351l-1.596-1.065l-0.54-1.08l-0.354,0.353l-1.174-0.029
													l-2.291-0.594l-0.978-0.491l-4.916-1.64l7.945-1.783v-0.415l-1.764-3.961l-3.444,1.722v-0.628l-1.217-0.01l-3.574-0.509
													h-0.735l-0.73,0.366l-7.685,6.147l-1.325,1.326l-0.53,2.019l-0.581,1.148l-1.19,1.786l-1.488,0.744h-2.153l-1.34,0.446
													l-0.833,0.418l-1.331,1.332l-0.344,0.687v0.447l-0.52,1.562v3.374l-0.645,0.649l-0.523,1.562l-1.357,1.337l-1.67,1.099
													l-0.894,0.45l-0.295,0.294l-0.938,1.872l-0.568,1.72l-1.866,1.866l-3.989,1.692l-54.154,12.501l-6.842,1.054
													l-47.537,10.949h-0.409l-4.687,1.036l-4.635,0.517l-37.544,8.333l-4.63,0.516l-14.005,3.112l-5.229,1.044l-4.202,0.935
													l-0.722,1.445v13.301l-0.521,9.944l0.001,9.839l-0.52,9.947l0.001,9.837l-0.523,9.947l0.001,9.842l-0.521,10.464
													l0.001,6.721l2.861,2.042l11.019-2.503l12.024-2.091l11.932-2.594l11.491-2.091l6.722-1.552l6.376-1.582l5.145-0.518
													l4.626-1.029l13.757-3.146h3.233l0.377-0.349l1.727-1.152l5.399-1.081l14.006-3.632l14.093-3.13l14.552-3.639
													l14.084-3.127l11.691-2.785l0.513,1.029l7.555-1.885l8.813-2.593l8.312-2.599l8.921-2.103l5.418-1.812l1.498,3.033
													l1.042,3.641l2.643,8.651h0.396l1.562-0.523h1.621l0.976,0.985l0.649,1.937v2.354l0.393,0.394l0.637,1.976l0.502,4.001
													l0.546,1.095v0.344l0.68,0.679l2.789,1.857h2.538l2.47,1.234l3.034,3.417l0.032-0.13v-0.629l0.9-1.807l1.854,0.019
													l1.854,0.369l0.649-1.292l1.534-6.655l0.652-1.978l3.806-2.542l-1.481,8.157l-3.085,10.273v5.477l0.504,2.505l0.51,3.07
													l2.033,5.584l2.159,4.326v2.6L858.353,319.779z M891.3,234.229l0.468,5.575l2.068-2.075l0.178-0.089l-1.397-2.103
													L891.3,234.229z M953.437,235.469h3.06l0.38-0.355l0.375-0.25h-0.499l-1.845-0.626l-1.298-0.646l-0.344,0.517
													L953.437,235.469z M939.229,218.225l4.834,1.812l2.266,3.96l1.006,1.502l3.146,5.248l1.126,2.244l1.32-1.978
													l2.807,1.403l1.343,0.449h2.622l-3.567-5.667l-2.979-2.981l-6.522-4.515l-2.401-0.482l-4.89-1.084l-1.465-0.978h-1.083
													l-4.327,1.622l-1.505-0.5l-0.371,0.186l-0.789,1.576l0.043,0.846h0.416l0.518,0.521h0.47l2.822,2.354l1.204-4.219
													L939.229,218.225z M847.128,202.056l1.118,0.56l-0.562-0.56H847.128z M872.012,162.045h0.67l0.112-0.112l0.937-1.873
													l0.57-1.721l0.949-0.874l0.295-0.148l-0.846-0.425l-0.042-2.102l-1.042,0.522l-1.638-0.82l-0.825-0.833l-0.158-0.635
													l-1.71,1.708l-0.339,1.021l0.989,2.963v2.954l0.146-0.146h1.931V162.045z M853.579,151.94l1.499,0.901l-1.78-1.557
													L853.579,151.94z"/>
												
													<rect x="874.438" y="236.394" transform="matrix(0.6552 0.7555 -0.7555 0.6552 499.9948 -570.9565)" fill="#6E6F72" width="2" height="51.67"/>
											</g>
											<polygon fill="#6E6F72" points="822.454,258.243 820.655,257.369 826.701,244.931 830.184,234.471 830.184,224.459 
												834.663,214.755 843.391,209.07 844.482,210.746 836.237,216.116 832.184,224.898 832.184,234.795 828.528,245.746 
																							"/>
										</g>
										
											<rect x="827.234" y="247.431" transform="matrix(0.8485 0.5291 -0.5291 0.8485 260.6888 -413.8805)" fill="#6E6F72" width="52.153" height="2"/>
									</g>
									<polygon fill="#6E6F72" points="848.412,191.843 843.283,186.338 837.025,182.136 832.417,178.75 821.264,178.708 
										809.324,175.08 803.156,168.962 804.564,167.542 810.381,173.311 821.703,176.75 833.073,176.75 838.175,180.5 
										844.668,184.89 849.875,190.48 									"/>
								</g>
								<polygon fill="#6E6F72" points="831.184,222.124 826.215,222.082 816.817,219.279 797.429,219.279 789.714,213.433 
									787.738,210.535 781.536,203.909 778.278,194.992 778.305,190.933 782.579,172.71 784.526,173.167 780.278,191.277 
									780.278,194.639 783.274,202.839 789.348,209.344 791.183,212.036 798.101,217.279 817.249,217.321 826.646,220.124 
									831.184,220.124 								"/>
							</g>
							<polygon fill="#6E6F72" points="782.975,267.856 780.998,267.545 782.493,258.048 778.329,252.085 777.284,245.825 
								771.879,241.079 771.879,227.584 778.278,223.425 778.278,220.79 782.915,214.608 790.084,211.803 790.812,213.666 
								784.173,216.263 780.278,221.457 780.278,224.51 773.879,228.669 773.879,240.173 779.14,244.792 780.228,251.311 
								784.595,257.564 							"/>
						</g>
						<polygon fill="#6E6F72" points="772.879,229.127 746.333,229.127 731.857,221.841 728.506,212.916 728.506,200.117 
							731.656,196.646 731.656,184.164 733.656,184.164 733.656,197.418 730.506,200.89 730.506,212.553 733.455,220.406 
							746.808,227.127 772.879,227.127 						"/>
					</g>
					<polygon fill="#6E6F72" points="677.022,224.257 670.374,224.257 670.61,197.4 672.61,197.417 672.392,222.257 
						676.755,222.257 684.71,220.124 732.656,220.124 732.656,222.124 684.844,222.124 					"/>
				</g>
				<polygon fill="#6E6F72" points="706.195,258.806 688.113,258.806 679.658,249.188 665.13,239.415 666.698,230.313 
					670.49,222.806 672.275,223.708 668.552,231.079 667.315,238.475 681.075,247.771 689.018,256.806 705.887,256.806 
					722.61,251.517 736.597,239.526 745.776,227.52 747.365,228.734 737.979,240.977 723.603,253.301 				"/>
			</g>
			<polygon fill="#6E6F72" points="727.444,280.593 724.239,273.238 724.239,267.482 726.746,262.01 726.746,248.431 
				728.746,248.431 728.746,262.447 726.239,267.919 726.239,272.821 729.278,279.794 			"/>
		</g>
		<polygon fill="#6E6F72" points="665.976,294.574 664.512,290.259 664.512,267.832 665.929,264.141 665.047,234.663 
			667.047,234.604 667.94,264.482 666.512,268.203 666.512,289.929 667.87,293.931 		"/>
	</g>
	<polygon fill="#6E6F72" points="665.501,259.004 647.331,258.802 640.937,252.698 623.024,252.698 617.798,254.583 617.12,252.701 
		622.675,250.698 641.737,250.698 648.142,256.811 665.522,257.004 	"/>
</g>
<g>
	<path fill="#6E6F72" d="M870.395,561.993v-7.26l-2.323-15.188v-4.875l1.409-2.834l1.949-0.969l-3.342-17.852l-2.322-11.602
		l-2.315-9.244l-4.632-16.238l-3.51-16.317l-4.62-16.202l-4.655-17.439l-9.287-32.502l-3.499-16.328l-4.902-18.354l19.58-4.893
		l19.698-5.798l18.574-5.804l19.81-4.67l11.192-3.731l2.782,5.595l2.314,8.133l5.847,18.86v0.742l0.58,0.578h1.75l3.483-1.163h2.901
		l1.615,1.625l1.285,3.863v5.556l1.042,1.037l1.274,3.897l1.148,9.122l1.188,2.382v0.986l1.96,1.957l6.629,4.426h5.742l5.028,2.512
		l9.67,10.882v3.704l1.169,3.481v1.679l-5.094,6.288l-3.721,2.437l-4.07,1.361l-3.053-3.053l0.014-15.682l1.103-6.649l-0.862-1.731
		l-1.817-0.908h-0.507l-0.511,0.508l1.098,6.624v3.321h-3.561l-9.647-4.824l-3.792-3.791l-1.194-4.754l-4.489-6.735l-1.717-1.714
		v2.134l1.139,5.648l2.304,6.913l1.067,4.273l6.792,3.4l2.639,3.955v2.791l-2.323,6.969v5.742l-4.137-4.154l-0.964-1.913h-3.609
		l-4.064,4.06v1.13l4.162,1.035l3.826,3.828l2.451,6.176l1.196,6.004l-1.234,6.192l-2.266,3.406v2.765l4.47,4.461l2.469,5.02
		l3.492,15.099l1.214,4.87l-5.838,24.512v8.63l-3.09,1.542l-2.793-0.029l-4.531-1.131h-3.178l-9.021,3.379l-32.583,22.098
		L870.395,561.993z M870.071,539.469l2.323,15.188v4.277l17.096-7.481l32.544-22.092l9.584-3.59l3.905,0.029l4.531,1.131h1.957
		l1.561-0.778l0.027-7.742l5.752-24.151l-1.101-4.414l-3.469-15.001l-2.191-4.401l-4.825-4.814v-4.198l2.381-3.582l1.08-5.413
		l-1.101-5.522l-2.213-5.534l-3.143-3.145l-5.141-1.279v-3.521l5.236-5.231h5.668l1.376,2.728l0.494,0.496v-1.223l2.323-6.969
		v-1.861l-2.008-3.01l-7.141-3.574l-1.269-5.092l-2.333-7.017l-1.19-6.004v-7.058l5.327,5.348l4.734,7.104l1.144,4.553l3.173,3.172
		l8.933,4.467h1.09v-1.238l-1.24-7.396l1.827-1.818h1.806l2.837,1.418l1.45,2.909l-1.196,7.208v14.607l1.592,1.592l2.771-0.927
		l3.243-2.16l4.332-5.411v-0.651l-1.169-3.481v-3.271l-8.908-10.024l-4.262-2.129h-5.876l-7.366-4.94l-2.617-2.612v-1.346
		l-1.129-2.265l-1.179-9.363l-1.051-3.162l-1.294-1.287v-6.063l-1.035-3.111l-0.697-0.701h-1.745l-3.483,1.163h-2.9l-1.754-1.748
		v-1.42l-5.763-18.441l-2.297-8.066l-1.896-3.787l-9.635,3.209l-19.828,4.675l-18.521,5.789l-19.754,5.813l-17.647,4.411
		l4.389,16.44l3.494,16.311l9.276,32.454l4.655,17.439l4.632,16.25l3.51,16.317l4.624,16.205l2.334,9.322l2.336,11.661l3.622,19.349
		l-2.701,1.344l-0.901,1.812V539.469z"/>
	<polygon fill="#6E6F72" points="847.209,426.693 846.777,424.74 859.732,421.904 869.544,421.904 881.325,411.469 885.227,397.293 
		885.227,356.998 877.392,346.435 878.997,345.243 887.227,356.338 887.19,397.693 883.097,412.572 870.302,423.904 
		859.842,423.904 	"/>
	<polygon fill="#6E6F72" points="936.004,415.001 922.684,408.619 912.187,408.619 906.072,399.447 901.312,399.447 
		891.047,393.333 886.227,393.333 886.227,391.333 891.598,391.333 901.863,397.447 907.143,397.447 913.257,406.619 
		923.139,406.619 936.867,413.198 	"/>
	<polygon fill="#6E6F72" points="923.021,473.893 905.972,469.732 893.779,465.483 885.458,459.21 880.201,452.901 878.094,442.404 
		878.094,426.097 872.91,420.258 874.406,418.93 880.094,425.337 880.094,442.304 882.061,452.009 886.92,457.84 894.854,463.789 
		906.535,467.815 922.8,471.779 938.328,464.312 939.195,466.115 	"/>
	<polygon fill="#6E6F72" points="870.604,519.541 869.706,517.754 894.04,505.522 911.157,499.349 948.927,499.349 948.927,501.349 
		911.507,501.349 894.774,507.383 	"/>
</g>
<g>
	<g>
		<g>
			<g>
				<g>
					<g>
						<path fill="#6E6F72" d="M577.25,571.388l-1.164-2.337l-1.459-1.46h-0.618l-10.322-10.323l22.999-22.993l0.662-0.996
							l-1.923-1.489l-1.826-2.431l-5.75-5.756l-0.687-3.403l-2.486-14.944l-1.238-6.819l-2.491-14.926l-1.235-6.819l-2.488-14.925
							l-1.241-6.819l-2.482-14.926l-1.241-6.819l-2.489-14.925l-1.241-6.818l-1.395-8.401l14.581-3.316l14.346-2.493l14.244-3.101
							l13.703-2.491l8.03-1.854l7.582-1.885l7.007-0.699l1.197,3.605l3.18-0.792l-0.627-3.743l17.299-3.967h3.93l0.483-0.454
							l2.027-1.351l6.406-1.279l16.72-4.34l16.809-3.733l17.368-4.343l16.803-3.735l13.802-3.286l1.043,2.142l2.486,9.318
							l1.875,8.748l4.952,17.327l2.493,9.337l2.482,8.682l1.879,8.761l2.466,8.633l1.25,5.001l1.255,6.257l2.005,10.694l-1.62,0.811
							l-0.365,0.733v2.172l1.41,9.149h-0.204v2.736l-5.18,2.596l-1.576-3.176l2.148-0.718l-0.507-0.254l-1.642-0.548h-1.537
							l-7.077,2.358l-0.526,0.521l-7.381,6.041l-6.145-3.69l-0.394,0.395v3.477l-0.86,2.571l-3.854,0.769l-3.726-0.619l-2.122,0.423
							v5.005l-3.866-1.546l-6.101,6.102l-5.177-0.737l-0.659-0.667l-3.247,4.333l-3.006,0.748l-5.547-0.615l-1.506,0.499
							l-2.237,1.687l-1.662,2.207l-0.872,3.503l-2.91-1.465l-0.031-0.235l-0.518-0.516l-1.183,1.182l-6.202-0.695l-2.131-0.527
							l-5.508,2.753l-0.543,1.601l-0.768,1.543l-3.232,1.608l-2.722-1.354h-2.731l-4.118,1.173l-0.924,0.465l-1.395,2.085h-2.867
							l-6.373,1.914l-2.394-0.789l-1.572-1.587l-1.116-3.341l-0.113,0.113v1.863l-0.82,0.815L648,512.974l-1.876,4.985l-0.692,1.397
							l-1.589,1.582l-3.537,0.585l-0.469,0.94l-4.297,4.288l-0.492,1.491v1.489l-1.166,1.096l-1.191,0.604l-2.295,1.523
							l-1.905-0.947l-0.569-0.568l-1.442-0.487l-3.094,4.343h-1.377v0.648l-1.368,1.374l-0.601,1.765l-0.898,1.804h-2.024
							l-1.865-0.632h-0.215l-0.664,0.338l-0.621,1.861l-5.1,2.552l-1.023,1.535l-0.656,1.955l-5.288,5.264l-1.779,1.186
							l-4.682,4.686l-2.093-0.531l-1.306,4.579l-1.43-0.71l-0.869,1.729l-2.17,2.177l-3.114,0.775l-1.989-0.989v0.548l-1.646,0.823
							L577.25,571.388z M574.835,565.591h0.618l2.348,2.418l1.619-1.62l0.832-0.418v-0.417l1.426-1.412l2.794,1.389l1.86-0.463
							l1.551-1.556l1.619-3.221l1.059,0.526l1.179-4.136l2.87,0.73l4.104-4.076l1.779-1.186l4.733-4.736l0.665-1.872l1.392-2.089
							l4.834-2.419l0.617-1.854l1.824-0.926h1.023l1.865,0.632h0.456l0.316-0.634l0.671-2.011l1.118-1.126v-2.453h2.617v0.252
							l2.834-3.979h1.299l2.247,0.758l0.669,0.67l0.578,0.287l1.482-0.976l1.101-0.559l0.213-0.213v-0.983l0.744-2.251l4.4-4.392
							l0.779-1.562l3.914-0.647l0.899-0.896l0.524-1.057l1.906-5.049l3.274-5.816l0.331-0.329v-1.861l2.249-2.243l1.486,1.502
							l1.244,3.723l0.905,0.915l1.338,0.441l6.199-1.818h1.945l1.094-1.634l1.653-0.813l4.618-1.275h3.342l2.251,1.12l1.74-0.866
							l0.438-0.879l0.729-2.19l6.91-3.454l2.781,0.689l5.052,0.559l1.189-1.188h1.452l0.619,0.616h0.976l0.17-0.682l2.188-2.841
							l2.611-1.969l2.232-0.739l5.627,0.623l1.967-0.49l0.761-1.016l-1.174-0.582v-4.558l-3.38-3.382l-4.109-3.076l4.807-1.21
							l2.374,0.834l2.149,1.43l0.703,2.123l0.818,1.622l-0.744,1.482v0.587l0.215,0.213l1.038,0.521l2.021,0.674l0.551,0.557
							l3.521,0.501l6.325-6.326l2.349,0.938v-3.692l4.089-0.815l3.726,0.619l2.358-0.47l0.39-1.163V473l2.081-2.088l6.279,3.771
							l6.252-5.116l0.751-0.755l7.835-2.61h2.186l2.148,0.728l1.796,0.898v1.483l0.487-0.244v-2.673l-1.206-7.902v-2.719
							l0.873-1.753l0.868-0.434l-1.724-9.2l-1.242-6.199l-1.231-4.923l-2.474-8.665l-1.879-8.761l-2.471-8.634l-2.493-9.337
							l-4.964-17.375l-1.879-8.766l-2.449-9.172l-0.219-0.44l-12.271,2.921l-16.792,3.732l-17.368,4.343l-16.8,3.731l-16.74,4.344
							l-6.074,1.215l-1.616,1.076l-0.848,0.845h-4.642l-15.13,3.492l0.621,3.712l-6.771,1.687l-1.277-3.846l-5.341,0.534
							l-7.387,1.846l-8.094,1.867l-13.715,2.494l-14.252,3.103l-14.337,2.49l-12.692,2.888l1.083,6.527l1.241,6.818l2.489,14.924
							l1.241,6.82l2.482,14.926l1.241,6.819l2.489,14.925l1.235,6.819l2.49,14.925l1.238,6.819l2.483,14.926l0.562,2.777
							l5.466,5.487l1.782,2.372l3.122,2.338l-1.89,2.807l-21.654,21.659L574.835,565.591z M716.893,488.564h2.299l-1.738-0.591
							l-1.038-0.521v0.875L716.893,488.564z M711.484,479.467l0.914,0.697l3.092,3.093l-0.406-0.828l-0.51-1.539l-1.465-0.974
							l-1.458-0.491L711.484,479.467z"/>
						<polygon fill="#6E6F72" points="646.901,513.538 640.023,512.331 640.023,509.367 626.251,509.367 615.243,510.929 
							593.468,510.929 585.492,512.523 575.865,509.315 576.498,507.419 585.621,510.459 593.369,508.929 615.172,508.929 
							626.18,507.367 642.023,507.367 642.023,510.651 647.247,511.567 						"/>
						<polygon fill="#6E6F72" points="597.564,452.282 566.355,452.282 566.355,450.282 596.986,450.282 604.94,445.272 
							605.712,439.553 605.712,435.382 610.962,427.893 616.524,425.254 615.739,417.105 646.074,404.577 646.074,394.12 
							641.629,391.664 642.596,389.914 648.074,392.94 648.074,405.915 617.872,418.389 618.649,426.459 612.296,429.473 
							607.712,436.013 607.703,439.754 606.798,446.466 						"/>
					</g>
					<polygon fill="#6E6F72" points="666.504,506.612 652.848,499.694 651.354,494.961 646.074,491.741 646.074,488.152 
						639.393,482.256 639.393,468.937 646.123,461.068 647.124,453.662 646.119,443.226 641.693,439.657 628.068,431.276 
						617.204,426.78 617.97,424.933 629.049,429.531 642.899,438.061 648.029,442.196 649.138,453.701 648.025,461.92 
						641.393,469.675 641.393,481.354 648.074,487.25 648.074,490.618 653.036,493.645 654.502,498.29 667.408,504.829 					"/>
				</g>
				<polygon fill="#6E6F72" points="720.762,487.72 718.762,487.683 718.926,478.663 718.926,465.837 709.826,459.042 
					705.946,452.083 697.863,448.918 692.724,448.918 680.717,452.365 675.114,448.918 660.007,448.918 648.574,454.578 
					647.688,452.785 659.538,446.918 675.681,446.918 681.014,450.199 692.583,446.918 698.24,446.918 707.343,450.481 
					711.365,457.694 720.926,464.835 720.926,478.682 				"/>
			</g>
			<polygon fill="#6E6F72" points="698.993,448.255 697.063,447.767 698.93,435.546 699.277,430.771 694.859,426.425 
				691.409,417.942 691.409,397.987 702.146,387.147 691.664,375.444 693.154,374.11 704.893,387.216 693.409,398.81 
				693.409,417.552 696.557,425.288 701.34,429.994 700.915,435.771 699.86,442.69 700.859,443.048 			"/>
		</g>
		<polygon fill="#6E6F72" points="716.382,463.271 715.521,461.466 730.338,454.398 740.236,446.003 746.336,435.314 
			749.964,421.695 740.553,418.647 731.989,412.271 721.392,409.676 711.283,403.166 706.561,404.487 692.761,409.68 
			692.058,407.809 705.939,402.589 711.609,400.998 722.192,407.812 732.858,410.425 741.482,416.847 752.386,420.377 
			748.137,436.193 741.799,447.3 731.316,456.147 		"/>
	</g>
	
		<rect x="754.829" y="404.352" transform="matrix(0.583 0.8125 -0.8125 0.583 652.2759 -441.0819)" fill="#6E6F72" width="2" height="21.077"/>
</g>
<g>
	<g>
		<g>
			<g>
				<g>
					<g>
						<g>
							<g>
								<path fill="#6E6F72" d="M448.495,575.471h-1.361l-1.927-1.285v-1.595l0.414-0.821v-1.301l-0.842-4.202l0.447-2.247
									l2.022-9.298l-0.367-3.669l-2.104-2.811l-0.783-0.259h-1.407l-2.641,0.375l-0.807,0.395l-1.163,0.389l-0.969,0.483h-2.057
									v-1.818l-0.36-0.358l-0.543-0.182l-1.06,0.665l-2.237,0.747l-0.949,0.947l-0.412,0.821l-1.102,1.102l-2.77,0.922v-1.014
									l-1.151-0.286l-1.309-1.315v-2.457l-0.823-0.825l-2.927-1.464h-1.229l-1.245-0.618l-1.341-1.789l-2.919,0.356h-1.733
									l-1.53-2.04l-0.742-1.111l-0.811-0.539h-0.105l-0.816,0.817h-1.062l-1.178-0.586l-0.874-0.878l-9.689-6.863l-2.936-1.275
									l-2.729-1.817l-1.343-3.588l1.224-0.784l-0.057-0.385v-4.761l-0.262-0.779l-3.032-2.273l-1.63-1.092v-1.628l1.521-2.479
									l1.118-1.121l0.233-0.462v-3.759l0.821-1.229v-0.754l0.663-1.326l0.567-0.284v-0.132l-0.439-3.056l1.412-3.7l2.14-3.401
									l2.646-3.041l4.103-2.873l3.091-1.768l2.149-0.433l0.992-0.33l2.508-2.056l1.09-0.545v-0.79h0.408v-0.412h2.108l0.489-0.733
									l0.866-1.732l0.528-0.527l-0.908-0.68l-1.032-2.066v-2.462h1.613l1.159-2.331l0.688,0.685l1.569-4.369l0.915-1.825
									l2.62-2.185l0.666-0.675l2.403-4.001l0.973-1.462l3.695-2.069l2.043-3.224l0.553-0.554l2.243-0.897l2.243-1.122l1.709-1.71
									l0.296-1.785l-0.925-1.544l-2.208-1.471l-5.497-2.58l-2.869-2.46l-4.161-3.748l-0.726-0.723l-5.049-2.95l-2.164-3.866
									l-0.604-0.805l-2.523,1.802l-2.804-1.127l-1.807-2.256l-1.351-1.801l-2.452-7.769l-1.664-1.998l-3.365-0.338l-2.161,1.299
									l-2.06-0.684l-1.474-2.967l-0.387-1.162L389,405.684v-1.342l-0.764-3.057l-0.47-0.93v-0.897l-0.818-2.464l0.008-1.511
									l0.291-2.333l-1.336-2.673l1.216-1.209l0.276-0.554l0.589-2.95l2.377,0.598l0.73-0.245l0.771-0.771v-4.398l1.713-2.572
									l0.289-1.157l-0.622-1.562l-1.427-1.427l-1.299-0.892l-0.936-0.935l-0.205-0.409h-2.026v-1.411l-0.241-0.268l-0.766-1.147
									l-1.539-1.537l0.562-2.816l1.795-2.241l1.398-1.869l1.373-0.454l1.456-1.095l1.04-1.036l2.134-5.128l-0.378-1.139
									l0.73-0.736l0.414-0.819l2.032-2.032l2.746-6.273l0.783-4.724v-5.14l3.286-4.924v-0.271l0.408-1.226v-0.662l0.991-1.001
									h0.704l0.671-1.004l2.552-1.278l1.557-1.552l35.043,11.681l9.014,2.868l15.926,5.308v-0.001l10.484,3.493l0.538,2.727
									l0.419,4.634l-1.288,8.08l-2,5.999l-0.019,2.9l-0.356,1.794l0.375,1.137v3.38l-1.816,2.272l-2.429,4.045l-0.519,1.05
									l-1.252,0.619l-2.679,0.889l0.46-5.088l-0.148,0.147l-0.23,0.461v2.054l-0.999,1.997l-1.232,1.233l-0.278,0.553
									l-0.362,1.822l-0.019,4.2l-0.496,2.306l-0.507,0.971l-1.223,1.664l0.144,0.143l0.384,3.094l1.163,0.584l-1.051,2.628
									l0.314,1.565l0.415,0.618h2.569l1.644,0.825h0.372l3.693-1.644l2.374,0.006l7.592,0.867l2.746,0.915l-0.155-0.164
									l-1.786-2.305l-1.065-2.662l1.899-1.902l2.521,1.892l1.403,2.829l4.145,13.832v2.622l-0.847,2.54l-0.362,2.165l0.81,2.834
									l-0.871,9.396l-0.591,2.074l1.107,0.552l1.519,2.027l0.474,2.832l-0.416,4.145l0.404,4.832l0.002,1.311l0.409,0.408v4.054
									l1.249,11.236l-0.89,2.672l-1.938-0.174l-2.015-14.109l-0.979,1.636l-0.348,1.38v1.42l0.414,2.15v0.572l-0.854,2.554
									l-0.396,1.989l-0.393,3.554v2.61l1.025,0.51l1.847,0.613v2.6l-1.257,2.519l-0.414,3.284l-0.998,2.009l-1.582,1.182
									l-0.841,2.404l-1.785,2.684l-0.821,0.409l-0.578,0.864l-0.677,2.713l0.953,1.59l1.849,1.849v2.771l-2.738,0.92l-1.434-2.871
									l-2.712-0.903l-0.552,0.551l-1.845,0.614l-0.091-0.045l0.301,1.512l0.576,1.151l1.06,0.354l1.283,1.28l-0.014,2.217
									l-0.546,3.301h-2.314l-0.585-0.293l-0.228,0.114l-1.001,1.001l-0.233,0.465l-0.029,1.234l-0.233,0.938l0.425-0.283
									l2.37,1.188l1.427,1.911l1.75,2.91l-2.804,1.685l-4.209,4.167l-2.386,1.431v2.636l-2.196,2.194l-2.078,5.403l-1.589,1.188
									l-0.322,1.297l-2.301,9.667l-0.221-0.074l0.582,1.729l-1.769,3.531l-0.443,2.218l-1.557,1.562l-1.222,0.607l0.867,1.733
									l-0.957,3.825l-2.27,3.153l-3.005,2.984l-4.229,2.943L448.495,575.471z M447.739,573.471h0.283l0.544-0.272l3.972-2.777
									l2.75-2.751l1.895-2.651l0.684-2.737l-0.76-1.523v-1.676l2.05-1.021l0.9-0.903l0.437-2.005l1.456-2.912l-0.179-0.53
									l-2.204,2.188v-1.811h-0.407v-1.355l-0.242-0.197l0.782-1.179l0.662-1.319h1.602l0.347,0.115l2.295-9.55l1.698-1.271
									l1.724-4.482l-0.617,0.37h-1.746l-0.819-0.413h-4.4l2.31-3.855l2.494-0.986l3.78-0.945l-0.558-0.836l3.062-7.651
									l4.447,2.222l-2.176,3.259l-0.314,1.258l4.207-4.165l1.194-0.717l-0.692-1.152l-1.057-1.409l-0.91-0.455l-1.841,1.226
									l-0.913-2.747l0.449-1.806v-1.344l0.589-1.178l1.459-1.458l1.413-0.71l1.06,0.531h0.145l0.256-1.546v-1.143l-0.362-0.361
									l-1.399-0.465l-1.093-2.266l-1.461-7.353l3.036,3.054l0.304,0.151l0.614-0.204l1.092-1.09l3.66,1.219l-1.181-1.971
									l0.962-3.85l1.067-1.597l0.817-0.407l1.419-2.132l0.877-2.632l1.704-1.271l0.635-1.278l0.415-3.287l1.198-2.4v-0.686
									l-0.675-0.234l-2.197-1.094l0.006-4.015l0.412-3.694l0.454-2.257l0.771-2.452l-0.414-2.15l0.03-1.888l0.526-1.912
									l0.616-1.029l-4.035-0.574l2.096-2.8l0.318-1.9l-0.168-0.337l-1.842,1.23v-3.93l1.281-1.274l1.229-0.412l0.585-0.584
									l0.665-1.003l0.211-0.841l-1.922,0.479v-2.434l2.122-2.83l1.75,1.752l0.985,2.022l0.058-0.579l-0.35-2.089l-0.942-1.259
									l-2.17-1.081l1.021-3.581l0.795-8.747l-0.831-2.91l0.487-2.839l0.769-2.306v-2.149l-3.047-10.062l-1.142,0.76l-4.051-1.351
									l-7.225-0.804h-1.783l-3.693,1.644h-1.271l-1.644-0.825h-3.163l-1.23-1.835l-0.51-2.538l0.59-1.476l-0.478-0.24l-0.43-3.469
									l-0.677-0.672l0.826-1.627l1.176-1.568l0.313-0.621l0.362-1.82l0.019-4.2l0.496-2.306l0.483-0.961l1.229-1.231l0.644-1.288
									v-2.05l0.586-1.174l2.905-2.905l0.983,2.972l-0.285,3.146l0.166-0.083l0.26-0.523l2.578-4.281l1.42-1.777v-2.356
									l-0.439-1.332l0.439-2.214v-2.932l2.077-6.229l1.197-7.593l-0.392-4.334l-0.285-1.431L454.5,336.66l-9.014-2.867
									l-33.886-11.296l-0.911,0.907l-2.368,1.188l-0.971,1.451h-0.768l-0.403,1.213v0.553l-3.286,4.924l-0.014,4.779l-0.887,5.167
									l-2.948,6.735l-2.071,2.069l-0.5,0.903l0.266,0.8v1.57h-0.742l-1.872,4.496l-1.476,1.459l-1.774,1.332l-1.087,0.36
									l-1.042,1.393l-1.51,1.886l-0.257,1.287l0.976,1.004l0.766,1.147l0.633,0.631v0.241h1.262l0.613,1.224l0.637,0.636
									l1.3,0.892l1.789,1.788l1.012,2.544l-0.529,2.12l-1.57,2.354v4.623l-1.689,1.689l-1.731,0.581l-0.908-0.229l-0.289,1.271
									l-0.483,0.969l-0.427,0.424l0.221,0.441h0.926l-0.542,4.348v1.003l0.818,2.462v0.745l0.383,0.813l0.851,3.526v0.994
									l0.357,0.741l0.387,1.161l1.016,2.029l0.4,0.133l1.942-1.168l4.839,0.486l2.439,2.93l2.468,7.817l1.127,1.504l1.459,1.82
									l1.301,0.523l3.22-2.3l1.89,2.531l1.931,3.45l4.89,2.894L421.9,431l3.647,3.238l2.75,2.357l5.345,2.481l2.647,1.764
									l1.535,2.56l-0.522,3.145l-2.393,2.393l-2.61,1.302l-1.936,0.778l-0.183,0.183l-2.142,3.429l-1.074,0.534l-2.616,1.499
									l-0.687,1.029l-2.587,4.254l-0.821,0.825l-2.368,1.98l-0.701,1.398l-2.562,7.168l-0.955-0.95l-0.475,0.956h-0.848
									l0.604,1.21l2.378,1.779l-1.932,1.932l-0.811,1.604l-1.118,1.676h-1.177v0.412l-0.408,0.026l-2.092,1.046l-2.516,2.098
									l-1.528,0.5l-1.893,0.38l-2.732,1.559l-3.921,2.751l-2.329,2.72l-1.958,3.133l-1.108,2.947l0.387,2.762v1.438l-1.076,0.54
									l-0.154,0.309v0.889l-0.821,1.229v3.628l-0.704,1.284l-1.144,1.147l-1.024,1.716l0.787,0.528l3.572,2.677l0.564,1.68v4.988
									l0.788,3.953l-0.999-0.497l0.035,0.093l2.115,1.409l2.973,1.296l9.978,7.088l0.7,0.703l0.306,0.152l0.739-0.739h1.538
									l1.648,1.096l0.932,1.401l0.897,1.193h0.671l3.705-0.462l0.848,0.863l1.086,1.451l0.398,0.198h1.231l3.643,1.821
									l1.635,1.636v2.463l0.333,0.335l1.791,0.445l0.026-0.009l0.54-0.539l0.412-0.821l1.511-1.51l2.556-0.854l1.525-1.02
									l1.917,0.643l1.281,1.276v0.442l0.325-0.151l1.161-0.389l0.904-0.454l3.176-0.441h1.8l1.686,0.558l2.814,3.758l0.454,4.538
									l-2.452,11.43l0.803,4.103v1.877l-0.414,0.869L447.739,573.471z M466.14,531.221h0.715l4.202-2.524v-0.121l-5.258,1.314
									l-1.675,0.67l-0.149,0.248h1.346L466.14,531.221z M470.719,525.95l0.394,0.591l0.835-3.35l1.109-1.661l-0.475-0.237
									L470.719,525.95z M490.27,455.57l1.361,0.193l0.961,0.478l-0.221-1.547l0.422-3.814l0.388-1.94l-0.487-2.171l-0.029,0.116
									l-1.037,1.527l-0.988,0.987l-0.712,0.238l1.211,2.426l-0.506,3.021L490.27,455.57z M487.691,401.657l0.579,0.726l-0.603-1.2
									l-0.238-0.18L487.691,401.657z"/>
								<polygon fill="#6E6F72" points="400.782,391.016 391.998,391.016 389.625,388.021 391.192,386.779 392.965,389.016 
									400.181,389.016 411.518,381.524 421.731,376.174 427.537,364.563 430.735,351.45 430.735,328.147 432.735,328.147 
									432.707,351.808 429.376,365.357 423.231,377.646 412.491,383.272 								"/>
							</g>
							<polygon fill="#6E6F72" points="464.382,395.739 459.376,394.275 456.976,391.016 453.736,391.016 448.232,388.147 
								445.481,382.646 445.481,373.693 447.981,368.193 447.981,359.484 443.981,355.312 443.981,352.201 440.232,350.41 
								431.735,350.41 431.735,348.41 440.685,348.41 445.981,350.939 445.981,354.508 449.981,358.68 449.981,368.627 
								447.481,374.127 447.481,382.174 449.731,386.673 454.227,389.016 457.987,389.016 460.586,392.545 464.944,393.819 							
								"/>
							<polygon fill="#6E6F72" points="459.882,403.431 452.165,400.858 443.214,398.374 434.47,395.639 426.332,390.793 
								422.074,385.83 418.809,378.778 420.624,377.938 423.83,384.861 427.631,389.238 435.391,393.859 443.777,396.455 
								452.749,398.946 460.081,401.39 464.944,400.767 465.198,402.751 							"/>
						</g>
						<polygon fill="#6E6F72" points="470.558,433.276 451.177,433.276 444.23,428.61 441.394,423.677 441.394,418.558 
							439.458,413.599 439.458,396.475 441.458,396.475 441.458,413.222 443.394,418.181 443.394,423.144 445.732,427.21 
							451.786,431.276 469.405,431.276 474.981,421.642 474.991,414.238 476.391,404.082 478.373,404.355 476.981,414.443 
							476.981,422.179 						"/>
					</g>
					<polygon fill="#6E6F72" points="436.668,447.016 436.047,445.115 443.895,442.55 447.241,438.5 448.092,431.276 
						451.481,431.276 451.481,433.276 449.871,433.276 449.158,439.32 445.068,444.271 					"/>
				</g>
				<polygon fill="#6E6F72" points="473.076,501.41 467.216,501.41 464.071,485.168 464.09,480.719 467.981,460.813 
					468.011,447.007 470.007,439.048 470.007,430.504 472.007,430.504 471.977,439.414 469.981,447.373 469.963,461.102 
					466.071,481.007 466.071,485.071 468.864,499.41 472.887,499.41 475.966,498.824 476.34,500.789 				"/>
			</g>
			<polygon fill="#6E6F72" points="464.99,481.907 458.554,481.384 450.887,475.714 439.783,468.647 431.06,460.647 425.776,454.95 
				427.243,453.591 432.469,459.23 441.069,467.113 452.018,474.066 459.284,479.437 465.152,479.913 			"/>
		</g>
		<polygon fill="#6E6F72" points="440.491,547.917 438.786,546.872 442.919,540.128 442.919,519.541 439.458,506.383 
			439.458,495.747 447.251,472.508 449.147,473.145 441.458,496.073 441.458,506.252 444.919,519.41 444.919,540.692 		"/>
	</g>
	<polygon fill="#6E6F72" points="441.143,511.322 435.78,509.109 431.173,504.27 423.305,501.41 414.705,501.41 404.319,495.179 
		397.841,487.313 399.385,486.042 405.644,493.642 415.258,499.41 423.658,499.41 432.298,502.551 436.935,507.422 441.906,509.473 
			"/>
</g>
<g>
	<g>
		<g>
			<g>
				<g>
					<g>
						<g>
							<g>
								<path fill="#6E6F72" d="M60.095,543.624l-0.643-5.444l-2.329-13.718l-0.783-5.223l-1.032-5.417l-1.565-10.434l-1.03-5.146
									l-1.568-10.7l-1.05-5.534l-1.03-6.941l-1.292-6.714l-2.085-13.809l-1.294-6.987l-2.086-13.807l-1.292-6.715l-2.086-13.813
									l-1.293-6.712l-2.085-13.811l-1.294-6.986l-2.191-14.524l1.262-0.625l6.238-2.342l5.858-2.037l13.392-9.785l7.052-4.704
									l2.371-1.783l0.473,3.793l0.505,2.244l0.274,2.174l0.521,2.352l0.52,4.404l0.502,2.248l0.27,2.108l0.525,2.126l0.771,5.654
									l0.528,1.883l0.509,3.836l0.531,1.896l0.131,1.067l0.81-0.116l6.482-1.033l6.727-1.297l6.527-1.044l6.725-1.295l6.527-1.045
									l6.724-1.294l6.527-1.046l13.223-2.595l6.527-1.044l6.724-1.292l12.985-2.6l6.8-1.045l6.452-1.291l6.766-1.302l12.985-2.599
									l13.25-2.601l6.46-1.552l26.549-5.208l6.452-1.552l13.029-2.606l6.727-1.554l6.524-1.306l6.459-1.551l7.703-1.541
									l1.515-0.756l0.439,1.751l0.827,0.332l1.502,0.499l1.707,0.683l0.746,1.508l0.521,1.56l0.382,0.957l0.084,0.057l2.289-0.915
									h1.248l1.39,0.832l1.427,0.286l1.137,1.139l0.163,0.081h2.16l-1.251,2.599l0.211,0.05l2.032,0.676l0.729,2.189v0.986
									l-0.52,0.784l1.021,2.355l0.258,1.3l0.516,3.336l0.123,0.374l0.629,0.417l3.655,4.703l1.462,1.052l2.305,0.277l1.104,0.366
									l0.564,0.848l0.589,0.294h0.643l2.435-0.81l1.855,0.37l0.29,0.288l0.19-0.189l1.11-0.555l1.266,0.633l0.379,0.761
									l0.374,0.562l0.839,0.616l1.188,1.554l0.763,1.911l-1.359,1.36l-1.465,0.734l-0.67,1.003h-0.42l-0.156,0.557v0.302
									l-2.078,3.123l-0.014,2.979l-0.591,3.353l-1.892,4.332l-1.319,1.318l-0.21,0.419l0.128,0.387v1.418h-0.591l-1.119,2.689
									l-1.025,1.01l-1.17,0.882l-0.639,0.21l-1.498,1.924l-0.106,0.536l0.527,0.553l0.465,0.697l0.415,0.414h0.719l0.47,0.929
									l0.337,0.339l0.845,0.588l1.185,1.185l0.717,1.788l-0.38,1.523l-0.969,1.45v2.972l-1.239,1.24l-1.276,0.422l-0.306-0.075
									l-0.139,0.522l-0.315,0.634h0.552l-0.392,3.142v0.555l0.517,1.564v0.441l0.232,0.518l0.547,2.32v0.54l0.213,0.447
									l0.233,0.708l0.546,1.09l1.156-0.698l3.337,0.334l1.687,2.024l1.565,4.964l1.535,1.971l0.547,0.22l2.17-1.552l1.438,1.938
									l1.166,2.097l3.088,1.839l0.778,0.782l3.995,3.492l3.387,1.577l1.746,1.167l1.083,1.803l-0.369,2.246l-1.644,1.638
									l-1.706,0.85l-1.216,0.515l-1.39,2.223l-0.773,0.385l-1.564,0.895l-0.389,0.583l-0.625,1.043h0.646l-1.405,1.409v0.587
									l-0.587,0.002l-0.224,0.225l-1.815,1.485l-0.791,0.399l-1.3,2.077l-1.237,0.618l-0.469,0.313l-0.301,0.754l0.196,1.174
									l0.676,1.687l-0.93,1.396l-2.978,1.895l-1.969,1.651l-1.345,0.666l-1.172-0.231l-2.636,2.159l-0.829,0.273l-0.398,0.266
									l-1.054,2.818l-1.973-0.983l-1.396-0.47l-1.92-0.24h-2.112l-2.181,0.732l-1.01,0.255L303.743,489l-0.615,0.613l-1.418,1.89
									l-0.728,2.186l-1.816,4.838h-0.843l-5.872,1.278l-5.708,1.297l-5.76,1.049l-11.389,2.591l-5.761,1.047l-5.675,1.289
									l-5.985,1.302l-5.75,1.046l-5.674,1.293l-11.476,2.085l-5.675,1.292l-6.028,1.048l-5.667,1.289l-11.479,2.087l-5.941,1.295
									l-17.185,3.124l-5.673,1.289l-57.995,10.399l-6.516,1.044l-6.458,1.292l-13.29,2.088l-6.458,1.293L60.095,543.624z
									 M52.096,482.099l1.019,5.099l1.569,10.707l1.029,5.141l1.567,10.442l1.032,5.417l0.786,5.235l2.334,13.759l0.406,3.434
									l18.718-2.957l6.457-1.293l13.296-2.089l6.452-1.291l6.534-1.048l57.938-10.389l5.667-1.288l17.193-3.125l5.941-1.295
									l11.469-2.085l5.675-1.291l6.028-1.047l5.667-1.291l11.475-2.085l5.674-1.292l5.759-1.049l5.943-1.294l5.709-1.296
									l5.76-1.046l11.389-2.592l5.76-1.048l5.675-1.291l5.735-1.248l1.346-3.582l0.818-2.46l1.748-2.312l0.896-0.894l1.909-0.927
									l1.042-0.26l2.414-0.813l2.626,0.008l2.275,0.305l1.731,0.6l0.502-1.344l1.29-0.815l0.604-0.2l3.077-2.521l1.431,0.282
									l0.625-0.31l1.835-1.563l2.682-1.706l0.112-0.167l-0.383-1.018l-0.306-1.833l0.737-1.848l1.146-0.758l0.79-0.395
									l1.298-2.075l1.188-0.599l1.435-1.196l0.39-0.391l2.175-3.516l2.341-1.314l1.294-2.021l0.401-0.399l1.487-0.601l1.344-0.673
									l0.957-0.953l0.145-0.885l-0.474-0.789l-1.309-0.874l-3.537-1.676l-1.82-1.561l-3.083-2.819l-3.244-1.891l-1.551-2.72
									l-1.47,1.052l-2.052-0.825l-2.106-2.703l-1.549-4.915l-0.911-1.093l-1.86-0.186l-1.411,0.852l-1.61-0.542l-1.021-2.063
									l-0.232-0.706l-0.337-0.667v-0.895l-0.46-1.852l-0.319-0.634v-0.596l-0.517-1.562l0.008-1.063l0.17-1.364l-0.91-1.827
									l0.912-0.916l0.125-0.252l0.435-2.195l1.78,0.438l0.278-0.092l0.318-0.318v-2.751l1.112-1.665l0.139-0.558l-0.324-0.807
									l-0.825-0.826L314.65,413l-0.688-0.749h-1.422l-0.036-1.139l-0.52-0.779l-1.089-1.092l0.41-2.06l2.141-2.758l0.923-0.304
									l0.85-0.641l0.59-0.589l1.271-3.055l-0.268-0.812l0.581-0.579l0.371-0.628l1.169-1.17l1.691-3.873l0.487-2.913v-3.336
									l2.078-3.122v-0.12l0.262-0.877v-0.416l0.847-0.842h0.398l0.369-0.552l1.65-0.828l0.199-0.2l-0.219-0.55l-0.85-1.062
									l-0.817-0.546l-0.679-1.024l-0.527,0.523h-1.343l-0.6-0.596l-0.745-0.149l-2.238,0.745h-1.438l-1.488-0.741l-0.479-0.719
									l-0.35-0.116l-2.479-0.274l-0.982-0.654l-1.274-0.999l-3.536-4.55l-0.934-0.618l-0.404-1.272l-0.521-3.375l-0.229-1.147
									l-1.081-2.432v-1.037l0.52-0.833l-0.311-0.932l-1.023-0.34l-2.446-0.489l0.984-2.299l-0.434-0.217l-0.939-0.939
									l-1.171-0.235l-1.211-0.725h-0.311l-2.909,1.163l-1.478-0.987l-0.631-1.588l-0.518-1.544l-0.319-0.636l-0.948-0.381
									l-1.501-0.499l-1.83-0.731l-0.116-0.462l-7.421,1.484l-6.458,1.551l-6.533,1.308l-6.727,1.554l-13.021,2.604l-6.459,1.554
									l-6.8,1.308l-12.985,2.599l-6.764,1.302l-6.453,1.55l-6.533,1.309l-13.251,2.599l-6.496,1.302l-13.255,2.599l-6.799,1.045
									l-12.948,2.594l-6.762,1.299l-6.527,1.044l-13.215,2.593l-6.534,1.048l-6.724,1.294l-6.527,1.045l-6.725,1.295l-6.527,1.044
									l-6.727,1.297l-9.373,1.451l-0.372-3.017l-0.53-1.894l-0.505-3.811l-0.532-1.906l-0.77-5.648l-0.529-2.147l-0.261-2.077
									l-0.502-2.248l-0.533-4.472l-0.508-2.286l-0.274-2.173l-0.567-2.735l-6.721,4.484l-13.738,9.985l-5.977,2.078l-5.986,2.248
									l1.969,13.028l1.294,6.986l2.085,13.809l1.293,6.712l2.085,13.81l1.293,6.72l2.086,13.808l1.294,6.987l2.084,13.808
									l1.292,6.714L52.096,482.099z"/>
								<polygon fill="#6E6F72" points="47.431,459.273 47.127,457.297 62.407,454.947 76.467,446.912 87.773,446.912 
									99.341,439.706 108.223,426.519 101.821,413.715 94.01,400.89 94.01,383.191 96.01,383.191 96.01,400.329 103.57,412.748 
									110.533,426.667 100.761,441.177 88.345,448.912 76.999,448.912 63.077,456.867 								"/>
							</g>
							<polygon fill="#6E6F72" points="114.427,533.893 112.49,533.393 117.145,515.421 121.703,506.305 121.703,488.944 
								104.648,470.578 94.534,460.425 87.206,448.434 88.912,447.391 96.178,459.28 106.088,469.19 123.703,488.159 
								123.703,506.777 118.981,516.221 							"/>
						</g>
						<polygon fill="#6E6F72" points="165.468,430.924 133.115,430.893 107.531,424.362 108.026,422.425 133.488,428.924 
							165.215,428.924 187.509,423.197 184.959,411.206 191.712,391.622 195.555,378.166 186.724,366.648 188.311,365.432 
							197.754,377.748 193.619,392.223 187.03,411.333 189.864,424.658 						"/>
					</g>
					<polygon fill="#6E6F72" points="123.293,496.688 122.113,495.073 139.561,482.322 139.708,482.273 159.696,475.611 
						172.004,472.229 187.952,472.229 194.955,449.863 193.629,443.717 195.576,436.104 187.853,424.479 189.521,423.376 
						197.734,435.736 195.684,443.756 197.021,449.957 189.421,474.229 172.14,474.229 160.28,477.523 140.489,484.121 					"/>
				</g>
				<polygon fill="#6E6F72" points="233.919,511.233 230.965,505.448 230.965,496.717 226.561,484.131 207.623,481.557 
					188.329,474.162 189.044,472.295 208.23,479.647 228.043,482.312 232.965,496.377 232.965,504.968 235.7,510.323 				"/>
			</g>
			<polygon fill="#6E6F72" points="314.662,406.003 277.176,398.982 225.039,398.966 192.475,392.932 192.839,390.965 
				225.313,396.982 277.453,396.999 315.03,404.037 			"/>
		</g>
		<polygon fill="#6E6F72" points="274.688,441.524 243.127,430.924 217.45,430.924 196.934,436.88 196.376,434.96 217.308,428.924 
			243.455,428.924 274.52,439.358 284.308,434.276 314.484,431.31 314.68,433.3 284.887,436.229 		"/>
	</g>
	<polygon fill="#6E6F72" points="227.926,484.003 226.678,482.44 234.395,476.316 247.451,470.361 265.154,457.621 273.705,440.005 
		275.503,440.878 266.732,458.949 248.37,472.141 235.337,478.085 	"/>
	<polygon fill="#6E6F72" points="302.363,488.787 296.548,481.342 286.066,473.416 269.946,465.355 265.14,458.881 266.746,457.689 
		271.268,463.779 287.199,471.765 298.044,480.008 303.939,487.557 	"/>
</g>
<path opacity="0.7" fill="#010101" d="M613.554,540.887l-0.002-2l255.519-0.342l0.002,2L613.554,540.887z M472.397,528.237
	l-0.679-1.881l101.119-36.496l0.68,1.881L472.397,528.237z M388.918,524.971l-93.547-26.713l0.549-1.924l93.547,26.713
	L388.918,524.971z M569.95,477.179l-92.497-103.472l1.491-1.333l92.496,103.473L569.95,477.179z M317.516,417.771l-1.195-1.604
	l69.387-51.721l1.195,1.604L317.516,417.771z M600.034,396l-231.3-127.405l0.965-1.752l231.3,127.405L600.034,396z M147.072,373.92
	l-44.627-122.886l1.88-0.683l44.627,122.886L147.072,373.92z M722.597,368.142l-1.873-0.701l35.341-94.362l1.873,0.701
	L722.597,368.142z M267.484,349.853l-1.964-0.379l16.156-83.68l1.964,0.379L267.484,349.853z M907.21,338.827l-1.947-0.459
	l10.077-42.778l1.947,0.459L907.21,338.827z M617.106,264.466L303.512,145.108l0.711-1.869l313.594,119.357L617.106,264.466z
	 M874.772,213.44l-17.691-40.096l1.83-0.808l17.691,40.096L874.772,213.44z M638.668,205.172l-56.86-7.851l0.273-1.981l56.86,7.851
	L638.668,205.172z M756.416,180.182l-124.543-8.125l0.131-1.996l124.543,8.125L756.416,180.182z M275.543,48.511l-0.06-1.999
	l288.572-8.57l0.059,1.999L275.543,48.511z"/>
<rect x="548.285" y="133.612" transform="matrix(0.3477 0.9376 -0.9376 0.3477 484.9795 -426.8821)" fill="#010101" width="2" height="2.993"/>
<rect x="619.513" y="138.607" transform="matrix(0.7898 0.6133 -0.6133 0.7898 216.1693 -351.5922)" fill="#010101" width="3.129" height="2"/>
<g>
	<g>
		<g>
			<g>
				<path d="M705.703,59.625c-0.229,3.538,0.796,6.441,4.498,7.347c0.295,0.072,2.071-0.433,1.497-0.874
					c-1.92-1.472-5.256-4.435-3.619-7.114c0.455-0.745-1.479-0.521-1.791-0.011c-1.85,3.028,1.363,6.141,3.611,7.865
					c0.499-0.291,0.998-0.583,1.497-0.874c-3.225-0.789-3.959-3.626-3.766-6.599C707.68,58.616,705.743,59.015,705.703,59.625
					L705.703,59.625z"/>
			</g>
		</g>
		<g>
			<g id="XMLID_2_">
				<g>
					<path fill="#3D793A" d="M700.626,75.291c-3.111,0.463-6.73-2.729-8.2-4.487c-0.381-0.456-0.442-1.426-1.237-1.856
						c-2.486,1.395-8.072,3.467-10.985,1.083c-0.002-0.826,0.396-1.252,0.618-1.857c2.326-0.224,6.184,0.499,7.271-1.392
						c-1.294-1.906-2.739-1.695-4.332-3.094c-1.473-1.295-4.151-4.954-2.939-7.582c0.672-1.458,2.299-1.917,2.939-3.248
						c1.283-2.666,0.542-8.17,3.56-8.821c3.478-0.75,4.949,3.012,7.427,4.178c3.137,0.554,4.64-0.869,6.808-1.702
						c1.571-0.604,3.054-0.72,4.022-1.393c1.08-0.748,1.87-4.028,4.178-3.404c1.444,0.392,2.446,5.169,2.476,6.808
						c0.058,3.204-1.503,6.193-2.631,8.975c-0.39,0.959-1.254,2.032-1.237,2.63c0.041,1.482,2.026,1.903,3.249,2.785
						c1.193,0.861,2.55,2.22,2.476,3.714c-0.12,2.418-4.574,3.49-6.653,4.488c-1.309,0.626-2.479,1.227-3.559,2.01
						C703.169,73.636,701.69,75.131,700.626,75.291z M702.327,62.448c-2.185-0.919-3.312-3.132-6.497-2.166
						c2.211-4.545,7.85-5.661,9.901-10.367c-0.023-0.182,0.027-0.438-0.154-0.464c-1.476,0.805-1.905,2.202-3.25,3.25
						c-2.089,1.629-4.667,2.333-6.807,4.023c-0.319,0.661-0.449,1.511-1.238,1.701c-1.148-1.74-0.343-5.433-2.938-5.724
						c1.499,2.004,0.824,3.942,0.927,6.344c0.02,0.461,0.215,0.888,0.155,1.237c-0.27,1.569-2.403,4.522-2.321,6.036
						c2.465,0.928,3.316-1.383,3.868-3.251c2.646,0.062,6.102-1.417,7.427,0.775c1.53-0.349,3.296,1.03,4.178-0.155
						C704.667,62.662,703.519,62.95,702.327,62.448z M709.29,65.079c-0.874-1.9-3.503-1.703-3.713-4.022
						c-0.093-1.022,0.711-1.93,0.154-3.25C703.575,61.058,706.892,64.533,709.29,65.079z"/>
					<path fill="#FFFFFF" d="M705.731,49.915c-2.052,4.706-7.69,5.821-9.901,10.367c3.186-0.966,4.312,1.247,6.497,2.166
						c1.191,0.502,2.34,0.214,3.25,1.239c-0.882,1.185-2.647-0.194-4.178,0.155c-1.325-2.192-4.78-0.713-7.427-0.775
						c-0.552,1.868-1.403,4.179-3.868,3.251c-0.082-1.514,2.052-4.467,2.321-6.036c0.06-0.349-0.136-0.775-0.155-1.237
						c-0.103-2.402,0.572-4.34-0.927-6.344c2.596,0.291,1.79,3.984,2.938,5.724c0.789-0.19,0.919-1.041,1.238-1.701
						c2.14-1.69,4.718-2.394,6.807-4.023c1.345-1.047,1.774-2.444,3.25-3.25C705.759,49.477,705.708,49.733,705.731,49.915z"/>
					<path fill="#3D793A" d="M709.29,65.079c-2.398-0.546-5.715-4.021-3.559-7.272c0.557,1.32-0.247,2.228-0.154,3.25
						C705.787,63.375,708.416,63.178,709.29,65.079z"/>
					<path fill="#FFFFFF" d="M679.429,41.561c-0.012-0.22-0.025-0.438,0.155-0.463c11.707,0,23.414,0,35.122,0
						c0,11.655,0,23.311,0,34.966c-11.76,0-23.518,0-35.277,0C679.429,64.562,679.429,53.062,679.429,41.561z M709.755,41.715
						c-2.308-0.625-3.098,2.656-4.178,3.404c-0.969,0.673-2.451,0.789-4.022,1.393c-2.168,0.833-3.671,2.256-6.808,1.702
						c-2.478-1.166-3.949-4.928-7.427-4.178c-3.018,0.65-2.276,6.155-3.56,8.821c-0.641,1.331-2.268,1.791-2.939,3.248
						c-1.212,2.628,1.467,6.287,2.939,7.582c1.593,1.399,3.038,1.188,4.332,3.094c-1.088,1.89-4.945,1.167-7.271,1.392
						c-0.222,0.605-0.62,1.032-0.618,1.857c2.913,2.385,8.499,0.312,10.985-1.083c0.795,0.43,0.856,1.4,1.237,1.856
						c1.47,1.758,5.089,4.951,8.2,4.487c1.064-0.159,2.543-1.655,3.249-2.167c1.079-0.783,2.25-1.384,3.559-2.01
						c2.079-0.998,6.533-2.07,6.653-4.488c0.074-1.494-1.282-2.854-2.476-3.714c-1.223-0.881-3.208-1.302-3.249-2.785
						c-0.017-0.598,0.848-1.67,1.237-2.63c1.128-2.782,2.688-5.771,2.631-8.975C712.201,46.884,711.199,42.106,709.755,41.715z"/>
				</g>
				<g>
				</g>
			</g>
		</g>
	</g>
	<g>
		<path fill="#00A14B" d="M736.163,51.497l0.264,5.59h-0.668c-0.129-0.984-0.305-1.688-0.527-2.109
			c-0.363-0.68-0.847-1.181-1.45-1.503s-1.397-0.483-2.382-0.483h-3.357v18.211c0,1.465,0.158,2.379,0.475,2.742
			c0.445,0.492,1.131,0.738,2.057,0.738h0.826v0.65h-10.107v-0.65h0.844c1.008,0,1.723-0.305,2.145-0.914
			c0.258-0.375,0.387-1.23,0.387-2.566V52.991h-2.865c-1.113,0-1.904,0.082-2.373,0.246c-0.609,0.223-1.131,0.65-1.564,1.283
			s-0.691,1.488-0.773,2.566h-0.668l0.281-5.59H736.163z"/>
		<path fill="#00A14B" d="M743.177,50.336v11.777c1.301-1.43,2.332-2.347,3.094-2.751s1.523-0.606,2.285-0.606
			c0.914,0,1.699,0.252,2.355,0.756s1.143,1.295,1.459,2.373c0.223,0.75,0.334,2.121,0.334,4.113v5.695
			c0,1.02,0.082,1.717,0.246,2.092c0.117,0.281,0.316,0.504,0.598,0.668s0.797,0.246,1.547,0.246v0.633h-7.91V74.7h0.369
			c0.75,0,1.271-0.114,1.564-0.343s0.498-0.565,0.615-1.011c0.035-0.188,0.053-0.738,0.053-1.652v-5.695
			c0-1.758-0.091-2.912-0.272-3.463s-0.472-0.964-0.87-1.239s-0.879-0.413-1.441-0.413c-0.574,0-1.172,0.152-1.793,0.457
			s-1.365,0.92-2.232,1.846v8.508c0,1.102,0.062,1.787,0.185,2.057s0.352,0.495,0.686,0.677s0.911,0.272,1.731,0.272v0.633h-7.98
			V74.7c0.715,0,1.277-0.111,1.688-0.334c0.234-0.117,0.422-0.34,0.562-0.668s0.211-0.996,0.211-2.004V57.122
			c0-1.84-0.044-2.971-0.132-3.393s-0.223-0.709-0.404-0.861s-0.425-0.229-0.729-0.229c-0.246,0-0.645,0.094-1.195,0.281
			l-0.246-0.615l4.816-1.969H743.177z"/>
		<path fill="#00A14B" d="M759.155,65.295c-0.012,2.391,0.568,4.266,1.74,5.625s2.549,2.039,4.131,2.039
			c1.055,0,1.972-0.29,2.751-0.87s1.433-1.573,1.96-2.979l0.545,0.352c-0.246,1.605-0.961,3.067-2.145,4.386
			s-2.666,1.978-4.447,1.978c-1.934,0-3.589-0.753-4.966-2.259s-2.065-3.53-2.065-6.073c0-2.754,0.706-4.901,2.118-6.442
			s3.185-2.312,5.317-2.312c1.805,0,3.287,0.595,4.447,1.784s1.74,2.78,1.74,4.772H759.155z M759.155,64.276h7.453
			c-0.059-1.031-0.182-1.758-0.369-2.18c-0.293-0.656-0.729-1.172-1.31-1.547s-1.187-0.562-1.819-0.562
			c-0.973,0-1.843,0.378-2.61,1.134S759.284,62.928,759.155,64.276z"/>
		<path fill="#00A14B" d="M791.411,74.682v0.65h-10.213v-0.65h0.844c0.984,0,1.699-0.287,2.145-0.861
			c0.281-0.375,0.422-1.277,0.422-2.707V55.715c0-1.207-0.076-2.004-0.229-2.391c-0.117-0.293-0.357-0.545-0.721-0.756
			c-0.516-0.281-1.055-0.422-1.617-0.422h-0.844v-0.65h10.213v0.65h-0.861c-0.973,0-1.682,0.287-2.127,0.861
			c-0.293,0.375-0.439,1.277-0.439,2.707v15.398c0,1.207,0.076,2.004,0.229,2.391c0.117,0.293,0.363,0.545,0.738,0.756
			c0.504,0.281,1.037,0.422,1.6,0.422H791.411z"/>
		<path fill="#00A14B" d="M792.589,59.231h7.576v0.65h-0.492c-0.457,0-0.806,0.111-1.046,0.334s-0.36,0.521-0.36,0.896
			c0,0.41,0.123,0.896,0.369,1.459l3.744,8.895l3.762-9.229c0.27-0.656,0.404-1.154,0.404-1.494c0-0.164-0.047-0.299-0.141-0.404
			c-0.129-0.176-0.293-0.296-0.492-0.36s-0.604-0.097-1.213-0.097v-0.65h5.256v0.65c-0.609,0.047-1.031,0.17-1.266,0.369
			c-0.41,0.352-0.779,0.938-1.107,1.758l-5.713,13.816h-0.721l-5.748-13.588c-0.258-0.633-0.504-1.087-0.738-1.362
			s-0.533-0.507-0.896-0.694c-0.199-0.105-0.592-0.205-1.178-0.299V59.231z"/>
		<path fill="#00A14B" d="M810.501,59.231h7.506v0.65h-0.369c-0.527,0-0.923,0.114-1.187,0.343s-0.396,0.513-0.396,0.853
			c0,0.457,0.193,1.09,0.58,1.898l3.92,8.121l3.604-8.895c0.199-0.48,0.299-0.955,0.299-1.424c0-0.211-0.041-0.369-0.123-0.475
			c-0.094-0.129-0.24-0.231-0.439-0.308s-0.551-0.114-1.055-0.114v-0.65h5.238v0.65c-0.434,0.047-0.768,0.141-1.002,0.281
			s-0.492,0.404-0.773,0.791c-0.105,0.164-0.305,0.615-0.598,1.354l-6.557,16.066c-0.633,1.559-1.462,2.736-2.487,3.533
			s-2.013,1.195-2.962,1.195c-0.691,0-1.26-0.199-1.705-0.598s-0.668-0.855-0.668-1.371c0-0.492,0.161-0.888,0.483-1.187
			s0.765-0.448,1.327-0.448c0.387,0,0.914,0.129,1.582,0.387c0.469,0.176,0.762,0.264,0.879,0.264c0.352,0,0.735-0.182,1.151-0.545
			s0.835-1.066,1.257-2.109l1.143-2.795l-5.783-12.146c-0.176-0.363-0.457-0.814-0.844-1.354c-0.293-0.41-0.533-0.686-0.721-0.826
			c-0.27-0.188-0.703-0.352-1.301-0.492V59.231z"/>
		<path fill="#00A14B" d="M857.927,68.741l0.58,0.123l-2.039,6.469h-18.457v-0.65h0.896c1.008,0,1.729-0.328,2.162-0.984
			c0.246-0.375,0.369-1.242,0.369-2.602V55.715c0-1.488-0.164-2.42-0.492-2.795c-0.457-0.516-1.137-0.773-2.039-0.773h-0.896v-0.65
			h10.793v0.65c-1.266-0.012-2.153,0.105-2.663,0.352s-0.858,0.557-1.046,0.932s-0.281,1.271-0.281,2.689v14.977
			c0,0.973,0.094,1.641,0.281,2.004c0.141,0.246,0.357,0.428,0.65,0.545s1.207,0.176,2.742,0.176h1.74
			c1.828,0,3.111-0.135,3.85-0.404s1.412-0.747,2.021-1.433S857.317,70.217,857.927,68.741z"/>
		<path fill="#00A14B" d="M863.112,65.295c-0.012,2.391,0.568,4.266,1.74,5.625s2.549,2.039,4.131,2.039
			c1.055,0,1.972-0.29,2.751-0.87s1.433-1.573,1.96-2.979l0.545,0.352c-0.246,1.605-0.961,3.067-2.145,4.386
			s-2.666,1.978-4.447,1.978c-1.934,0-3.589-0.753-4.966-2.259s-2.065-3.53-2.065-6.073c0-2.754,0.706-4.901,2.118-6.442
			s3.185-2.312,5.317-2.312c1.805,0,3.287,0.595,4.447,1.784s1.74,2.78,1.74,4.772H863.112z M863.112,64.276h7.453
			c-0.059-1.031-0.182-1.758-0.369-2.18c-0.293-0.656-0.729-1.172-1.31-1.547s-1.187-0.562-1.819-0.562
			c-0.973,0-1.843,0.378-2.61,1.134S863.241,62.928,863.112,64.276z"/>
		<path fill="#00A14B" d="M885.507,73.012c-1.652,1.277-2.689,2.016-3.111,2.215c-0.633,0.293-1.307,0.439-2.021,0.439
			c-1.113,0-2.03-0.381-2.751-1.143s-1.081-1.764-1.081-3.006c0-0.785,0.176-1.465,0.527-2.039c0.48-0.797,1.315-1.547,2.505-2.25
			s3.167-1.559,5.933-2.566V64.03c0-1.605-0.255-2.707-0.765-3.305s-1.251-0.896-2.224-0.896c-0.738,0-1.324,0.199-1.758,0.598
			c-0.445,0.398-0.668,0.855-0.668,1.371l0.035,1.02c0,0.539-0.138,0.955-0.413,1.248s-0.636,0.439-1.081,0.439
			c-0.434,0-0.788-0.152-1.063-0.457s-0.413-0.721-0.413-1.248c0-1.008,0.516-1.934,1.547-2.777s2.479-1.266,4.342-1.266
			c1.43,0,2.602,0.24,3.516,0.721c0.691,0.363,1.201,0.932,1.529,1.705c0.211,0.504,0.316,1.535,0.316,3.094v5.467
			c0,1.535,0.029,2.476,0.088,2.821s0.155,0.577,0.29,0.694s0.29,0.176,0.466,0.176c0.188,0,0.352-0.041,0.492-0.123
			c0.246-0.152,0.721-0.58,1.424-1.283v0.984c-1.312,1.758-2.566,2.637-3.762,2.637c-0.574,0-1.031-0.199-1.371-0.598
			S885.519,73.973,885.507,73.012z M885.507,71.87v-6.135c-1.77,0.703-2.912,1.201-3.428,1.494
			c-0.926,0.516-1.588,1.055-1.986,1.617s-0.598,1.178-0.598,1.846c0,0.844,0.252,1.544,0.756,2.101s1.084,0.835,1.74,0.835
			C882.882,73.627,884.054,73.042,885.507,71.87z"/>
		<path fill="#00A14B" d="M896.669,69.461c-0.984-0.48-1.74-1.151-2.268-2.013s-0.791-1.813-0.791-2.856
			c0-1.594,0.601-2.965,1.802-4.113s2.739-1.723,4.614-1.723c1.535,0,2.865,0.375,3.99,1.125h3.41c0.504,0,0.797,0.015,0.879,0.044
			s0.141,0.079,0.176,0.149c0.07,0.105,0.105,0.293,0.105,0.562c0,0.305-0.029,0.516-0.088,0.633
			c-0.035,0.059-0.097,0.105-0.185,0.141s-0.384,0.053-0.888,0.053h-2.092c0.656,0.844,0.984,1.922,0.984,3.234
			c0,1.5-0.574,2.783-1.723,3.85s-2.689,1.6-4.623,1.6c-0.797,0-1.611-0.117-2.443-0.352c-0.516,0.445-0.864,0.835-1.046,1.169
			s-0.272,0.618-0.272,0.853c0,0.199,0.097,0.393,0.29,0.58s0.571,0.322,1.134,0.404c0.328,0.047,1.148,0.088,2.461,0.123
			c2.414,0.059,3.979,0.141,4.693,0.246c1.09,0.152,1.96,0.557,2.61,1.213s0.976,1.465,0.976,2.426c0,1.324-0.621,2.566-1.863,3.727
			c-1.828,1.711-4.213,2.566-7.154,2.566c-2.262,0-4.172-0.51-5.73-1.529c-0.879-0.586-1.318-1.195-1.318-1.828
			c0-0.281,0.064-0.562,0.193-0.844c0.199-0.434,0.609-1.037,1.23-1.811c0.082-0.105,0.68-0.738,1.793-1.898
			c-0.609-0.363-1.04-0.688-1.292-0.976s-0.378-0.612-0.378-0.976c0-0.41,0.167-0.891,0.501-1.441S895.462,70.469,896.669,69.461z
			 M896.493,75.333c-0.551,0.598-0.967,1.154-1.248,1.67s-0.422,0.99-0.422,1.424c0,0.562,0.34,1.055,1.02,1.477
			c1.172,0.727,2.865,1.09,5.08,1.09c2.109,0,3.665-0.372,4.667-1.116s1.503-1.538,1.503-2.382c0-0.609-0.299-1.043-0.896-1.301
			c-0.609-0.258-1.816-0.41-3.621-0.457C899.938,75.667,897.911,75.532,896.493,75.333z M899.728,59.6
			c-0.867,0-1.594,0.346-2.18,1.037s-0.879,1.752-0.879,3.182c0,1.852,0.398,3.287,1.195,4.307c0.609,0.773,1.383,1.16,2.32,1.16
			c0.891,0,1.623-0.334,2.197-1.002s0.861-1.717,0.861-3.146c0-1.863-0.404-3.322-1.213-4.377
			C901.433,59.987,900.665,59.6,899.728,59.6z"/>
		<path fill="#00A14B" d="M924.478,59.231v9.756c0,1.863,0.044,3.003,0.132,3.419s0.229,0.706,0.422,0.87s0.419,0.246,0.677,0.246
			c0.363,0,0.773-0.1,1.23-0.299l0.246,0.615l-4.816,1.986h-0.791v-3.41c-1.383,1.5-2.438,2.443-3.164,2.83s-1.494,0.58-2.303,0.58
			c-0.902,0-1.685-0.261-2.347-0.782s-1.122-1.192-1.38-2.013s-0.387-1.98-0.387-3.48V62.36c0-0.762-0.082-1.289-0.246-1.582
			s-0.407-0.519-0.729-0.677s-0.905-0.231-1.749-0.22v-0.65h5.643v10.775c0,1.5,0.261,2.484,0.782,2.953s1.151,0.703,1.89,0.703
			c0.504,0,1.075-0.158,1.714-0.475s1.397-0.92,2.276-1.811v-9.123c0-0.914-0.167-1.532-0.501-1.854s-1.028-0.495-2.083-0.519v-0.65
			H924.478z"/>
		<path fill="#00A14B" d="M931.069,65.295c-0.012,2.391,0.568,4.266,1.74,5.625s2.549,2.039,4.131,2.039
			c1.055,0,1.972-0.29,2.751-0.87s1.433-1.573,1.96-2.979l0.545,0.352c-0.246,1.605-0.961,3.067-2.145,4.386
			s-2.666,1.978-4.447,1.978c-1.934,0-3.589-0.753-4.966-2.259s-2.065-3.53-2.065-6.073c0-2.754,0.706-4.901,2.118-6.442
			s3.185-2.312,5.317-2.312c1.805,0,3.287,0.595,4.447,1.784s1.74,2.78,1.74,4.772H931.069z M931.069,64.276h7.453
			c-0.059-1.031-0.182-1.758-0.369-2.18c-0.293-0.656-0.729-1.172-1.31-1.547s-1.187-0.562-1.819-0.562
			c-0.973,0-1.843,0.378-2.61,1.134S931.198,62.928,931.069,64.276z"/>
	</g>
</g>
</svg>
