<?xml version="1.0" encoding="utf-8"?>
<!-- Generator: Adobe Illustrator 15.1.0, SVG Export Plug-In . SVG Version: 6.00 Build 0)  -->
<!DOCTYPE svg PUBLIC "-//W3C//DTD SVG 1.1//EN" "http://www.w3.org/Graphics/SVG/1.1/DTD/svg11.dtd">
<svg version="1.1" id="Layer_1" xmlns="http://www.w3.org/2000/svg" xmlns:xlink="http://www.w3.org/1999/xlink" x="0px" y="0px"
	 width="1000px" height="590px" viewBox="0 0 1000 590" enable-background="new 0 0 1000 590" xml:space="preserve">
<g>
	<line fill="none" stroke="#6E6F72" x1="265.92" y1="148.119" x2="238.333" y2="176.274"/>
	<g>
		<g>
			<g>
				<g>
					<g>
						<g>
							<g>
								<g>
									<g>
										<path id="path10874" fill="none" stroke="#6E6F72" d="M391.775,244.293l-1.974,1.232l1.974,0.001l0,0l-0.741,0.494
											l-4.685,4.932l-2.96,1.478l-2.959,2.466l1.609,1.726l-3.454,3.944l-2.466,1.727l-1.478,0.739l-1.233,1.48l-0.987,0.245
											l0.494-0.984l-0.246-0.741l-0.494-0.245l-1.233,0.245l-0.493,0.248l-0.245,0.493l0.245,0.739l0.493,0.493l0.246,0.491
											l-0.491,0.493l-1.48,1.728l-2.711,1.232l-4.194,3.205l-0.493,0.249l-0.246,0.246l-0.247,0.245h-0.493l-0.248-0.491
											l0.248-0.249h0.245l2.221-1.232l0.739-0.493l0.245-0.741l-0.986,0.248l-5.181,1.973l-1.478,0.494l0.739,0.739v0.984
											l-0.739,0.742l-0.987,0.246h-0.491l-1.232-0.246l-0.493,0.246l-0.987,0.988l-0.986,0.491l-2.96,0.742l-0.493,0.246
											l-0.247,0.739l-1.972,0.986l-0.493,0.247h-0.741l-0.493-0.247h-0.739l-0.494,0.247v0.739l0.246,0.743v0.491l-0.491,0.494
											h-0.987h-2.22h-0.986l-0.248,0.493l-0.491,0.739l-0.494,0.493l-2.96,1.48l-1.478,1.48l-0.742,0.493l-4.684,1.479
											l-4.686,2.959l-2.711,0.739l-1.232,0.493l-4.321,0.986l1.232,0.496l3.451-1.233h1.232v0.246l-8.382,1.973l-6.166,3.699
											h-1.48l0.742-0.739l5.671-3.698l0.739-0.494v-0.248l-0.493-0.491l4.32-0.494l-0.986-0.493h-1.48h-0.985l-0.987,0.493
											l-4.813,0.248l-1.233,1.233l0.249,0.492l0.246,0.245h0.493l0.739,0.742l-0.246,0.739l-0.494,0.248l-0.493-0.248
											l-0.494,0.248l-0.493,0.245l-0.493,0.491l-0.247,0.248l-2.22,0.984l-0.739,0.248v-1.232l-1.728-1.232l-0.491-1.481v-0.491
											l5.305-1.975v-0.246v-0.491l0.248-0.248v-0.248l0.491-0.491l0.248-0.249l0.986-4.438l0.987-0.987h2.466v-1.479
											l1.478-0.739l1.48,0.248l1.232,0.491v-0.739l-0.493-1.726l0.245-0.739l0.742-0.248l0.492,0.496l0.494,0.737l0.493,0.496
											l0.493-0.496v-0.737l-0.248-0.742l-1.725-0.246v-0.742l0.246-0.74l0.493-0.739l1.232,0.739l0.986,0.987l0.987,0.74
											l0.739-0.246l-1.232-2.959l0.988-2.221l2.465-1.232h2.466v0.248v0.246h0.493l1.478,0.246l0.246-0.491l-0.246-0.245
											l-0.987-0.987l-0.246-0.494l0.494-1.232l1.232-0.248l0.987,0.497l-0.249,1.232l0.494,0.245l0.74,0.491l0.493-0.736h0.739
											h0.987h0.494v-0.988l-0.742-0.742l-0.739-0.246l-0.246,0.987l-1.234-0.987l0.245-0.491l0.989-0.249l4.438,0.494h0.987
											h0.492l0.987,0.245h0.494h0.493l1.972-1.232l0.739-0.987l0.246-0.986l-0.491-0.984l0.739-0.496l0.986-0.737l0.741,0.245
											v1.232h0.491l0.493-0.493v-0.248l-0.493-0.737l7.892-1.975l7.398-1.233l5.671-2.958l0.987-0.496l1.973-3.699l2.465-1.97
											l0.494-1.729l0.986-0.737l1.973-0.987l0.494-0.742l0.739-1.723l0.494-0.743l2.219-1.724l0.493-0.494h0.739l0.741,0.248
											l0.492,0.491l-0.246,0.741l-0.246,0.737l-0.741,0.743l-0.492,0.246l-0.987-0.988l-1.479,1.729l-2.466,3.7l0.491,0.491
											l0.249,0.245l0.491,0.248h0.248l-0.248,0.494l-0.985,0.246l-0.493,0.245l-0.247,0.742v0.741l0.247,0.493l0.493,0.739
											l-0.248,0.493l-0.493-0.245l-0.493-0.742l-0.246-0.246l-0.248,0.246l-1.232,1.478h-0.246h-0.494l-0.245,0.249v0.248
											l-0.248,0.737v0.249l-0.491,0.984l-0.248,0.497l-0.986,0.736l-0.742,0.742l-0.738,0.988l-0.246,0.986l0.493-0.248h0.491
											h0.494l0.493,0.248l0.74-0.986h0.988l0.985,0.246l1.232-0.246l0.741-0.496l0.986-0.491l0.739-0.742l-0.246-0.736
											l-0.246-0.742l0.74-1.232l1.972-2.711l0.987-0.742l0.492-0.985l-0.739-0.985l0.739-0.496l0.493,0.248l0.249,0.739
											l0.491,0.494l0.494-0.247l1.232-0.986l0.494-0.248l-0.245-0.491v-0.742l0.491-0.492l0.742,0.246l2.218,1.478l-0.246-0.984
											v-1.232l0.246-0.985h0.74l-2.346,1.971l0.491,0.742h0.494l0.739-0.246l1.727-1.232l1.232-1.976l0.739-0.739h0.987v-1.232
											l0.493-0.248h0.986h0.742v-0.25l-0.248-0.741l0.738-0.247L391.775,244.293L391.775,244.293z"/>
										<path id="path10876" fill="none" stroke="#6E6F72" d="M295.483,108.418l0.493,0.493l0.249,1.232l0.246,0.494l0.245,1.232
											l0.494,1.974l0.494,2.713l0.741,2.958l0.738,3.452l0.742,3.698l0.739,3.699l0.984,3.699l0.742,3.698l0.739,3.455
											l0.74,2.958l0.494,2.712l0.493,1.973l0.246,1.232l0.245,0.494v0.493l0.249,1.233v2.219l0.985,1.725l0.987,1.726
											l-0.494,0.987v1.727v4.686l-0.247,4.686v4.685l-0.247,4.685v4.685l-0.246,4.685v4.687l-0.245,4.933v2.216v1.234
											l1.725,1.232l0.494,2.959l0.493,2.71l0.494,2.96l0.493,2.96l0.491,2.71l0.988,5.919l0.493,2.71l0.494,2.96l0.491,2.958
											l0.493,2.712l0.494,2.96l0.494,2.959l0.493,2.711l0.494,2.959l0.491,2.96l0.248,1.232l1.233,1.232l0.984,0.987
											l0.743,0.985l0.985,0.739l-0.494,0.742l-1.972,1.97l-2.466,2.465l-2.218,2.221l-1.727,1.728l-0.493,0.494l0.493,0.491
											l1.478,1.48l1.479,1.48l0.248,0.246h0.245l0.248,0.245l0.493,0.494l0.247,0.493h-0.247l-0.248,0.493l0.494,0.247
											l0.245,0.493l-0.245,0.491l-0.494,1.729v0.246l-1.232,0.246l-0.493,0.248l-0.246,0.494l-1.48,2.712l-0.492,1.232v0.988
											v0.491h-0.743l-0.491,0.247v0.494l0.245,0.491l0.739,1.232l0.493,0.493h-1.478l-1.726,0.494l-1.481,0.738l-1.233,0.987
											l-0.491,1.728l-0.742,3.944l-0.986,0.987l-0.248-1.232v-1.48v-1.232l1.48-5.426l0.246-0.739l-0.246-1.48l0.494-2.711
											v-2.712v-2.711l-0.248-1.232l-0.986-4.931l-0.742-2.221l-0.986-2.221l-0.738-0.739l-0.742-0.493l-1.725-0.987
											l-1.232-1.232v-0.986l0.245-1.233l-0.494-1.232l-0.739,0.985l-0.245,0.496l-0.249,0.737v0.742l0.249,0.491l0.491,0.496
											l0.743,1.969l0.739,0.743l0.986,0.491l0.742,0.742l0.739,0.988l0.246,0.986l0.493,2.713l1.973,5.178l0.247,1.479
											l-5.18-1.725l-5.178-1.726l-5.179-1.726l-5.424-1.727l-5.179-1.728l-5.178-1.723l-5.177-1.728l-5.181-1.726l-0.493-1.232
											l-1.725-1.728l-0.493-0.739l-0.248-0.494l-0.491-0.245l-0.494,0.245l-0.493,0.494h-0.494l-0.493-0.494l-1.232-0.245
											l-2.219,0.739h-0.988l-0.987-0.494l-0.491-0.739l-0.742-0.245l-2.219-0.249l-0.74-0.493l-0.987-0.741l-3.454-4.439
											l-0.74-0.493l-0.246-0.739l-0.494-3.205l-0.246-1.232l-0.987-2.22v-0.494l0.494-0.74v-0.494l-0.494-1.478l-0.739-0.247
											l-0.741-0.247l-1.232-0.249l0.739-1.723l0.247-0.494h-0.74l-0.493-0.249l-0.985-0.984l-1.232-0.249l-1.234-0.737h-0.742
											l-2.466,0.986l-0.739-0.494l-0.494-1.234l-0.491-1.478l-0.494-0.987l-1.232-0.491l-1.48-0.497l-1.232-0.492l-0.246-0.987
											l-0.494,0.248l-1.232,0.245l-6.165,1.232l-6.165,1.48l-6.164,1.233l-6.411,1.478l-6.165,1.234l-6.165,1.232l-6.166,1.478
											l-6.413,1.232l-6.165,1.232l-6.166,1.233l-6.411,1.233l-6.165,1.48l-6.166,1.233l-6.41,1.232l-6.165,1.233l-6.165,1.233
											l-6.413,1.232l-6.165,1.232l-6.411,0.986l-6.164,1.232l-6.165,1.234l-6.41,1.232l-6.166,0.988l-6.413,1.232l-6.164,1.234
											l-6.166,0.987l-6.41,1.232l-6.165,0.984l-6.416,1.244l-6.164,0.988l-6.411,1.232l-6.165,0.985l-1.727,0.248l-0.246-1.972
											l-0.494-1.727l-0.245-1.972l-0.248-1.727l-0.491-1.728l-0.248-1.971l-0.245-1.728l-0.248-1.727l-0.491-1.973l-0.248-1.972
											l-0.493-2.221l-0.246-1.972l-0.245-2.221l-0.493-2.218l-0.249-1.973l-0.491-2.219l-0.248-1.973l5.426-3.947l6.41-4.684
											l6.413-4.439l6.411-4.685l6.413-4.687l1.972-2.711l1.479-3.455v-2.712l-0.494-0.987l-0.986-0.491l-1.232-0.249
											l-1.232-0.493l-1.232-0.739l-0.74-0.494l-0.494-0.739l-0.247-1.234l0.247-0.984l-0.247-0.494l-0.247-0.493l-0.739-0.494
											l-0.739-0.741l-0.493-0.493l-0.248-0.493v-0.739v-0.739l0.248-0.493v-0.739v-0.74v-0.739l-1.233-5.426l-0.494-0.987
											l-2.221-3.944l-5.177-6.904l3.944-2.714l5.426-4.192l8.138-5.917l2.714-1.479l10.357-1.726l10.355-1.973l10.359-1.973
											l10.357-1.972l10.357-1.972l10.357-1.974l10.356-1.971l10.359-1.974l0.247-0.246l0.245-0.247l0.246-0.247l0.249-0.247
											h0.245l0.246-0.247l0.248-0.247v-0.247l1.233-3.699l1.232-3.945l1.233-3.699l1.232-3.697l1.233-3.946l1.232-3.698
											l1.234-3.699l1.232-3.945l0.738-1.232l2.96-3.699l0.245-0.494v-0.492v-0.494l0.493-0.738l0.246-0.247l4.686-2.96
											l0.74-0.739l0.494-1.233V95.6l-0.74-1.479l-0.247-0.492l0.987-1.728l3.205-3.452l6.66-4.933l1.233-0.739l0.494-0.987
											l0.245-1.232l0.248-1.479l1.232-2.465l1.234-2.221l1.724-3.944l4.44-5.92l4.191-6.166l3.946-5.671l2.466-3.698
											l5.426-5.179l2.218-1.232l0.739-0.492l1.482-1.973l0.738-0.494l2.221-1.479l1.478-1.479l0.739-0.493h0.741l5.674-0.741
											l1.232-0.247h0.739l4.439-1.232l4.193-0.986l4.438-0.986l4.438-0.987l4.192-0.988l4.439-1.232l4.437-0.986l4.194-0.986
											l4.439-0.986l4.192-1.233l4.439-0.987l4.439-0.987l4.192-1.232l2.221-0.493l0.246,0.739l0.739,1.232l0.248,0.988
											l0.246,0.245v0.494v0.986v0.493v0.492l-0.494,1.233v0.494v0.738v0.494v0.739l0.248,0.247v0.493l0.494,0.493l0.246,0.247
											l0.245,0.247l0.987,0.739l0.245,0.247l0.248,0.247v0.247v0.494l0.246,0.492v0.986v0.494v1.481v0.738l0.248,1.479v0.741
											v2.465v0.247v0.494l0.246,1.232l0.987,2.22l0.245,0.493l0.988,1.232l2.712,2.711l0.494,0.741l0.493,0.986l0.246,0.247
											v0.494l0.247,0.74v0.739v1.232v0.741l-0.494,1.726v0.493v0.493v0.244l0.247,0.493l1.233,2.713l0.246,0.492l0.249,1.232
											l0.245,1.479v0.741l-0.245,0.494l-0.494,0.247l-0.248,0.492l-0.491,0.494l-0.248,0.494l-0.247,0.492v0.248v0.493
											l0.247,1.233v0.739l-0.493,5.426l-0.245,0.986v0.493l0.245,0.247l0.247,0.493l0.986,0.986l0.248,0.247l0.245,0.493v0.493
											l0.494,1.727l0.245,0.74l0.987,2.712l0.493,0.74l0.246,0.494l0.494,0.247l0.246,0.246v0.247l0.248,0.494v0.492
											l0.246,0.741v0.985v0.494v0.245l1.233,1.479l0.246,0.247l0.248,0.494v0.492l0.246,1.233v0.741l-0.739,6.657v0.494v0.74
											l0.494,1.479l0.246,0.739l0.248,0.493l0.492,0.494l0.247,0.245h0.247l0.494-0.493l0.246-0.493l0.248-0.247v-0.245
											l0.246-0.494l-0.246-0.987l0.246-0.494v-0.247l0.245-0.245l0.249-0.247h0.246l0.245-0.247h0.248h0.739h0.493l0.246,0.247
											l0.249,0.247l1.233,1.973l0.491,0.494l0.248,0.245L295.483,108.418L295.483,108.418z"/>
									</g>
									<polyline fill="none" stroke="#6E6F72" points="45.682,210.014 63.071,221.761 70.553,230.895 78.479,255.389 									"/>
								</g>
								<polyline fill="none" stroke="#6E6F72" points="92.782,148.12 111.703,169.777 132.277,186.223 132.277,210.014 
									132.277,221.761 132.277,230.895 141.114,243.553 								"/>
							</g>
							<polyline fill="none" stroke="#6E6F72" points="159.608,88.444 196.596,96.441 205.224,96.441 212.707,96.441 
								212.707,113.276 196.596,134.398 196.596,148.12 192.851,155.888 186.157,169.777 177.991,175.265 167.253,182.482 
								150.981,182.482 132.277,186.223 							"/>
						</g>
						<polyline fill="none" stroke="#6E6F72" points="280.193,78.333 257.508,88.444 235.153,88.444 212.707,96.441 						"/>
					</g>
					<polyline fill="none" stroke="#6E6F72" points="300.664,130.364 280.193,137.333 265.92,148.119 199.672,130.364 					"/>
				</g>
				<polyline fill="none" stroke="#6E6F72" points="257.508,255.389 283.828,233.206 309.294,211.741 				"/>
			</g>
			<polyline fill="none" stroke="#6E6F72" points="306.58,179.437 283.401,186.223 260.657,195.836 232.573,195.836 
				238.333,176.274 208.408,176.937 196.596,169.777 192.851,155.888 			"/>
		</g>
		<polyline fill="none" stroke="#6E6F72" points="132.277,230.895 167.253,220.845 188.646,208.186 199.672,200.759 
			217.419,195.836 232.573,195.836 262.098,222.363 268.82,245.854 		"/>
	</g>
</g>
<polyline fill="none" stroke="#6E6F72" points="605.661,149.536 592.86,166.462 592.86,173.675 592.86,180.89 595.93,190.31 
	596.227,193.309 "/>
<polyline fill="none" stroke="#6E6F72" points="618.422,139.955 605.661,149.536 592.479,131.54 581.871,132.397 570.881,131.54 
	550.688,134.588 550.688,134.588 "/>
<g>
	<g>
		<g>
			<path id="_x31_0m_x5F_admin_x5F_1_x5F_states_x5F_provinces_x5F_shp.59" fill="none" stroke="#6E6F72" d="M632.212,152.654
				l2.195,1.647l1.924,1.1v1.923l0.823-0.55l1.1-0.549l0.551,0.276v1.097l-0.276,0.823v0.551v1.1l-1.647,4.943l-0.276,2.747
				l-0.273,1.374l0.273,1.373l-1.647,0.825h-1.099l-1.92-0.274h-0.551l-0.55,0.274l-4.12,3.295l-0.548,0.549l-0.277,0.274
				l-0.272,1.099l-0.277,0.55l-0.548,0.823l-0.55,0.274h-0.55h-0.55l-0.822,0.277l-0.553,0.272l-0.272,0.274l-0.275,0.277
				l-0.274,0.274l-0.274,0.549v0.274l-0.273,0.826v1.647l-0.276,0.274l-0.273,0.827l-0.55,0.547l-0.824,0.55l-0.551,0.276
				l-0.275,0.273l-0.548,1.099l-0.276,0.824l-0.824,0.824l-0.273,0.273l-0.551,0.276l-1.1,0.274l-3.57,0.823l-3.567,0.826
				l-3.57,0.825l-3.57,0.823l-3.573,0.826l-3.569,0.821l-3.57,0.827l-3.572,0.823l-3.57,0.55l-3.57,0.823l-3.57,0.824l-3.569,0.827
				l-3.572,0.821l-3.57,0.827l-3.569,0.823l-3.573-4.207h-0.274l-0.823,3.11l-1.372-1.373l-2.474-1.65l-0.824-0.55l-0.273-0.547
				l-0.551-0.827l-0.276-1.099l-0.274-1.097v-0.824l0.274-0.827v-1.097l-0.274-3.023v-1.373l0.824-0.547l1.101-0.826v-1.374
				l-0.55-3.02v-4.119l-0.274-1.647l-0.825-1.648l-0.275-0.826l-0.273-2.747l0.273-0.547v-0.552v-0.273v-0.547h-0.273v-0.276h-0.274
				v-0.823v-0.828l0.274-0.82l0.273-0.827l0.275-1.373l-0.275-1.648l-0.824-2.472l-2.474-11.534l-0.272-1.925l0.272-1.098
				l1.373-2.197l0.277-1.373v-1.374l-0.277-3.021l-0.272-2.2v-0.823l1.099-1.65l0.549-0.823l2.195-4.395v-1.373v-1.65l-0.273-1.373
				l-0.273-1.647l0.547-1.647l1.923-5.219v-0.55l-0.549-0.274l-0.274-0.549l-0.55-0.274v-1.374l1.099-4.121l0.274-2.472
				l-0.548-2.747l-1.373-6.043l-0.55-3.295l0.55-2.747l1.373-1.923l2.196-1.374l2.474-0.274l1.098-0.549l0.824-0.824l1.1-2.747
				l0.55-0.823l3.57-3.845l1.099-0.825l0.272-0.824l0.552-1.648l1.373-1.648l0.55-1.647l-0.277-1.099l-0.55-1.099v-1.372l0.55-0.549
				l0.55-0.274l0.551-0.275l0.274-0.823l-0.274-0.55l-0.551-0.55l-0.822-0.823l-2.475-3.569l-0.549-0.826l-0.548-1.098l-0.828-0.824
				l-0.822-1.099l-0.274-1.648l0.548-2.747l1.374-3.847l1.372-3.845v-1.65l-0.823-0.823l-0.824-1.098l-0.823-1.374l-0.277-1.922
				l0.277-0.823l0.823-0.275l-0.552-1.648l-0.271-1.099l0.271-1.098l1.101-3.572v-0.823V25.21v-0.826l0.823-2.747v-1.374
				l-1.099-0.547l-1.373-0.55l0.277-0.549l1.919-1.1l0.551-0.824l0.824-2.197l0.826-0.825l1.098-0.823h0.824l4.668,1.372
				l1.374,0.275l1.099-0.275l0.824-0.549l0.826-2.747l0.549-1.098l0.276-0.549h0.272l1.1,3.572l1.098,3.57l1.1,3.571l1.099,3.569
				l1.374,3.572l1.098,3.57l1.098,3.57l1.098,3.847l1.373,3.57l1.1,3.57l1.099,3.572l1.097,3.57l1.375,3.571l1.099,3.571
				l1.097,3.571l1.101,3.57l1.099,3.57l1.372,3.571l1.099,3.57l1.098,3.572l1.101,3.57l1.372,3.57l1.098,3.571l1.1,3.571
				l1.099,3.571l1.374,3.57l1.098,3.569l1.099,3.573l1.097,3.568l1.374,3.573l1.099,3.57l1.1,3.57l0.825,1.922l0.272,2.198
				l0.276,1.1v1.099v0.273l0.273,0.547v0.553l0.551,0.821l0.274,1.1v0.826v1.92v0.274L619.02,137l0.547,1.097l0.275,0.55
				l0.548,0.547l1.924,1.373l2.195,1.926l2.2,1.92l2.471,0.827l0.275,0.274l0.274,0.272l0.55,1.1l0.274,0.547v0.552v2.194
				l0.273,0.827v0.274L632.212,152.654L632.212,152.654z"/>
			<polyline fill="none" stroke="#6E6F72" points="569.312,64.76 582.705,64.76 592.933,52.4 			"/>
		</g>
		<polyline fill="none" stroke="#6E6F72" points="553.107,105.685 569.312,98.858 577.537,98.858 581.123,98.858 592.933,98.858 
			609.417,102.389 		"/>
	</g>
	<polyline fill="none" stroke="#6E6F72" points="592.933,167.68 581.123,160.924 569.312,160.924 559.839,164.302 549.811,167.214 	
		"/>
</g>
<polyline fill="none" stroke="#6E6F72" points="583.99,82.478 582.043,89.148 577.537,98.858 "/>
<polyline fill="none" stroke="#6E6F72" points="582.779,64.09 584.555,75.408 583.76,85.353 "/>
<g>
	<g>
		<g>
			<g>
				<g>
					<g>
						<g>
							<g>
								<g>
									<g>
										<g>
											<g>
												<path fill="none" stroke="#6E6F72" d="M843.417,134.408l3.122-1.562v0.522l2.086,4.685v1.042l-0.52,0.519l-4.688,1.043
													l1.562,0.521l1.042,0.522l2.084,0.517h0.52l0.519-0.517h0.523l0.52,0.517l0.521,1.043l1.562,1.042l4.683,7.81v1.04
													l-4.166-3.644l-1.561-0.521l1.561,3.644l2.604,1.564l6.25,1.561l-1.042,1.042l-1.041,0.521h-1.038l2.604,1.562
													l5.206-0.521l0.52,1.564l2.085,0.518v-1.562l-1.043-3.125l0.519-1.561l1.042-1.043l2.085-2.082l0.519,2.082l0.517,0.521
													l1.043,0.522l1.042-0.522l1.042,0.522v0.52v1.562l1.037,0.521v1.04l-1.037,0.521l-0.524,0.521l-0.518,1.562
													l-0.519,1.042l-0.523,1.042l-0.52,0.519h-1.561h-0.523v-0.519h-0.518l-1.042,1.04l-0.518,1.564l-0.524,1.561v1.043
													l-10.414,5.206l-4.163,3.122l-1.562,2.084l1.041,0.518l-0.523,0.521l-0.518,1.042v1.04v1.563l1.041-1.042l1.037-1.562
													l0.523-1.042l1.036,1.042l1.043,1.04l0.517,0.521l-0.517,0.522l-1.043,0.52l-0.519,0.522v0.519l-1.561,2.604
													l-0.523,0.521l-0.52,0.521h-1.561l-0.523,0.522v2.082l1.043,1.042l1.561,0.522l1.566,0.52l-2.086,1.562l-3.644-2.603
													l-1.562,1.561l-0.518,2.083l0.518,1.042l1.042,2.082l1.037,2.604l0.523,1.042l1.042,1.04l-1.042,0.522l-2.086-2.083
													h-1.561l-1.042,0.522l0.523,1.04l1.038,0.522l1.04,0.52l-1.562,0.522l-2.084-0.522l-1.562-0.52l-0.517,2.082h1.036
													h1.041l1.042,0.522l0.518,1.042l-1.041,0.522l-1.036,1.04v1.564l1.036,1.561l1.566,0.521h0.52l2.084-2.082l0.519,3.643
													h1.561l2.086-0.518l1.042,1.562v0.521l-0.523,1.562v0.522l0.523,0.52h1.035h0.524v-0.52h0.519l1.041-1.043l1.562-1.561
													l1.042-1.043l1.562,1.564l0.522-1.042l0.518-1.562v-0.521l-1.561-0.521l-1.562-1.561l-1.041-1.564l-0.523-1.562
													l5.206,3.125l2.603,1.04h5.206l2.604,1.042l2.084,1.042l3.122,2.604l0.522,0.519l1.043,4.167h0.518l1.561,1.04
													l2.604,2.084l3.646,3.644l2.604,1.563v2.604l1.562,1.562l4.163,4.164h0.523v0.519v1.047l-1.041,1.037h-1.042h-1.042
													h-1.035l0.518-0.519l0.518-0.519l1.042-0.524l-2.079-3.126l-1.567-1.559l-1.036-0.52l-0.523,1.04l0.523,6.247
													l-1.042-0.519l-0.524,0.519h-1.036l-0.525,1.042l7.293,4.164l2.084,1.043l1.562-0.52l3.644-1.042l2.604,1.042
													l2.603,4.164l2.08,4.688v3.641l1.042,3.127l3.644,2.604l7.287,2.604l4.17,0.519l11.974-2.079l-1.041,1.037l-3.645,1.042
													l-1.037,1.043l0.518,0.519h2.085l4.165-1.037l2.604-2.084l4.165-4.164l7.809-4.683l2.603-2.604l3.122-1.566l1.043-1.036
													l1.042-4.169l-0.52-4.164l-1.566-4.164l-3.122-2.604h1.043l0.518-0.523l1.562-1.042v-1.04h-2.079l-1.562-0.522
													l-1.042-0.517l-1.041-0.522l-1.042,1.562l0.523,4.167l-0.523,1.562l-1.562-6.25l-1.041-2.082l-3.121-5.207l-1.042-1.561
													l-2.086-3.647l-4.165-1.561l-3.122,1.039l-1.04,3.645h1.562l0.523-0.522v1.042l-1.566,1.04l-1.562-0.519l-3.121-2.604
													h-0.523l-0.518-0.521h-1.043v-0.521v-1.562l0.523-1.042l0.52-1.042l1.041-0.52l1.562,0.52l4.165-1.562h1.567
													l1.562,1.042l4.687,1.04l2.604,0.522l6.767,4.684l3.122,3.125l8.852,14.059l2.086,2.079l-0.523,0.523v0.52h-0.518
													l-2.085-0.52l-1.562-1.042v1.562l0.519,3.645v2.084l2.084-2.084h1.562l1.042,1.561l2.084,6.25l1.562,8.853h-3.646
													l-14.577,7.287l-4.688,1.042l-2.603,2.604l-1.042,0.523l-1.037,0.519l-0.523,1.042l-0.517,3.122l-1.043,1.042v-1.562
													v-3.645l-1.562,1.042l-2.084,1.562l-1.562,1.042l-3.122,0.52l-1.041,0.523l-1.042,1.561l-1.041,1.042l-2.079-2.084
													h-1.043l-1.04,1.042l-1.562,6.25l-1.042,2.604l-2.079,2.079l-2.604,1.562l-3.128,1.042l-2.602,1.042l-5.207,4.164
													l-2.604,1.041l1.567-3.121v-3.643l-2.604-9.895l-1.042-2.08l-1.041-1.565l0.518-1.562l1.042-1.042v-1.562l-0.519-1.042
													l0.519-1.037l0.523-0.523l-1.042-1.042h-1.041l-0.519,1.042v2.084h-0.523l-3.646-1.561l-2.079-0.523l-1.042,0.523
													l0.52,4.164l1.04,1.562l1.043,1.562l-2.604,0.523l-0.518,1.562v2.079l-1.043,2.604l-2.085-1.561l-1.04,0.524l-0.52,1.56
													l0.52,0.519v0.524l-1.037,1.037l-1.566,1.567h-1.038l1.562,3.122v1.562l-1.041,0.522l-0.52-0.522l-1.562-2.081
													l-0.523-1.04l-1.047-0.534l-2.603-1.037l0.518,3.64l-0.518,2.086l-0.523,2.602l1.562,3.647l-1.562,2.601l-1.042,1.043
													l-1.037,0.518l-0.523-0.518l0.523-0.523l-3.645,4.164l-2.085,1.568l-3.121-0.523l1.561-1.562v-1.562l-1.041-2.084
													l-1.562-1.043l0.52,2.605l-1.037,1.041h-3.645l1.562,2.086l0.523,0.518l-2.085,1.561l-4.688,7.809l-2.079-3.121
													l-0.524-1.041v-1.561v-1.041l-2.079-4.166l-2.085-5.725l-0.519-3.128l-0.523-2.603v-5.724l3.127-10.414l1.036-5.73
													l-1.562,1.043l-0.519,1.561l-1.562,6.773l-0.523,1.037l-0.518,1.042l-2.604-0.519h-1.04l-0.52,1.042v0.518l-0.523,2.086
													l-4.163-4.689l-2.086-1.042h-1.038h-1.566l-1.562-1.042l-1.562-1.037l-1.043-1.042v-0.523l-0.517-1.037l-0.523-4.17
													l-0.52-1.561l-0.518-0.52v-1.042v-1.042v-0.519l-0.523-1.561l-0.519-0.523h-1.041l-1.562,0.523h-1.043l-0.517-0.523
													v-0.52l-2.604-8.333l-1.042-3.641l-1.043-2.085l-4.683,1.562l-8.852,2.084l-8.328,2.604l-8.854,2.604l-8.334,2.079
													l-0.517-1.037l-10.934,2.604l-14.059,3.121l-14.577,3.645l-14.059,3.122l-14.061,3.645l-5.205,1.042l-1.562,1.042
													l-0.519,0.517h-1.566h-2.08l-13.54,3.122l-4.684,1.042l0,0l0,0l-5.204,0.523l-6.251,1.561l-6.768,1.562l-11.457,2.084
													l-11.974,2.603l-11.974,2.081l-11.456,2.602l-3.646-2.602v-2.603v-4.683l0.52-10.414v-9.895l0.522-9.895v-9.889
													l0.519-9.895v-9.892l0.52-9.892v-9.892v-3.645l1.04-2.083l4.688-1.042l5.207-1.04l4.687-1.042l4.683-1.039l4.688-1.042
													l4.684-0.522l4.689-1.04l4.688-1.042l4.683-1.04l4.688-1.042l4.686-1.043l4.685-1.04l4.688-1.042l4.683-1.04
													l4.688-0.522l4.687-1.042h0.52l6.768-1.562l6.768-1.562l6.774-1.562l6.767-1.562l6.768-1.563l6.773-1.562l6.769-1.564
													l6.768-1.04l6.767-1.564l6.77-1.562l6.772-1.564l6.769-1.561l4.096-0.946l2.672-0.616l6.772-1.563l6.77-1.561
													l6.768-1.564l3.644-1.562l1.562-1.562l0.517-1.563l1.043-2.083l0.523-0.521l1.036-0.522l1.567-1.04l1.036-1.042
													l0.523-1.562l0.519-0.522v-3.124l0.52-1.562v-0.521l0.521-1.042l0.519-0.519l0.52-0.522l0.523-0.52l1.04-0.522
													l1.562-0.52h1.041h1.038l1.04-0.52l1.043-1.564l0.518-1.039l0.523-2.084l0.519-0.518l1.041-1.042l7.811-6.249
													l1.036-0.519h1.043l3.644,0.519h2.085h-0.009V134.408z"/>
												<polyline fill="none" stroke="#6E6F72" points="855.916,279.151 875.438,262.229 894.961,245.309 												"/>
											</g>
											<polyline fill="none" stroke="#6E6F72" points="821.555,257.806 827.629,245.309 831.184,234.633 831.184,224.679 
												835.45,215.436 843.937,209.908 											"/>
										</g>
										<line fill="none" stroke="#6E6F72" x1="831.184" y1="234.633" x2="875.438" y2="262.229"/>
									</g>
									<polyline fill="none" stroke="#6E6F72" points="803.86,168.252 809.853,174.195 821.555,177.75 832.745,177.75 
										837.583,181.306 843.937,185.572 849.144,191.162 									"/>
								</g>
								<polyline fill="none" stroke="#6E6F72" points="783.553,172.939 779.278,191.162 779.278,194.815 782.405,203.374 
									788.521,209.908 788.521,209.908 790.448,212.734 797.765,218.279 803.86,218.279 816.963,218.279 826.501,221.124 
									831.184,221.124 								"/>
							</g>
							<polyline fill="none" stroke="#6E6F72" points="790.448,212.734 783.544,215.436 779.278,221.124 779.278,223.968 
								772.879,228.127 772.879,233.856 772.879,240.626 778.212,245.309 779.278,251.698 783.544,257.806 781.986,267.701 							
								"/>
						</g>
						<polyline fill="none" stroke="#6E6F72" points="732.656,184.164 732.656,197.032 729.506,200.503 729.506,205.481 
							729.506,212.734 732.656,221.124 732.656,221.124 746.57,228.127 759.369,228.127 772.879,228.127 						"/>
					</g>
					<polyline fill="none" stroke="#6E6F72" points="671.61,197.409 671.383,223.257 676.889,223.257 684.71,221.124 
						696.342,221.124 705.33,221.124 711.848,221.124 722.396,221.124 732.656,221.124 					"/>
				</g>
				<polyline fill="none" stroke="#6E6F72" points="671.383,223.257 667.591,230.764 666.223,238.945 680.324,248.431 
					688.565,257.806 706.041,257.806 723.106,252.409 737.327,240.217 746.57,228.127 				"/>
			</g>
			<polyline fill="none" stroke="#6E6F72" points="727.746,248.431 727.746,262.229 725.239,267.701 725.239,273.029 
				728.361,280.193 			"/>
		</g>
		<polyline fill="none" stroke="#6E6F72" points="666.047,234.633 666.935,264.312 665.512,268.018 665.512,279.151 
			665.512,284.406 665.512,290.094 666.923,294.252 		"/>
	</g>
	<polyline fill="none" stroke="#6E6F72" points="665.512,258.004 647.736,257.806 641.337,251.698 632.026,251.698 622.85,251.698 
		617.459,253.642 	"/>
</g>
<g>
	<path id="path10708" fill="none" stroke="#6E6F72" d="M963.15,404.81l9.289,10.453v3.487l1.169,3.481v1.165l-4.648,5.807
		l-3.483,2.32l-3.483,1.165l-2.322-2.322v-4.649v-5.811v-4.644l1.156-6.97l-1.156-2.32l-2.327-1.163h-1.156l-1.169,1.163
		l1.169,6.969v2.321h-2.325l-4.651-2.321l-4.639-2.324l-3.482-3.481l-1.169-4.653l-2.325-3.48l-2.314-3.48l-3.494-3.489v4.646
		l1.171,5.807l2.323,6.972l1.157,4.646l2.327,1.163l2.323,1.163l2.315,1.161l2.323,3.482v2.326l-2.323,6.969v3.482l-2.315-2.325
		l-1.17-2.32h-2.326h-2.312l-2.323,2.32l-2.327,2.325v2.325l4.651,1.157l3.484,3.486l2.323,5.81l1.157,5.809l-1.157,5.803
		l-2.323,3.494v3.481l4.647,4.638l2.316,4.653l3.492,15.099l1.159,4.65l-5.809,24.389v2.324v2.326v3.479l-2.325,1.16h-2.315
		l-4.65-1.16H931.8l-9.303,3.484l-32.521,22.076l-18.581,8.132v-5.807l-2.323-15.112v-4.64l1.155-2.323l2.325-1.156l-3.48-18.594
		l-2.325-11.614l-2.326-9.291l-4.64-16.27l-3.494-16.253l-4.636-16.267l-4.651-17.423l-4.64-16.261l-4.652-16.259l-3.482-16.262
		l-4.651-17.422l18.594-4.646l19.738-5.809l18.59-5.809l19.741-4.65l10.457-3.482l2.326,4.646l2.314,8.133l5.809,18.587v1.157
		l1.167,1.163h2.325l3.483-1.163h2.323l1.156,1.163l1.16,3.487v1.164v2.321v2.324l1.168,1.162l1.156,3.481l1.17,9.291l1.158,2.323
		v1.166l2.323,2.319l3.482,2.324l3.48,2.324h3.482h2.326L963.15,404.81L963.15,404.81z"/>
	<polyline fill="none" stroke="#6E6F72" points="878.194,345.839 886.227,356.668 886.227,366.858 886.227,372.973 886.227,382.144 
		886.227,397.428 882.211,412.021 869.923,422.904 859.732,422.904 846.993,425.717 	"/>
	<polyline fill="none" stroke="#6E6F72" points="936.436,414.1 922.911,407.619 912.722,407.619 906.607,398.447 901.588,398.447 
		891.322,392.333 886.227,392.333 	"/>
	<polyline fill="none" stroke="#6E6F72" points="873.658,419.594 879.094,425.717 879.094,442.404 881.131,452.455 886.227,458.569 
		894.379,464.684 906.209,468.761 922.911,472.836 938.762,465.214 	"/>
	<polyline fill="none" stroke="#6E6F72" points="870.155,518.647 894.379,506.463 911.332,500.349 922.911,500.349 944.312,500.349 
		948.927,500.349 	"/>
</g>
<g>
	<g>
		<g>
			<g>
				<g>
					<g>
						<path id="_x31_0m_x5F_admin_x5F_1_x5F_states_x5F_provinces_x5F_shp.57" fill="none" stroke="#6E6F72" d="M774.43,466.577
							v3.106l-3.73,1.869l-0.619-1.247l1.862-0.622v-1.238l-1.243-0.622l-1.863-0.622h-1.861l-7.456,2.484l-0.619,0.622
							l-6.836,5.595l-6.212-3.73l-1.237,1.241v3.727l-0.625,1.867l-3.106,0.619l-3.726-0.619l-3.105,0.619v4.349l-3.107-1.242
							l-6.213,6.214l-4.349-0.619l-0.619-0.626l-1.862-0.621l-1.243-0.624l-0.625-0.617v-1.242l0.625-1.244l-0.625-1.238
							l-0.618-1.866l-1.862-1.238l-1.861-0.626l-2.486,0.626l2.486,1.861l1.861,1.862l1.862,1.863v4.352l1.243,0.616h0.62
							l-1.863,2.486l-2.486,0.619l-5.587-0.619l-1.869,0.619l-2.48,1.87l-1.869,2.481l-0.619,2.486l-1.242-0.625v-0.619h-0.618
							l-0.619-0.616h-0.625l-1.236,1.235l-5.595-0.619l-2.488-0.616l-6.209,3.104l-0.62,1.864l-0.618,1.242l-1.244,0.618
							l-1.242,0.619l-1.244-0.619l-1.242-0.618h-1.239h-1.867l-4.344,1.237l-1.243,0.626l-1.244,1.859h-0.617h-1.862l-6.213,1.866
							l-1.866-0.615l-1.238-1.251l-1.244-3.723l-0.616-0.623l-1.244,1.241v1.862l-0.626,0.622l-3.105,5.593l-1.862,4.962
							l-0.619,1.25l-1.244,1.239l-3.726,0.616l-0.624,1.251l-1.241,1.238l-1.863,1.867l-1.244,1.234l-0.618,1.871v1.236
							l-0.618,0.618l-1.243,0.631l-1.863,1.236l-1.241-0.617l-0.619-0.619l-1.869-0.631h-0.619l-3.105,4.359h-0.618h-0.626v-0.633
							h-0.617v0.633v1.234l-0.619,0.619l-0.624,0.631l-0.62,1.856l-0.623,1.25h-1.24l-1.865-0.632h-0.619l-1.244,0.632l-0.619,1.857
							l-1.243,0.619l-1.242,0.629l-2.481,1.237l-1.244,1.867l-0.624,1.858l-0.62,0.619l-4.35,4.354l-1.861,1.24l-3.724,3.723
							l-0.628,0.631l-2.481-0.631l-1.242,4.357l-1.244-0.618l-1.244,2.475l-1.86,1.866l-2.487,0.619l-2.483-1.234l-0.621,0.615
							v0.619l-1.239,0.62l-2.487,2.488l-0.617-1.238l-1.244-1.248l-0.624-0.621h-0.618l-0.621-0.619l-3.73-3.723l-3.725-3.727
							l-1.244-1.25l1.244-1.234l4.35-4.358l5.586-5.582l6.213-6.21l4.969-4.977l1.241-1.866l-2.479-1.856l-1.868-2.486l-2.483-2.491
							l-3.104-3.103l-0.627-3.107l-1.236-7.453l-1.244-7.458l-1.241-6.833l-1.244-7.456l-1.244-7.456l-1.237-6.832l-1.244-7.456
							l-1.242-7.455l-1.244-6.834l-1.242-7.457l-1.237-7.454l-1.244-6.834l-1.244-7.457l-1.242-7.453l-1.244-6.833l-1.237-7.457
							l13.662-3.107l14.295-2.482l14.286-3.108l13.669-2.485l8.076-1.862l7.457-1.864l6.21-0.62l1.237,3.726l4.976-1.239
							l-0.624-3.728l16.157-3.729h2.481h1.861l0.624-0.622l1.863-1.24l6.213-1.241l16.774-4.353l16.774-3.725l17.394-4.35
							l16.777-3.729l13.044-3.105l0.618,1.242l2.486,9.318l1.863,8.699l2.486,8.695l2.481,8.697l2.489,9.32l2.486,8.698l1.863,8.696
							l2.481,8.697l1.242,4.969l1.244,6.211l1.863,9.941l-1.244,0.622l-0.619,1.243v2.483l1.244,8.073h-0.038V466.577z"/>
						<polyline fill="none" stroke="#6E6F72" points="576.182,508.367 585.557,511.491 593.369,509.929 601.963,509.929 
							608.212,509.929 615.243,509.929 626.18,508.367 633.212,508.367 641.023,508.367 641.023,511.491 647.074,512.553 						"/>
						<polyline fill="none" stroke="#6E6F72" points="566.355,451.282 576.182,451.282 583.997,451.282 597.275,451.282 
							605.869,445.869 606.712,439.62 606.712,435.697 611.629,428.683 617.587,425.856 616.806,417.747 647.074,405.246 
							647.074,393.53 642.112,390.789 						"/>
					</g>
					<polyline fill="none" stroke="#6E6F72" points="617.587,425.856 628.524,430.383 642.271,438.839 647.074,442.711 
						648.131,453.682 647.074,461.494 640.393,469.306 640.393,474.77 640.393,481.805 647.074,487.701 647.074,491.18 
						647.074,491.18 652.195,494.303 653.675,498.992 666.956,505.721 					"/>
				</g>
				<polyline fill="none" stroke="#6E6F72" points="648.131,453.682 659.772,447.918 666.956,447.918 675.397,447.918 
					680.865,451.282 692.583,447.918 698.052,447.918 698.052,447.918 706.645,451.282 710.596,458.368 719.926,465.336 
					719.926,478.682 719.762,487.701 				"/>
			</g>
			<polyline fill="none" stroke="#6E6F72" points="692.409,374.777 703.52,387.182 692.409,398.398 692.409,408.744 
				692.409,417.747 695.708,425.856 700.309,430.383 699.918,435.697 698.052,447.918 699.918,442.711 			"/>
		</g>
		<polyline fill="none" stroke="#6E6F72" points="692.409,408.744 706.291,403.524 711.446,402.082 721.792,408.744 
			732.424,411.348 741.018,417.747 751.175,421.036 747.269,435.697 741.018,446.651 730.886,455.245 715.951,462.368 		"/>
	</g>
	<line fill="none" stroke="#6E6F72" x1="747.269" y1="421.036" x2="764.39" y2="408.744"/>
</g>
<g>
	<g>
		<g>
			<g>
				<g>
					<g>
						<g>
							<g>
								<path id="path10865" fill="none" stroke="#6E6F72" d="M472.046,341.446l8.617,2.877l0.409,2.052l0.408,4.511l-1.229,7.797
									l-2.052,6.153v2.868l-0.407,2.052l0.407,1.234v1.226v0.825v0.817l-1.639,2.051l-1.234,2.052l-1.229,2.051l-0.408,0.821
									l-0.82,0.413l-1.23,0.408l0.408-4.511l-0.408-1.234l-1.643,1.643l-0.408,0.817v2.052l-0.414,0.825l-0.407,0.817l-1.23,1.232
									l-0.411,0.817l-0.408,2.052v4.104l-0.408,2.051l-0.414,0.821l-1.229,1.639l-0.41,0.826l0.41,0.407l0.407,3.281l0.82,0.412
									l-0.82,2.052l0.412,2.052l0.822,1.227h2.866l1.644,0.825h0.821l3.693-1.644h2.051l7.386,0.821l3.688,1.229l1.234-0.821
									l-1.234-1.229l-1.639-2.052l-0.82-2.051l0.82-0.821l1.639,1.229l1.234,2.46l4.102,13.542v2.46l-0.82,2.46l-0.412,2.465
									l0.82,2.872l-0.82,9.026l-0.818,2.873l1.639,0.816l1.23,1.644l0.412,2.46l-0.412,4.103l0.412,4.924v1.644l0.408,0.407v3.694
									l1.23,11.073l-0.82,2.464l-2.461-17.231l0.408-3.688l0.414-2.052l-0.414-2.052l-0.816-2.464l-0.822-1.639l-0.82-0.821
									l-1.229,1.64v0.82l1.639-0.409l0.412,0.821l-0.412,1.64l-0.815,1.229l-0.822,0.821l-1.23,0.412l-0.82,0.816v1.644
									l1.23-0.821l0.82,1.643l-0.412,2.46l-1.23,1.644l2.873,0.409l0.82,0.407l-1.229,2.053l-0.414,1.643v1.644l0.414,2.051v0.409
									l-0.822,2.46l-0.408,2.051l-0.412,3.694v3.284l1.643,0.817l1.229,0.408v1.643l-0.819,1.644l-0.408,0.816l-0.414,3.285
									l-0.816,1.644l-1.643,1.227l-0.408,1.233l-0.414,1.229l-0.82,1.229l-0.818,1.233l-0.819,0.408l-0.822,1.23l-0.407,1.639
									l-0.412,1.643l1.229,2.052l1.644,1.643v1.639l-1.23,0.413l-0.408-0.82l-0.414-0.821l-0.408-0.821l-3.692-1.229l-0.822,0.82
									l-1.229,0.409l-0.821-0.409l-0.815-0.82l0.815,4.103l0.821,1.643l1.229,0.409l0.822,0.821v1.639l-0.408,2.464h-1.229
									l-0.822-0.412l-0.82,0.412l-1.23,1.229l-0.411,0.821v1.229l-0.408,1.644l0.408,1.229l1.233-0.821l1.64,0.821l1.229,1.639
									l1.234,2.053l-2.052,1.232l-4.104,4.104l-2.051,1.229v-0.413l0.408-1.639l0.41-1.643l1.643-2.46l-2.461-1.229l-1.643,4.104
									l-0.82,2.051l0.82,1.229v0.408l-4.924,1.23l-2.052,0.82l-1.229,2.052h1.643h1.23l0.819,0.413h1.23l4.104-2.465v0.821
									l-2.053,2.051l-2.051,5.333l-1.644,1.229l-0.408,1.643l-2.051,8.614l-1.229-0.409h-0.822l-0.412,0.821l-0.815,1.229
									l0.408-0.408v0.408h0.407v0.408l0.822-0.816h0.819l0.408,0.408l0.414,1.229l-0.414,0.821l-1.229,2.46l-0.41,2.052
									l-0.412,0.412l-0.816,0.82l-1.643,0.817v0.821l0.408,0.82l0.412,0.821l-0.82,3.281l-2.053,2.873l-2.871,2.872l-4.104,2.869
									l-0.82,0.411h-0.822l-1.23-0.82v-0.821l0.414-0.821v-1.639l-0.414-2.051l-0.408-2.052l0.408-2.052l2.052-9.436l-0.41-4.104
									l-2.459-3.284l-1.234-0.408h-1.639l-2.873,0.408l-0.821,0.413l-1.229,0.411l-0.821,0.409h-0.821v-0.409v-0.824l-0.821-0.817
									l-1.23-0.412l-1.229,0.821l-2.46,0.821l-1.23,1.229l-0.412,0.821l-0.821,0.82l-1.23,0.409v-0.409l-1.639-0.407l-0.821-0.825
									v-0.817v-1.643l-0.412-0.409l-0.817-0.821l-3.285-1.643h-1.23l-0.821-0.408l-1.229-1.643l-0.409-0.409l-3.281,0.409h-1.233
									l-1.23-1.64l-0.821-1.233l-1.229-0.817h-0.821l-0.409,0.409l-0.408,0.408h-0.413l-0.821-0.408l-0.408-0.409l-0.409-0.412
									l-9.847-6.976l-2.873-1.229l-2.46-1.639l-1.23-3.285l0.409,0.412l0.409,0.413l0.821,0.408l-0.409-2.052v-4.924l-0.413-1.229
									l-3.281-2.46l-1.23-0.825v-0.817l1.23-2.051l1.23-1.234l0.413-0.816v-1.233v-1.227v-1.233l0.821-1.229v-0.821l0.409-0.817
									l0.821-0.412v-0.82l-0.413-2.873l1.234-3.281l2.051-3.281l2.46-2.872l4.103-2.873l2.873-1.639l2.051-0.412l1.23-0.409
									l2.46-2.051l1.643-0.821v-0.408h0.408v-0.412h1.643l0.821-1.23l0.821-1.643l1.23-1.229l-1.643-1.229l-0.821-1.644v-1.226
									h1.233l0.817-1.644l0.821,0.817l2.052-5.741l0.821-1.639l2.46-2.052l0.821-0.825l2.464-4.104l0.817-1.226l2.872-1.644
									l0.821-0.408l2.052-3.285l0.408-0.408l2.052-0.821l2.464-1.229l2.051-2.051l0.409-2.465l-1.23-2.052l-2.46-1.639
									l-5.336-2.464l-2.869-2.46l-3.693-3.281l-0.409-0.412l-0.821-0.817l-4.924-2.877l-2.063-3.688l-1.23-1.639l-2.872,2.051
									l-2.052-0.825l-1.643-2.051l-1.229-1.64l-2.46-7.793l-2.052-2.464l-4.102-0.412l-2.051,1.233l-1.23-0.408l-1.234-2.464
									l-0.409-1.229L390,405.448v-1.229l-0.821-3.284l-0.413-0.817v-0.821l-0.409-1.229l-0.409-1.233v-1.226l0.409-3.286h-0.409
									l-0.413-0.817l-0.409-0.825l0.409-0.407l0.413-0.409l0.409-0.821l0.409-2.051l1.643,0.413l1.23-0.413l1.23-1.23v-2.051
									v-2.46l0.821-1.234l0.821-1.229l0.409-1.639l-0.817-2.053l-1.643-1.643l-1.23-0.821l-0.821-0.82L390,370.994h-0.413h-0.409
									h-0.409h-0.413v-0.413v-0.413l-0.409-0.408l-0.821-1.229l-0.821-0.821l-0.409-0.408l0.409-2.052l1.643-2.051l1.23-1.644
									l1.23-0.407l1.643-1.234l1.23-1.227l2.051-4.929h0.409v-0.408l-0.409-1.229l0.409-0.412l0.413-0.817l0.821-0.82l0.409-0.413
									l0.821-0.817l2.872-6.562l0.817-4.929v-2.867v-0.821v-1.23l3.286-4.924v-0.412l0.408-1.226v-0.413l0.408-0.412h0.821
									l0.821-1.228l0.822-0.411l1.638-0.822l1.234-1.229l8.613,2.873l8.614,2.868l8.617,2.877l8.614,2.868l9.027,2.872
									l8.613,2.873l8.616,2.868l0,0V341.446z"/>
								<polyline fill="none" stroke="#6E6F72" points="431.735,328.147 431.735,335.91 431.735,341.41 431.735,351.57 
									428.481,364.91 422.481,376.91 411.981,382.41 400.481,390.016 392.481,390.016 390.408,387.4 								"/>
							</g>
							<polyline fill="none" stroke="#6E6F72" points="431.735,349.41 440.458,349.41 444.981,351.57 444.981,354.91 
								448.981,359.082 448.981,368.41 446.481,373.91 446.481,382.41 448.981,387.41 453.981,390.016 457.481,390.016 
								459.981,393.41 464.663,394.779 							"/>
							<polyline fill="none" stroke="#6E6F72" points="419.716,378.358 422.981,385.41 426.981,390.016 434.981,394.779 
								443.481,397.41 452.481,399.91 459.981,402.41 465.071,401.759 							"/>
						</g>
						<polyline fill="none" stroke="#6E6F72" points="440.458,396.475 440.458,409.375 440.458,413.41 442.394,418.369 
							442.394,423.41 444.981,427.91 451.481,432.276 457.481,432.276 469.981,432.276 475.981,421.91 475.981,414.375 
							477.382,404.219 						"/>
					</g>
					<polyline fill="none" stroke="#6E6F72" points="436.357,446.065 444.481,443.41 448.199,438.91 448.981,432.276 
						451.481,432.276 					"/>
				</g>
				<polyline fill="none" stroke="#6E6F72" points="476.153,499.807 472.981,500.41 468.04,500.41 465.071,485.168 465.071,480.91 
					468.981,460.91 468.981,447.25 471.007,439.171 471.007,430.504 				"/>
			</g>
			<polyline fill="none" stroke="#6E6F72" points="426.509,454.271 431.735,459.91 440.458,467.91 451.481,474.91 458.919,480.41 
				465.071,480.91 			"/>
		</g>
		<polyline fill="none" stroke="#6E6F72" points="448.199,472.826 440.458,495.91 440.458,506.383 443.919,519.41 443.919,528.41 
			443.919,540.41 439.639,547.395 		"/>
	</g>
	<polyline fill="none" stroke="#6E6F72" points="398.613,486.678 404.981,494.41 414.981,500.41 423.481,500.41 431.735,503.41 
		436.357,508.266 441.524,510.397 	"/>
</g>
<g>
	<g>
		<g>
			<g>
				<g>
					<g>
						<g>
							<g>
								<path id="_x31_0m_x5F_admin_x5F_1_x5F_states_x5F_provinces_x5F_shp.81" fill="none" stroke="#6E6F72" d="M333.814,468.422
									l-0.52,0.521l-1.558,1.299l-1.041,0.524l-1.299,2.076l-1.042,0.521l-0.779,0.521l-0.519,1.301l0.26,1.557l0.521,1.299
									l-0.521,0.781l-2.86,1.819l-1.816,1.561l-1.041,0.516l-1.302-0.257l-2.856,2.34l-0.781,0.258l-0.78,0.52l-0.778,2.081
									l-1.041-0.519l-1.557-0.523l-2.081-0.261h-2.338l-2.335,0.784l-1.042,0.26l-1.559,0.778l-0.781,0.779l-0.777,1.04
									l-0.78,1.035l-0.779,2.341l-0.779,2.076l-0.781,2.077h-0.258l-5.977,1.301l-5.717,1.299l-5.718,1.04l-5.718,1.299
									l-5.714,1.302l-5.717,1.037l-5.718,1.298l-5.977,1.3l-5.716,1.04l-5.717,1.302l-5.718,1.038l-5.714,1.038l-5.718,1.301
									l-5.977,1.037l-5.717,1.299l-5.718,1.042l-5.718,1.036l-5.976,1.303l-5.716,1.037l-5.718,1.043l-5.716,1.036l-5.716,1.298
									l-5.976,1.04l-5.718,1.042l-5.717,1.038l-5.718,1.038l-5.976,1.04l-5.717,1.035l-5.716,1.043l-5.977,1.039l-5.717,1.041
									l-5.719,1.034l-6.496,1.041l-6.496,1.299l-6.756,1.04l-6.496,1.041l-6.496,1.3l-6.496,1.036l-6.497,1.039l-6.754,1.04
									l-0.521-4.415l-0.778-4.678l-0.778-4.681l-0.781-4.416l-0.779-5.197l-1.038-5.455l-0.782-5.197l-0.777-5.197l-1.038-5.195
									l-0.781-5.457l-0.779-5.195l-1.039-5.196v-0.264l-1.041-7.014l-1.299-6.756l-1.04-7.017l-1.039-6.756l-1.299-7.017
									l-1.04-6.757l-1.04-7.015l-1.3-6.757l-1.038-6.76l-1.041-7.012l-1.3-6.755l-1.041-7.02l-1.038-6.754l-1.299-7.016
									l-1.041-6.757l-1.038-7.016l0.518-0.259l6.238-2.342l5.977-2.078l6.756-4.937l6.756-4.937l7.017-4.68l1.038-0.779
									l0.259,2.081l0.521,2.338l0.258,2.079l0.52,2.339l0.26,2.34l0.261,2.079l0.519,2.34l0.261,2.077l0.52,2.081l0.258,1.816
									l0.26,1.82l0.261,2.078l0.52,1.822l0.258,1.815l0.258,2.081l0.521,1.816l0.257,2.081l1.82-0.263l6.496-1.035l6.758-1.302
									l6.496-1.039l6.756-1.3l6.496-1.04l6.755-1.299l6.496-1.041l6.497-1.299l6.756-1.301l6.496-1.039l6.754-1.297l6.497-1.302
									l6.496-1.3l6.755-1.037l6.496-1.299l6.759-1.3l6.496-1.302l6.497-1.299l6.754-1.3l6.496-1.301l6.497-1.56l6.756-1.3
									l6.496-1.3l6.497-1.301l6.754-1.298l6.497-1.562l6.496-1.299l6.496-1.3l6.755-1.56l6.496-1.3l6.496-1.559l6.497-1.299
									l1.299-0.261l0.521-0.26l0.261,1.039l1.301,0.521l1.558,0.52l1.299,0.521l0.521,1.038l0.521,1.56l0.516,1.299l0.781,0.521
									l2.599-1.039h0.779l1.301,0.778l1.299,0.261l1.038,1.039l0.52,0.26h0.779l-0.258,0.518l-0.779,1.82l1.299,0.26l0.778,0.259
									l0.779,0.259l0.52,1.561v0.521l-0.52,0.778v0.521l1.04,2.339l0.258,1.3l0.521,3.375l0.257,0.782l0.782,0.518l3.636,4.68
									l1.04,0.78l0.779,0.52l2.341,0.259l0.777,0.258l0.521,0.783l1.039,0.518h1.04l2.336-0.777l1.3,0.26l0.521,0.518h0.519
									l0.521-0.518l0.52-0.26l0.52,0.26l0.258,0.518l0.52,0.78l0.78,0.521l1.04,1.299l0.519,1.3l-0.779,0.78l-1.037,0.519
									l-0.521,0.263l-0.52,0.777h-0.52l-0.259,0.258v0.262l-0.262,0.779v0.258l-2.078,3.123v0.776v0.522v1.817l-0.521,3.117
									l-1.816,4.159l-0.521,0.521l-0.26,0.257l-0.519,0.523l-0.26,0.518l-0.258,0.258l0.258,0.782v0.257h-0.258l-1.299,3.122
									l-0.78,0.778l-1.038,0.782l-0.781,0.257l-0.778,1.041l-1.041,1.3l-0.258,1.299l0.258,0.261l0.522,0.519l0.521,0.78
									l0.259,0.259v0.26v0.258h0.256h0.263h0.257h0.26l0.264,0.521l0.519,0.522l0.777,0.519l1.04,1.04l0.521,1.298l-0.26,1.04
									l-0.52,0.778l-0.521,0.779v1.561v1.301l-0.778,0.779l-0.777,0.257l-1.043-0.257l-0.257,1.299l-0.259,0.521l-0.262,0.258
									l-0.257,0.26l0.257,0.52l0.262,0.521h0.259l-0.259,2.079v0.778l0.259,0.781l0.257,0.782v0.519l0.262,0.521l0.517,2.079
									v0.778l0.264,0.521l0.256,0.777l0.781,1.56l0.781,0.263l1.299-0.784l2.599,0.26l1.299,1.559l1.557,4.939l0.781,1.038
									l1.04,1.299l1.299,0.522l1.82-1.302l0.778,1.04l1.299,2.337l3.12,1.818l0.518,0.521l0.261,0.262l2.337,2.075l1.82,1.561
									l3.376,1.56l1.56,1.042l0.778,1.296l-0.257,1.565l-1.3,1.295l-1.561,0.777l-1.299,0.525l-0.258,0.257l-1.301,2.081
									l-0.52,0.259l-1.82,1.039l-0.52,0.778l-1.558,2.599h0.006V468.422z"/>
								<polyline fill="none" stroke="#6E6F72" points="95.01,383.191 95.01,392.614 95.01,400.609 102.716,413.268 
									109.378,426.593 100.051,440.441 88.059,447.912 76.733,447.912 62.742,455.907 47.279,458.285 								"/>
							</g>
							<polyline fill="none" stroke="#6E6F72" points="88.059,447.912 95.387,459.903 105.381,469.897 122.703,488.552 
								122.703,506.541 118.039,515.868 113.458,533.643 							"/>
						</g>
						<polyline fill="none" stroke="#6E6F72" points="107.779,423.394 133.362,429.924 165.342,429.924 188.687,423.928 
							185.995,411.27 192.657,391.948 196.655,377.957 187.517,366.04 						"/>
					</g>
					<polyline fill="none" stroke="#6E6F72" points="188.687,423.928 192.657,429.924 196.655,435.92 194.656,443.736 
						195.988,449.91 188.687,473.229 172.004,473.229 160.012,476.56 140.025,483.222 122.703,495.881 					"/>
				</g>
				<polyline fill="none" stroke="#6E6F72" points="188.687,473.229 207.981,480.623 227.302,483.222 231.965,496.547 
					231.965,505.208 234.81,510.778 				"/>
			</g>
			<polyline fill="none" stroke="#6E6F72" points="314.846,405.021 277.269,397.982 255.618,397.982 225.221,397.982 
				192.657,391.948 			"/>
		</g>
		<polyline fill="none" stroke="#6E6F72" points="314.582,432.305 284.598,435.253 274.604,440.441 243.291,429.924 
			217.308,429.924 196.655,435.92 		"/>
	</g>
	<polyline fill="none" stroke="#6E6F72" points="274.604,440.441 265.943,458.285 247.955,471.23 234.81,477.227 227.302,483.222 	
		"/>
	<polyline fill="none" stroke="#6E6F72" points="303.151,488.172 297.256,480.623 286.596,472.562 270.607,464.567 265.943,458.285 
			"/>
</g>
<line opacity="0.7" fill="none" stroke="#010101" stroke-width="2" stroke-miterlimit="10" x1="275.514" y1="47.512" x2="564.085" y2="38.941"/>
<line opacity="0.7" fill="none" stroke="#010101" stroke-width="2" stroke-miterlimit="10" x1="631.938" y1="171.059" x2="756.481" y2="179.184"/>
<line opacity="0.7" fill="none" stroke="#010101" stroke-width="2" stroke-miterlimit="10" x1="916.313" y1="295.819" x2="906.236" y2="338.598"/>
<line opacity="0.7" fill="none" stroke="#010101" stroke-width="2" stroke-miterlimit="10" x1="857.996" y1="172.94" x2="875.688" y2="213.036"/>
<line opacity="0.7" fill="none" stroke="#010101" stroke-width="2" stroke-miterlimit="10" x1="869.071" y1="539.545" x2="613.553" y2="539.887"/>
<line opacity="0.7" fill="none" stroke="#010101" stroke-width="2" stroke-miterlimit="10" x1="573.177" y1="490.801" x2="472.058" y2="527.297"/>
<line opacity="0.7" fill="none" stroke="#010101" stroke-width="2" stroke-miterlimit="10" x1="570.695" y1="476.513" x2="478.199" y2="373.041"/>
<line opacity="0.7" fill="none" stroke="#010101" stroke-width="2" stroke-miterlimit="10" x1="389.192" y1="524.009" x2="295.646" y2="497.296"/>
<line opacity="0.7" fill="none" stroke="#010101" stroke-width="2" stroke-miterlimit="10" x1="617.462" y1="263.531" x2="303.868" y2="144.174"/>
<line opacity="0.7" fill="none" stroke="#010101" stroke-width="2" stroke-miterlimit="10" x1="369.217" y1="267.719" x2="600.517" y2="395.124"/>
<line opacity="0.7" fill="none" stroke="#010101" stroke-width="2" stroke-miterlimit="10" x1="103.385" y1="250.692" x2="148.012" y2="373.579"/>
<line opacity="0.7" fill="none" stroke="#010101" stroke-width="2" stroke-miterlimit="10" x1="266.502" y1="349.663" x2="282.658" y2="265.983"/>
<line opacity="0.7" fill="none" stroke="#010101" stroke-width="2" stroke-miterlimit="10" x1="721.66" y1="367.791" x2="757.001" y2="273.429"/>
<line opacity="0.7" fill="none" stroke="#010101" stroke-width="2" stroke-miterlimit="10" x1="638.805" y1="204.181" x2="581.944" y2="196.33"/>
<line opacity="0.7" fill="none" stroke="#010101" stroke-width="2" stroke-miterlimit="10" x1="316.918" y1="416.97" x2="386.305" y2="365.249"/>
<line fill="none" stroke="#010101" stroke-width="2" stroke-miterlimit="10" x1="550.688" y1="134.588" x2="547.882" y2="135.629"/>
<line fill="none" stroke="#010101" stroke-width="2" stroke-miterlimit="10" x1="619.842" y1="138.647" x2="622.313" y2="140.567"/>
<g>
	<g>
		<g>
			<path d="M705.703,59.625c-0.229,3.538,0.796,6.441,4.498,7.347c0.295,0.072,2.071-0.433,1.497-0.874
				c-1.92-1.472-5.256-4.435-3.619-7.114c0.455-0.745-1.479-0.521-1.791-0.011c-1.85,3.028,1.363,6.141,3.611,7.865
				c0.499-0.291,0.998-0.583,1.497-0.874c-3.225-0.789-3.959-3.626-3.766-6.599C707.68,58.616,705.743,59.015,705.703,59.625
				L705.703,59.625z"/>
		</g>
	</g>
	<g>
		<g id="XMLID_2_">
			<g>
				<path fill="#3D793A" d="M700.626,75.291c-3.111,0.463-6.73-2.729-8.2-4.487c-0.381-0.456-0.442-1.426-1.237-1.856
					c-2.486,1.395-8.072,3.467-10.985,1.083c-0.002-0.826,0.396-1.252,0.618-1.857c2.326-0.224,6.184,0.499,7.271-1.392
					c-1.294-1.906-2.739-1.695-4.332-3.094c-1.473-1.295-4.151-4.954-2.939-7.582c0.672-1.458,2.299-1.917,2.939-3.248
					c1.283-2.666,0.542-8.17,3.56-8.821c3.478-0.75,4.949,3.012,7.427,4.178c3.137,0.554,4.64-0.869,6.808-1.702
					c1.571-0.604,3.054-0.72,4.022-1.393c1.08-0.748,1.87-4.028,4.178-3.404c1.444,0.392,2.446,5.169,2.476,6.808
					c0.058,3.204-1.503,6.193-2.631,8.975c-0.39,0.959-1.254,2.032-1.237,2.63c0.041,1.482,2.026,1.903,3.249,2.785
					c1.193,0.861,2.55,2.22,2.476,3.714c-0.12,2.418-4.574,3.49-6.653,4.488c-1.309,0.626-2.479,1.227-3.559,2.01
					C703.169,73.636,701.69,75.131,700.626,75.291z M702.327,62.448c-2.185-0.919-3.312-3.132-6.497-2.166
					c2.211-4.545,7.85-5.661,9.901-10.367c-0.023-0.182,0.027-0.438-0.154-0.464c-1.476,0.805-1.905,2.202-3.25,3.25
					c-2.089,1.629-4.667,2.333-6.807,4.023c-0.319,0.661-0.449,1.511-1.238,1.701c-1.148-1.74-0.343-5.433-2.938-5.724
					c1.499,2.004,0.824,3.942,0.927,6.344c0.02,0.461,0.215,0.888,0.155,1.237c-0.27,1.569-2.403,4.522-2.321,6.036
					c2.465,0.928,3.316-1.383,3.868-3.251c2.646,0.062,6.102-1.417,7.427,0.775c1.53-0.349,3.296,1.03,4.178-0.155
					C704.667,62.662,703.519,62.95,702.327,62.448z M709.29,65.079c-0.874-1.9-3.503-1.703-3.713-4.022
					c-0.093-1.022,0.711-1.93,0.154-3.25C703.575,61.058,706.892,64.533,709.29,65.079z"/>
				<path fill="#FFFFFF" d="M705.731,49.915c-2.052,4.706-7.69,5.821-9.901,10.367c3.186-0.966,4.312,1.247,6.497,2.166
					c1.191,0.502,2.34,0.214,3.25,1.239c-0.882,1.185-2.647-0.194-4.178,0.155c-1.325-2.192-4.78-0.713-7.427-0.775
					c-0.552,1.868-1.403,4.179-3.868,3.251c-0.082-1.514,2.052-4.467,2.321-6.036c0.06-0.349-0.136-0.775-0.155-1.237
					c-0.103-2.402,0.572-4.34-0.927-6.344c2.596,0.291,1.79,3.984,2.938,5.724c0.789-0.19,0.919-1.041,1.238-1.701
					c2.14-1.69,4.718-2.394,6.807-4.023c1.345-1.047,1.774-2.444,3.25-3.25C705.759,49.477,705.708,49.733,705.731,49.915z"/>
				<path fill="#3D793A" d="M709.29,65.079c-2.398-0.546-5.715-4.021-3.559-7.272c0.557,1.32-0.247,2.228-0.154,3.25
					C705.787,63.375,708.416,63.178,709.29,65.079z"/>
				<path fill="#FFFFFF" d="M679.429,41.561c-0.012-0.22-0.025-0.438,0.155-0.463c11.707,0,23.414,0,35.122,0
					c0,11.655,0,23.311,0,34.966c-11.76,0-23.518,0-35.277,0C679.429,64.562,679.429,53.062,679.429,41.561z M709.755,41.715
					c-2.308-0.625-3.098,2.656-4.178,3.404c-0.969,0.673-2.451,0.789-4.022,1.393c-2.168,0.833-3.671,2.256-6.808,1.702
					c-2.478-1.166-3.949-4.928-7.427-4.178c-3.018,0.65-2.276,6.155-3.56,8.821c-0.641,1.331-2.268,1.791-2.939,3.248
					c-1.212,2.628,1.467,6.287,2.939,7.582c1.593,1.399,3.038,1.188,4.332,3.094c-1.088,1.89-4.945,1.167-7.271,1.392
					c-0.222,0.605-0.62,1.032-0.618,1.857c2.913,2.385,8.499,0.312,10.985-1.083c0.795,0.43,0.856,1.4,1.237,1.856
					c1.47,1.758,5.089,4.951,8.2,4.487c1.064-0.159,2.543-1.655,3.249-2.167c1.079-0.783,2.25-1.384,3.559-2.01
					c2.079-0.998,6.533-2.07,6.653-4.488c0.074-1.494-1.282-2.854-2.476-3.714c-1.223-0.881-3.208-1.302-3.249-2.785
					c-0.017-0.598,0.848-1.67,1.237-2.63c1.128-2.782,2.688-5.771,2.631-8.975C712.201,46.884,711.199,42.106,709.755,41.715z"/>
			</g>
			<g>
			</g>
		</g>
	</g>
</g>
<text transform="matrix(1 0 0 1 715.333 75.3325)" fill="#00A14B" font-family="'TimesNewRomanPSMT'" font-size="36">The Ivy League</text>
</svg>
