<?xml version="1.0" encoding="utf-8"?>
<!-- Generator: Adobe Illustrator 15.1.0, SVG Export Plug-In . SVG Version: 6.00 Build 0)  -->
<!DOCTYPE svg PUBLIC "-//W3C//DTD SVG 1.1//EN" "http://www.w3.org/Graphics/SVG/1.1/DTD/svg11.dtd">
<svg version="1.1" id="Layer_1" xmlns="http://www.w3.org/2000/svg" xmlns:xlink="http://www.w3.org/1999/xlink" x="0px" y="0px"
	 width="612px" height="590px" viewBox="0 0 612 590" enable-background="new 0 0 612 590" xml:space="preserve">
<g>
	<line fill="none" stroke="#6D6E71" x1="200.206" y1="157.808" x2="178.741" y2="179.716"/>
	<g>
		<g>
			<g>
				<g>
					<g>
						<g>
							<g>
								<g>
									<g>
										<path id="path10874" fill="none" stroke="#6D6E71" d="M298.134,232.641h0.575l-0.193,0.576l-0.382,0.384l-0.577,0.384
											l-3.645,3.837l-2.303,1.15l-2.303,1.919l1.252,1.343l-2.688,3.069l-1.919,1.344l-1.15,0.575l-0.959,1.152l-0.768,0.191
											l0.384-0.766l-0.191-0.577l-0.384-0.191l-0.959,0.191l-0.384,0.193l-0.191,0.384l0.191,0.575l0.384,0.384l0.191,0.382
											l-0.382,0.384l-1.152,1.344l-2.11,0.959l-3.263,2.494l-0.384,0.193l-0.191,0.191l-0.192,0.191h-0.384l-0.193-0.382
											l0.193-0.193h0.191l1.728-0.959l0.575-0.384l0.191-0.576l-0.767,0.193l-4.031,1.535l-1.15,0.384l0.575,0.575v0.766
											l-0.575,0.577l-0.768,0.191h-0.382l-0.959-0.191l-0.384,0.191l-0.768,0.769l-0.767,0.382l-2.303,0.577l-0.384,0.191
											l-0.192,0.575l-1.534,0.768l-0.384,0.192h-0.576l-0.384-0.192h-0.575l-0.384,0.192v0.575l0.191,0.578v0.382l-0.382,0.384
											h-0.768h-1.728h-0.767l-0.193,0.384l-0.382,0.575l-0.384,0.384l-2.303,1.151l-1.15,1.152l-0.577,0.384l-3.645,1.151
											l-3.646,2.303l-2.11,0.575l-0.959,0.384l-3.362,0.767l0.959,0.386l2.685-0.959h0.959v0.191l-6.522,1.535l-4.797,2.878
											h-1.152l0.577-0.575l4.413-2.878l0.575-0.384v-0.193l-0.384-0.382l3.362-0.384l-0.767-0.384h-1.152h-0.766l-0.768,0.384
											l-3.746,0.193l-0.959,0.959l0.193,0.383l0.191,0.191h0.384l0.575,0.577l-0.191,0.575l-0.384,0.193l-0.384-0.193
											l-0.384,0.193l-0.384,0.191l-0.384,0.382l-0.192,0.193l-1.727,0.766l-0.575,0.193v-0.959l-1.344-0.959l-0.382-1.152
											v-0.382l4.128-1.537v-0.191v-0.382l0.193-0.193v-0.193l0.382-0.382l0.193-0.193l0.767-3.453l0.768-0.768h1.919v-1.151
											l1.15-0.575l1.152,0.193l0.959,0.382v-0.575l-0.384-1.343l0.191-0.575l0.577-0.193l0.383,0.386l0.384,0.573l0.384,0.386
											l0.384-0.386v-0.573l-0.193-0.577l-1.342-0.191v-0.577l0.191-0.576l0.384-0.575l0.959,0.575l0.767,0.768l0.768,0.576
											l0.575-0.191l-0.959-2.303l0.769-1.728l1.918-0.959h1.919v0.193v0.191h0.384l1.15,0.191l0.191-0.382l-0.191-0.191
											l-0.768-0.768l-0.191-0.384l0.384-0.959l0.959-0.193l0.768,0.386l-0.193,0.959l0.384,0.191l0.576,0.382l0.384-0.573h0.575
											h0.768h0.384v-0.769l-0.577-0.577l-0.575-0.191l-0.191,0.768l-0.96-0.768l0.191-0.382l0.769-0.193l3.453,0.384h0.768
											h0.383l0.768,0.191h0.384h0.384l1.534-0.959l0.575-0.768l0.191-0.767l-0.382-0.766l0.575-0.386l0.767-0.573l0.577,0.191
											v0.959h0.382l0.384-0.384v-0.193l-0.384-0.573l6.141-1.537l5.756-0.96l4.413-2.301l0.768-0.386l1.535-2.878l1.918-1.533
											l0.384-1.345l0.768-0.574l1.535-0.768l0.384-0.577l0.575-1.341l0.384-0.578l1.726-1.341l0.384-0.384h0.575l0.577,0.193
											l0.382,0.382l-0.191,0.577l-0.191,0.573l-0.577,0.578l-0.382,0.191l-0.768-0.769l-1.151,1.346l-1.919,2.878l0.382,0.382
											l0.193,0.191l0.382,0.193h0.193l-0.193,0.384l-0.766,0.191l-0.384,0.191l-0.192,0.577v0.576l0.192,0.384l0.384,0.575
											l-0.193,0.384l-0.383-0.191l-0.384-0.577l-0.191-0.191l-0.193,0.191l-0.959,1.15h-0.191h-0.384l-0.191,0.193v0.193
											l-0.193,0.574v0.193l-0.382,0.766l-0.193,0.386l-0.767,0.573l-0.577,0.577l-0.575,0.769l-0.191,0.767l0.384-0.193h0.382
											h0.384l0.384,0.193l0.576-0.767h0.769l0.766,0.191l0.959-0.191l0.577-0.386l0.767-0.382l0.575-0.577l-0.191-0.573
											l-0.191-0.577l0.576-0.959l1.534-2.11l0.768-0.577l0.383-0.767l-0.575-0.766l0.575-0.386l0.384,0.193l0.193,0.575
											l0.382,0.384l0.384-0.192l0.959-0.767l0.384-0.193l-0.191-0.382v-0.577l0.382-0.383l0.577,0.191l1.726,1.15l-0.191-0.766
											v-0.959l0.191-0.766h0.576l-1.825,1.533l0.382,0.577h0.384l0.575-0.191l1.344-0.959l0.959-1.537l0.575-0.575h0.768v-0.959
											l0.384-0.193h0.767h0.577V233.6l-0.193-0.576l0.575-0.192L298.134,232.641L298.134,232.641z"/>
										<path id="path10876" fill="none" stroke="#6D6E71" d="M223.209,126.917l0.384,0.384l0.193,0.959l0.191,0.384l0.191,0.959
											l0.384,1.536l0.384,2.111l0.576,2.302l0.575,2.686l0.577,2.877l0.575,2.878l0.766,2.878l0.577,2.878l0.575,2.688
											l0.576,2.301l0.384,2.111l0.384,1.535l0.191,0.959l0.191,0.384v0.384l0.193,0.959v1.727l0.767,1.342l0.768,1.343
											l-0.384,0.768v1.343v3.646l-0.192,3.646v3.645l-0.192,3.646v3.646l-0.191,3.646v3.646l-0.191,3.838v1.725v0.96
											l1.342,0.959l0.384,2.303l0.384,2.109l0.384,2.303l0.384,2.303l0.382,2.109l0.769,4.606l0.384,2.109l0.384,2.303
											l0.382,2.302l0.384,2.11l0.384,2.303l0.384,2.303l0.384,2.109l0.384,2.303l0.382,2.303l0.193,0.959l0.959,0.959
											l0.766,0.768l0.578,0.767l0.766,0.575l-0.384,0.577l-1.535,1.533l-1.919,1.918l-1.726,1.728l-1.343,1.344l-0.384,0.384
											l0.384,0.382l1.15,1.152l1.15,1.152l0.193,0.191h0.191l0.193,0.191l0.383,0.384l0.192,0.384h-0.192l-0.192,0.383
											l0.384,0.192l0.191,0.384l-0.191,0.382l-0.384,1.346v0.191l-0.959,0.191l-0.384,0.193l-0.191,0.384l-1.152,2.11
											l-0.382,0.959v0.769v0.382h-0.578l-0.382,0.192v0.384l0.191,0.382l0.575,0.959l0.384,0.384h-1.15l-1.343,0.384
											l-1.152,0.575l-0.96,0.768l-0.382,1.344l-0.577,3.069l-0.767,0.768l-0.193-0.959v-1.152v-0.959l1.152-4.222l0.191-0.575
											l-0.191-1.152l0.384-2.11v-2.11v-2.11l-0.193-0.959l-0.767-3.837l-0.577-1.728l-0.767-1.728l-0.575-0.575l-0.577-0.384
											l-1.342-0.768l-0.959-0.959v-0.767l0.191-0.959l-0.384-0.959l-0.575,0.766l-0.191,0.386l-0.193,0.574v0.577l0.193,0.382
											l0.382,0.386l0.578,1.532l0.575,0.578l0.767,0.382l0.577,0.577l0.575,0.769l0.191,0.767l0.384,2.111l1.535,4.029
											l0.192,1.15l-4.03-1.342l-4.029-1.343l-4.03-1.343l-4.22-1.344l-4.03-1.344l-4.029-1.341l-4.028-1.344l-4.031-1.343
											l-0.384-0.959l-1.342-1.344l-0.384-0.575l-0.193-0.384l-0.382-0.191l-0.384,0.191l-0.384,0.384h-0.384l-0.384-0.384
											l-0.959-0.191l-1.726,0.575h-0.769l-0.768-0.384l-0.382-0.575l-0.577-0.191l-1.726-0.193l-0.576-0.384l-0.768-0.576
											l-2.687-3.454l-0.576-0.384l-0.191-0.575l-0.384-2.494l-0.191-0.959l-0.768-1.727v-0.384l0.384-0.576v-0.384l-0.384-1.15
											l-0.575-0.192l-0.576-0.192l-0.959-0.193l0.575-1.341l0.192-0.384h-0.576l-0.384-0.193l-0.766-0.766l-0.959-0.193
											l-0.96-0.574h-0.577l-1.919,0.767l-0.575-0.384l-0.384-0.96l-0.382-1.15l-0.384-0.768l-0.959-0.382l-1.152-0.386
											l-0.959-0.383l-0.191-0.768l-0.384,0.193l-0.959,0.191l-4.797,0.959l-4.797,1.152l-4.796,0.959l-4.988,1.15l-4.797,0.96
											l-4.797,0.959l-4.797,1.15l-4.99,0.959l-4.797,0.959l-4.797,0.96l-4.988,0.959l-4.797,1.152l-4.797,0.959l-4.988,0.959
											l-4.797,0.96l-4.797,0.959l-4.99,0.959l-4.797,0.959l-4.988,0.767l-4.796,0.959l-4.797,0.96l-4.988,0.959l-4.797,0.769
											l-4.99,0.959l-4.796,0.96l-4.797,0.768l-4.988,0.959l-4.797,0.766L25,246.647l-4.796,0.769l-4.988,0.959l-4.797,0.766
											l-1.344,0.193L8.884,247.8L8.5,246.456l-0.191-1.534l-0.193-1.344l-0.382-1.344L7.541,240.7l-0.191-1.344l-0.193-1.344
											l-0.382-1.535l-0.193-1.534l-0.384-1.728l-0.191-1.535l-0.191-1.728l-0.384-1.726l-0.193-1.535l-0.382-1.727l-0.193-1.535
											l4.222-3.071l4.988-3.644l4.99-3.454l4.988-3.646l4.99-3.646l1.534-2.11l1.151-2.688v-2.11l-0.384-0.768l-0.767-0.382
											l-0.959-0.193l-0.959-0.384l-0.959-0.575l-0.576-0.384l-0.384-0.575l-0.192-0.96l0.192-0.766l-0.192-0.384l-0.192-0.384
											l-0.575-0.384l-0.575-0.576l-0.384-0.384l-0.193-0.384v-0.575v-0.575l0.193-0.384v-0.575v-0.576v-0.575l-0.96-4.222
											l-0.384-0.768l-1.728-3.069l-4.028-5.372l3.069-2.112l4.222-3.262l6.332-4.604l2.112-1.151l8.059-1.343l8.057-1.535
											l8.06-1.535l8.059-1.535l8.059-1.534l8.059-1.536l8.058-1.534l8.06-1.536l0.192-0.191l0.191-0.192l0.191-0.192
											l0.193-0.192h0.191l0.191-0.192l0.193-0.192v-0.192l0.959-2.878l0.959-3.069l0.96-2.878l0.959-2.877l0.959-3.07
											l0.959-2.878l0.96-2.878l0.959-3.07l0.575-0.959l2.303-2.878l0.191-0.384v-0.383v-0.384l0.384-0.575l0.191-0.192
											l3.646-2.303l0.576-0.575l0.384-0.96v-0.192l-0.576-1.151l-0.192-0.383l0.768-1.344l2.494-2.686l5.182-3.838l0.959-0.575
											l0.384-0.768l0.191-0.959l0.193-1.151l0.959-1.918l0.96-1.728l1.341-3.069l3.455-4.606l3.261-4.797l3.071-4.413
											l1.919-2.877l4.222-4.03l1.726-0.959l0.575-0.383l1.153-1.535l0.575-0.384l1.728-1.151l1.15-1.151l0.575-0.384h0.576
											l4.415-0.576l0.959-0.192h0.575l3.454-0.959l3.262-0.767l3.454-0.767l3.453-0.768l3.262-0.769l3.454-0.959l3.453-0.767
											l3.263-0.768l3.454-0.767l3.262-0.959l3.454-0.768l3.454-0.768l3.262-0.959l1.728-0.384l0.191,0.575l0.575,0.959
											l0.193,0.769l0.191,0.191v0.384v0.767v0.384v0.383l-0.384,0.96v0.384v0.575v0.384v0.575l0.193,0.192v0.384l0.384,0.383
											l0.191,0.192l0.191,0.192l0.768,0.575l0.191,0.192l0.193,0.192v0.192v0.384l0.191,0.383v0.767v0.384v1.152v0.575
											l0.193,1.151v0.576v1.918v0.192v0.384l0.191,0.959l0.768,1.727l0.191,0.384l0.769,0.959l2.11,2.11l0.384,0.576
											l0.384,0.767l0.191,0.192v0.384l0.192,0.576v0.575v0.959V87.2l-0.384,1.343v0.384v0.383v0.19l0.192,0.384l0.96,2.111
											l0.191,0.383l0.193,0.959l0.191,1.151v0.576l-0.191,0.384l-0.384,0.192l-0.193,0.383l-0.382,0.384l-0.192,0.384
											l-0.192,0.383v0.192v0.384l0.192,0.96v0.575l-0.384,4.222l-0.191,0.767v0.383l0.191,0.192l0.192,0.384l0.767,0.767
											l0.193,0.192l0.191,0.383v0.384l0.384,1.343l0.191,0.576l0.768,2.11l0.384,0.576l0.191,0.384l0.384,0.192l0.191,0.191
											v0.192l0.193,0.384v0.383l0.191,0.576v0.767v0.384v0.191l0.959,1.151l0.191,0.192l0.193,0.384v0.383l0.191,0.96v0.576
											l-0.575,5.18v0.384v0.576l0.384,1.151l0.191,0.575l0.193,0.384l0.382,0.384l0.192,0.191h0.192l0.384-0.383l0.191-0.384
											l0.193-0.192v-0.191l0.191-0.384l-0.191-0.768l0.191-0.384v-0.192l0.191-0.191l0.193-0.192h0.191l0.191-0.192h0.193h0.575
											h0.384l0.191,0.192l0.193,0.192l0.96,1.535l0.382,0.384l0.193,0.191L223.209,126.917L223.209,126.917z"/>
									</g>
									<polyline fill="none" stroke="#6D6E71" points="28.84,205.969 42.37,215.109 48.192,222.216 54.359,241.275 									"/>
								</g>
								<polyline fill="none" stroke="#6D6E71" points="65.488,157.809 80.21,174.66 96.219,187.457 96.219,205.969 96.219,215.109 
									96.219,222.216 103.095,232.065 								"/>
							</g>
							<polyline fill="none" stroke="#6D6E71" points="117.485,111.375 146.265,117.598 152.979,117.598 158.801,117.598 
								158.801,130.697 146.265,147.132 146.265,157.809 143.351,163.853 138.143,174.66 131.789,178.93 123.434,184.546 
								110.773,184.546 96.219,187.457 							"/>
						</g>
						<polyline fill="none" stroke="#6D6E71" points="211.312,103.508 193.661,111.375 176.266,111.375 158.801,117.598 						"/>
					</g>
					<polyline fill="none" stroke="#6D6E71" points="227.24,143.993 211.312,149.416 200.206,157.808 148.659,143.993 					"/>
				</g>
				<polyline fill="none" stroke="#6D6E71" points="193.661,241.275 214.14,224.014 233.955,207.312 				"/>
			</g>
			<polyline fill="none" stroke="#6D6E71" points="231.844,182.177 213.808,187.457 196.111,194.937 174.259,194.937 
				178.741,179.716 155.456,180.231 146.265,174.66 143.351,163.853 			"/>
		</g>
		<polyline fill="none" stroke="#6D6E71" points="96.219,222.216 123.434,214.396 140.079,204.546 148.659,198.767 162.468,194.937 
			174.259,194.937 197.232,215.577 202.463,233.856 		"/>
	</g>
</g>
<polyline fill="none" stroke="#6D6E71" points="363.865,140.648 351.064,157.574 351.064,164.787 351.064,172.002 354.134,181.422 
	"/>
<polyline fill="none" stroke="#6D6E71" points="376.626,131.067 363.865,140.648 350.684,122.652 340.075,123.51 329.085,122.652 
	314.005,123.51 308.893,125.7 "/>
<g>
	<g>
		<g>
			<path id="_x31_0m_x5F_admin_x5F_1_x5F_states_x5F_provinces_x5F_shp.59" fill="none" stroke="#6D6E71" d="M387.616,143.592
				l2.043,1.533l1.79,1.023v1.79l0.767-0.512l1.023-0.511l0.512,0.257v1.021l-0.257,0.766v0.512v1.024l-1.533,4.6l-0.257,2.556
				l-0.255,1.278l0.255,1.278l-1.533,0.767h-1.022l-1.786-0.255h-0.513l-0.512,0.255l-3.834,3.067l-0.51,0.511l-0.258,0.255
				l-0.254,1.023l-0.258,0.512l-0.51,0.766l-0.512,0.255h-0.512h-0.512l-0.766,0.257l-0.514,0.254l-0.254,0.255l-0.256,0.257
				l-0.256,0.255l-0.255,0.511v0.255l-0.255,0.769v1.533l-0.257,0.255l-0.255,0.769l-0.512,0.509l-0.767,0.512l-0.513,0.257
				l-0.256,0.254l-0.51,1.023l-0.258,0.766l-0.767,0.767l-0.255,0.254l-0.512,0.257l-1.023,0.255l-3.322,0.766l-3.32,0.769
				l-3.322,0.767l-3.322,0.766l-3.325,0.769l-3.321,0.764l-3.322,0.769l-3.324,0.766l-3.322,0.512l-3.322,0.766l-3.322,0.767
				l-3.322,0.769l-3.324,0.764l-3.322,0.769l-3.321,0.766l-3.325-3.915h-0.255l-0.767,2.894l-1.276-1.278l-2.302-1.535l-0.768-0.512
				l-0.254-0.509l-0.513-0.769l-0.257-1.023l-0.256-1.021v-0.767l0.256-0.769v-1.021l-0.256-2.813v-1.278l0.768-0.509l1.023-0.769
				v-1.278l-0.512-2.811v-3.833l-0.255-1.533l-0.768-1.533l-0.257-0.769l-0.254-2.556l0.254-0.509v-0.514v-0.254v-0.509h-0.254
				v-0.257h-0.256v-0.766v-0.77l0.256-0.763l0.254-0.769l0.257-1.278l-0.257-1.533l-0.767-2.301l-2.302-10.733l-0.254-1.792
				l0.254-1.021l1.277-2.045l0.258-1.277v-1.278l-0.258-2.811l-0.254-2.047v-0.766l1.022-1.535l0.511-0.766l2.043-4.089v-1.278
				v-1.535l-0.254-1.278l-0.255-1.533l0.509-1.533l1.789-4.857v-0.512l-0.511-0.255l-0.255-0.511l-0.512-0.255v-1.278l1.022-3.835
				l0.255-2.3l-0.51-2.556l-1.277-5.624l-0.512-3.066l0.512-2.556l1.277-1.79l2.044-1.278l2.302-0.255l1.021-0.511l0.768-0.767
				l1.022-2.556l0.512-0.766l3.322-3.578l1.022-0.767l0.254-0.767l0.514-1.534l1.277-1.534l0.512-1.533l-0.258-1.023l-0.512-1.022
				v-1.277l0.512-0.511l0.512-0.255l0.512-0.256l0.256-0.766l-0.256-0.512l-0.512-0.512l-0.766-0.766l-2.303-3.322l-0.511-0.768
				l-0.51-1.022l-0.771-0.767l-0.766-1.023l-0.255-1.533l0.51-2.556l1.278-3.58l1.277-3.578v-1.535l-0.767-0.766l-0.767-1.022
				l-0.767-1.278l-0.258-1.789l0.258-0.766l0.767-0.256l-0.514-1.534l-0.253-1.022l0.253-1.022l1.024-3.324v-0.766v-1.021V24.23
				l0.766-2.556v-1.278l-1.022-0.51l-1.277-0.511l0.258-0.511l1.786-1.023l0.513-0.767l0.767-2.044l0.769-0.768l1.021-0.766h0.768
				l4.344,1.277l1.278,0.256l1.022-0.256l0.767-0.511l0.769-2.556l0.511-1.022l0.258-0.511h0.253l1.023,3.324l1.021,3.322
				l1.023,3.323l1.022,3.322l1.278,3.324l1.021,3.322l1.021,3.322l1.021,3.58l1.277,3.322l1.023,3.322l1.022,3.324l1.021,3.322
				l1.279,3.323l1.022,3.323l1.021,3.323l1.024,3.322l1.022,3.323l1.276,3.323l1.022,3.322l1.021,3.324l1.024,3.322l1.276,3.322
				l1.021,3.323l1.023,3.323l1.022,3.323l1.278,3.322l1.021,3.322l1.022,3.325l1.021,3.32l1.278,3.325l1.022,3.322l1.023,3.322
				l0.768,1.789l0.254,2.045l0.257,1.023v1.023v0.254l0.255,0.509v0.514l0.513,0.764l0.255,1.023v0.769v1.787v0.255l0.258,0.514
				l0.509,1.021l0.257,0.512l0.51,0.509l1.79,1.277l2.043,1.792l2.048,1.787l2.299,0.769l0.256,0.255l0.256,0.254l0.512,1.023
				l0.255,0.509v0.514v2.042l0.255,0.769v0.255L387.616,143.592L387.616,143.592z"/>
			<polyline fill="none" stroke="#6D6E71" points="329.085,61.802 341.548,61.802 351.064,50.3 			"/>
		</g>
		<polyline fill="none" stroke="#6D6E71" points="314.005,99.885 329.085,93.532 336.738,93.532 340.075,93.532 351.064,93.532 
			366.404,96.818 		"/>
	</g>
	<polyline fill="none" stroke="#6D6E71" points="351.064,157.574 340.075,151.288 329.085,151.288 320.27,154.431 310.938,157.141 	
		"/>
</g>
<polyline fill="none" stroke="#6D6E71" points="342.759,80.189 340.812,86.86 336.738,93.532 "/>
<polyline fill="none" stroke="#6D6E71" points="341.548,61.802 343.324,73.119 342.529,83.064 "/>
<g>
	<g>
		<g>
			<g>
				<g>
					<g>
						<g>
							<g>
								<g>
									<g>
										<g>
											<g>
												<path fill="none" stroke="#6D6E71" d="M481.804,166.597l2.195-1.098v0.367l1.467,3.294v0.733l-0.365,0.365l-3.297,0.733
													l1.099,0.367l0.732,0.367l1.466,0.364h0.365l0.364-0.364h0.368l0.365,0.364l0.367,0.733l1.099,0.733l3.293,5.492v0.731
													l-2.93-2.562l-1.098-0.367l1.098,2.562l1.831,1.1l4.395,1.098l-0.732,0.733l-0.732,0.366h-0.729l1.831,1.098
													l3.661-0.366l0.365,1.1l1.466,0.364v-1.098l-0.733-2.197l0.365-1.098l0.732-0.733l1.466-1.464l0.365,1.464l0.363,0.366
													l0.733,0.367l0.732-0.367l0.732,0.367v0.366v1.098l0.729,0.367v0.731l-0.729,0.367l-0.368,0.366l-0.364,1.098
													l-0.364,0.733l-0.368,0.733l-0.365,0.365h-1.098h-0.368v-0.365h-0.364l-0.732,0.731l-0.364,1.1l-0.368,1.098v0.733
													l-7.323,3.661l-2.928,2.195l-1.098,1.466l0.731,0.364l-0.368,0.367l-0.363,0.733v0.731v1.099l0.731-0.733l0.729-1.098
													l0.368-0.733l0.729,0.733l0.733,0.731l0.363,0.366l-0.363,0.367l-0.733,0.366l-0.364,0.367v0.365l-1.098,1.831
													l-0.368,0.366l-0.365,0.367h-1.098l-0.368,0.367v1.464l0.733,0.733l1.098,0.367l1.102,0.365l-1.467,1.099l-2.562-1.831
													l-1.098,1.098l-0.364,1.464l0.364,0.733l0.732,1.464l0.729,1.831l0.368,0.733l0.732,0.731l-0.732,0.367l-1.467-1.464
													h-1.098l-0.732,0.367l0.368,0.731l0.729,0.367l0.731,0.366l-1.098,0.367l-1.466-0.367l-1.099-0.366l-0.363,1.464h0.729
													h0.732l0.732,0.367l0.364,0.733l-0.732,0.367l-0.729,0.731v1.1l0.729,1.098l1.102,0.366h0.365l1.466-1.464l0.364,2.562
													h1.098l1.467-0.364l0.732,1.098v0.366l-0.368,1.098v0.367l0.368,0.366h0.729h0.368v-0.366h0.365l0.731-0.733
													l1.099-1.098l0.732-0.733l1.099,1.1l0.367-0.733l0.364-1.098v-0.367l-1.098-0.366l-1.098-1.098l-0.732-1.1l-0.368-1.098
													l3.661,2.197l1.83,0.731h3.661l1.831,0.733l1.466,0.733l2.195,1.831l0.367,0.365l0.733,2.93h0.364l1.098,0.731
													l1.831,1.466l2.563,2.562l1.831,1.099v1.831l1.098,1.098l2.928,2.928h0.368v0.365v0.736l-0.732,0.729h-0.732h-0.732
													h-0.729l0.364-0.365l0.364-0.365l0.732-0.368l-1.462-2.199l-1.103-1.096l-0.729-0.366l-0.368,0.731l0.368,4.393
													l-0.732-0.365l-0.369,0.365h-0.729l-0.369,0.733l5.128,2.928l1.466,0.733l1.099-0.365l2.562-0.733l1.831,0.733
													l1.83,2.928l1.463,3.297v2.56l0.732,2.199l2.562,1.831l5.124,1.831l2.933,0.365l8.42-1.462l-0.732,0.729l-2.562,0.733
													l-0.729,0.733l0.364,0.365h1.466l2.929-0.729l1.831-1.466l2.929-2.928l5.491-3.293l1.83-1.831l2.195-1.101l0.733-0.729
													l0.732-2.932l-0.365-2.928l-1.102-2.928l-2.195-1.831h0.733l0.364-0.368l1.098-0.733v-0.731h-1.462l-1.099-0.367
													l-0.732-0.364l-0.732-0.367l-0.732,1.098l0.368,2.93l-0.368,1.098l-1.099-4.395l-0.731-1.464l-2.195-3.661l-0.732-1.098
													l-1.467-2.564l-2.929-1.098l-2.195,0.731l-0.731,2.563h1.098l0.368-0.367v0.733l-1.102,0.731l-1.099-0.365l-2.194-1.831
													h-0.368l-0.364-0.367h-0.733v-0.366v-1.098l0.368-0.733l0.365-0.733l0.732-0.365l1.098,0.365l2.929-1.098h1.103
													l1.098,0.733l3.296,0.731l1.831,0.367l4.759,3.294l2.195,2.197l6.225,9.886l1.467,1.462l-0.368,0.368v0.365h-0.364
													l-1.466-0.365l-1.099-0.733v1.098l0.364,2.563v1.466l1.466-1.466h1.099l0.732,1.098l1.466,4.395l1.099,6.225h-2.563
													l-10.251,5.124l-3.297,0.733l-1.83,1.831l-0.732,0.368l-0.729,0.365l-0.368,0.733l-0.363,2.195l-0.733,0.733v-1.098
													v-2.563l-1.098,0.733l-1.466,1.098l-1.099,0.733l-2.195,0.365l-0.732,0.368l-0.732,1.098l-0.732,0.733l-1.462-1.466
													h-0.733l-0.731,0.733l-1.099,4.395l-0.732,1.831l-1.462,1.462l-1.831,1.098l-2.199,0.733l-1.83,0.733l-3.661,2.928
													l-1.831,0.732l1.103-2.195v-2.562l-1.831-6.958l-0.732-1.462l-0.732-1.101l0.364-1.098l0.732-0.733v-1.098l-0.364-0.733
													l0.364-0.729l0.368-0.368l-0.732-0.733h-0.732l-0.364,0.733v1.466h-0.368l-2.564-1.098l-1.462-0.368l-0.732,0.368
													l0.365,2.928l0.731,1.098l0.733,1.098l-1.831,0.368l-0.364,1.098v1.462l-0.733,1.831l-1.466-1.098l-0.731,0.369
													l-0.365,1.097l0.365,0.365v0.368l-0.729,0.729l-1.102,1.102h-0.729l1.099,2.195v1.098l-0.732,0.367l-0.365-0.367
													l-1.098-1.463l-0.368-0.732L510,279.363l-1.83-0.729l0.364,2.56l-0.364,1.466l-0.368,1.83l1.099,2.564l-1.099,1.83
													l-0.732,0.733l-0.729,0.364l-0.368-0.364l0.368-0.368l-2.562,2.928l-1.467,1.102l-2.194-0.368l1.098-1.098v-1.098
													l-0.732-1.466l-1.099-0.733l0.365,1.831l-0.729,0.732h-2.562l1.098,1.467l0.368,0.364l-1.466,1.098l-3.297,5.491
													l-1.462-2.195l-0.369-0.731v-1.098v-0.732l-1.462-2.929l-1.466-4.026l-0.365-2.199l-0.368-1.83v-4.025l2.199-7.323
													l0.729-4.029l-1.098,0.733l-0.365,1.098l-1.098,4.763l-0.368,0.729l-0.364,0.733l-1.831-0.365h-0.731l-0.365,0.733
													v0.364l-0.368,1.467l-2.928-3.297l-1.467-0.733h-0.729h-1.102l-1.099-0.733l-1.098-0.729l-0.733-0.733v-0.368
													l-0.363-0.729l-0.368-2.932l-0.365-1.098l-0.364-0.365v-0.733v-0.733v-0.365l-0.368-1.098l-0.364-0.368h-0.732
													l-1.098,0.368h-0.733l-0.363-0.368v-0.365l-1.831-5.86l-0.732-2.56l-0.733-1.466l-3.293,1.098l-6.225,1.466
													l-5.856,1.831l-6.226,1.831l-5.86,1.462l-0.363-0.729l-7.688,1.831l-9.886,2.195l-10.251,2.563l-9.886,2.195
													l-9.888,2.563l-3.66,0.733l-1.099,0.733l-0.364,0.364h-1.102h-1.463l-9.521,2.195l-3.293,0.733l0,0l0,0l-3.66,0.368
													l-4.396,1.098l-4.759,1.098l-8.057,1.466l-8.42,1.83l-8.42,1.463l-8.056,1.83l-2.563-1.83v-1.83v-3.293l0.365-7.323
													v-6.958l0.367-6.958v-6.954l0.365-6.958v-6.956l0.365-6.956v-6.956v-2.563l0.731-1.464l3.297-0.733l3.661-0.731
													l3.296-0.733l3.293-0.731l3.297-0.733l3.293-0.367l3.298-0.731l3.297-0.733l3.293-0.731l3.297-0.733l3.295-0.733
													l3.294-0.731l3.297-0.733l3.293-0.731l3.297-0.367l3.296-0.733h0.365l4.759-1.098l4.759-1.099l4.764-1.098l4.759-1.098
													l4.759-1.1l4.763-1.098l4.76-1.1l4.759-0.731l4.759-1.1l4.76-1.098l4.763-1.1l4.76-1.098l2.88-0.665l1.879-0.433
													l4.763-1.099l4.76-1.098l4.759-1.1l2.562-1.098l1.099-1.098l0.363-1.1l0.733-1.464l0.368-0.367l0.729-0.367l1.103-0.731
													l0.729-0.733l0.368-1.098l0.364-0.367v-2.197l0.365-1.098v-0.367l0.367-0.733l0.364-0.365l0.365-0.367l0.368-0.366
													l0.731-0.367l1.099-0.366h0.732h0.729l0.731-0.365l0.733-1.1l0.364-0.731l0.368-1.466l0.364-0.364l0.732-0.733
													l5.492-4.394l0.729-0.365h0.733l2.562,0.365h1.466h-0.006V166.597z"/>
												<polyline fill="none" stroke="#6D6E71" points="490.593,268.38 504.32,256.48 518.049,244.582 												"/>
											</g>
											<polyline fill="none" stroke="#6D6E71" points="466.43,253.37 470.701,244.582 473.201,237.075 473.201,230.075 
												476.201,223.575 482.169,219.688 											"/>
										</g>
										<line fill="none" stroke="#6D6E71" x1="473.201" y1="237.075" x2="504.32" y2="256.48"/>
									</g>
									<polyline fill="none" stroke="#6D6E71" points="453.987,190.396 458.201,194.575 466.43,197.075 474.299,197.075 
										477.701,199.575 482.169,202.575 485.83,206.506 									"/>
								</g>
								<polyline fill="none" stroke="#6D6E71" points="439.707,193.692 436.701,206.506 436.701,209.075 438.9,215.094 
									443.201,219.688 443.201,219.688 444.556,221.676 449.701,225.575 453.987,225.575 463.201,225.575 469.908,227.575 
									473.201,227.575 								"/>
							</g>
							<polyline fill="none" stroke="#6D6E71" points="444.556,221.676 439.701,223.575 436.701,227.575 436.701,229.575 
								432.201,232.5 432.201,236.529 432.201,241.289 435.951,244.582 436.701,249.075 439.701,253.37 438.605,260.328 							"/>
						</g>
						<polyline fill="none" stroke="#6D6E71" points="403.917,201.585 403.917,210.634 401.701,213.075 401.701,216.575 
							401.701,221.676 403.917,227.575 403.917,227.575 413.701,232.5 422.701,232.5 432.201,232.5 						"/>
					</g>
					<polyline fill="none" stroke="#6D6E71" points="360.989,210.899 360.829,229.075 364.701,229.075 370.201,227.575 
						378.381,227.575 384.701,227.575 389.284,227.575 396.701,227.575 403.917,227.575 					"/>
				</g>
				<polyline fill="none" stroke="#6D6E71" points="360.829,229.075 358.163,234.354 357.201,240.107 367.117,246.778 
					372.912,253.37 385.201,253.37 397.201,249.575 407.201,241.002 413.701,232.5 				"/>
			</g>
			<polyline fill="none" stroke="#6D6E71" points="400.464,246.778 400.464,256.48 398.701,260.328 398.701,264.075 
				400.896,269.113 			"/>
		</g>
		<polyline fill="none" stroke="#6D6E71" points="357.077,237.075 357.701,257.945 356.701,260.551 356.701,268.38 356.701,272.075 
			356.701,276.075 357.693,278.999 		"/>
	</g>
	<polyline fill="none" stroke="#6D6E71" points="356.701,253.51 344.201,253.37 339.701,249.075 333.154,249.075 326.701,249.075 
		322.91,250.442 	"/>
</g>
<g>
	<path id="path10708" fill="none" stroke="#6D6E71" d="M601.677,340.564l6.083,6.846v2.283l0.766,2.28v0.763l-3.044,3.803
		l-2.281,1.52l-2.281,0.763l-1.521-1.521v-3.045v-3.805v-3.041l0.757-4.564l-0.757-1.52l-1.524-0.762h-0.757l-0.766,0.762
		l0.766,4.563v1.521h-1.522l-3.046-1.521l-3.038-1.521l-2.28-2.28l-0.766-3.047l-1.522-2.279l-1.516-2.279l-2.288-2.285v3.042
		l0.767,3.803l1.521,4.565l0.758,3.042l1.523,0.762l1.521,0.762l1.517,0.761l1.521,2.28v1.523l-1.521,4.563v2.28l-1.517-1.522
		l-0.766-1.52h-1.523h-1.515l-1.521,1.52l-1.523,1.522v1.522l3.046,0.758l2.281,2.283l1.521,3.805l0.758,3.804l-0.758,3.8
		l-1.521,2.288v2.28l3.044,3.037l1.517,3.047l2.287,9.888l0.759,3.045l-3.804,15.972v1.521v1.523v2.278l-1.522,0.76h-1.517
		l-3.045-0.76h-2.28l-6.092,2.281l-21.297,14.457l-12.168,5.325v-3.803l-1.521-9.896v-3.038l0.757-1.521l1.522-0.757l-2.279-12.177
		l-1.522-7.605l-1.523-6.084l-3.038-10.654l-2.288-10.644l-3.036-10.652l-3.046-11.409l-3.038-10.648l-3.047-10.647l-2.28-10.649
		l-3.046-11.408l12.176-3.043l12.926-3.804l12.174-3.804l12.928-3.046l6.848-2.28l1.523,3.042l1.516,5.326l3.804,12.172v0.758
		l0.765,0.762h1.522l2.281-0.762h1.521l0.757,0.762l0.76,2.283v0.763v1.52v1.522l0.765,0.761l0.758,2.28l0.766,6.084l0.759,1.521
		v0.764l1.521,1.519l2.28,1.522l2.279,1.521h2.28h1.523L601.677,340.564L601.677,340.564z"/>
	<polyline fill="none" stroke="#6D6E71" points="546.043,301.947 551.303,309.039 551.303,315.712 551.303,319.716 551.303,325.722 
		551.303,335.73 548.673,345.287 540.626,352.414 533.953,352.414 525.61,354.256 	"/>
	<polyline fill="none" stroke="#6D6E71" points="584.183,346.648 575.326,342.404 568.653,342.404 564.649,336.398 561.362,336.398 
		554.64,332.395 551.303,332.395 	"/>
	<polyline fill="none" stroke="#6D6E71" points="543.072,350.246 546.632,354.256 546.632,365.184 547.966,371.766 551.303,375.77 
		556.642,379.773 564.389,382.443 575.326,385.112 585.706,380.121 	"/>
	<polyline fill="none" stroke="#6D6E71" points="540.778,415.112 556.642,407.133 567.743,403.129 575.326,403.129 589.34,403.129 
		592.362,403.129 	"/>
</g>
<g>
	<g>
		<g>
			<g>
				<g>
					<g>
						<path id="_x31_0m_x5F_admin_x5F_1_x5F_states_x5F_provinces_x5F_shp.57" fill="none" stroke="#6D6E71" d="M522.25,426.404
							v2.264l-2.718,1.361l-0.451-0.908l1.356-0.453v-0.902l-0.905-0.453l-1.357-0.453h-1.356l-5.432,1.81l-0.451,0.453l-4.98,4.076
							l-4.525-2.718l-0.901,0.904v2.715l-0.455,1.36l-2.264,0.451l-2.714-0.451l-2.263,0.451v3.168l-2.264-0.905l-4.526,4.527
							l-3.168-0.451l-0.451-0.456l-1.356-0.452l-0.906-0.455l-0.455-0.449v-0.905l0.455-0.906l-0.455-0.902l-0.45-1.359
							l-1.356-0.902l-1.356-0.456l-1.812,0.456l1.812,1.356l1.356,1.356l1.356,1.357v3.17l0.905,0.449h0.452l-1.357,1.812
							l-1.812,0.451l-4.07-0.451l-1.361,0.451l-1.808,1.362l-1.361,1.808l-0.451,1.812l-0.905-0.455v-0.451h-0.45l-0.451-0.449
							h-0.455l-0.9,0.9l-4.076-0.451l-1.812-0.449l-4.523,2.261l-0.452,1.358l-0.45,0.905l-0.906,0.45l-0.905,0.451l-0.906-0.451
							l-0.905-0.45h-0.902h-1.36l-3.165,0.901l-0.905,0.456l-0.906,1.354h-0.45h-1.356l-4.526,1.359l-1.359-0.448l-0.902-0.911
							l-0.906-2.712l-0.449-0.454l-0.906,0.904v1.356l-0.456,0.453l-2.263,4.075l-1.356,3.614l-0.451,0.911l-0.906,0.902
							l-2.714,0.449l-0.455,0.911l-0.904,0.902l-1.357,1.36l-0.906,0.899l-0.45,1.363v0.9l-0.45,0.45l-0.906,0.46l-1.357,0.9
							l-0.904-0.449l-0.451-0.451l-1.361-0.46h-0.451l-2.263,3.176h-0.45h-0.456v-0.461h-0.449v0.461v0.899l-0.451,0.451
							l-0.455,0.46l-0.451,1.353l-0.454,0.91h-0.903l-1.359-0.46h-0.451l-0.906,0.46l-0.451,1.354l-0.905,0.451l-0.905,0.458
							l-1.808,0.901l-0.906,1.36l-0.455,1.354l-0.451,0.451l-3.169,3.172l-1.356,0.903l-2.713,2.712l-0.457,0.46l-1.808-0.46
							l-0.905,3.175l-0.906-0.45l-0.906,1.803l-1.355,1.359l-1.812,0.451l-1.809-0.899l-0.453,0.448v0.451l-0.902,0.452
							l-1.812,1.812l-0.449-0.902l-0.906-0.909l-0.455-0.452h-0.45l-0.452-0.451l-2.718-2.712l-2.714-2.715l-0.906-0.911
							l0.906-0.899l3.169-3.175l4.069-4.066l4.526-4.524l3.62-3.626l0.904-1.359l-1.807-1.353l-1.361-1.812l-1.809-1.814
							l-2.262-2.261l-0.456-2.264l-0.901-5.43l-0.906-5.434l-0.904-4.978l-0.906-5.433l-0.906-5.432l-0.901-4.978l-0.906-5.432
							l-0.905-5.432l-0.906-4.979l-0.905-5.433l-0.901-5.431l-0.906-4.979l-0.906-5.433l-0.905-5.43l-0.906-4.979l-0.901-5.433
							l9.953-2.264l10.414-1.809l10.408-2.265l9.958-1.811l5.884-1.356l5.433-1.358l4.524-0.452l0.901,2.715l3.625-0.903
							l-0.455-2.716l11.771-2.717h1.808h1.356l0.454-0.453l1.357-0.903l4.526-0.904l12.221-3.171l12.221-2.714l12.672-3.169
							l12.223-2.716l9.503-2.263l0.45,0.905l1.812,6.788l1.357,6.338l1.812,6.335l1.808,6.336l1.813,6.79l1.812,6.337l1.357,6.336
							l1.808,6.336l0.905,3.62l0.906,4.524l1.357,7.243l-0.906,0.453l-0.451,0.905v1.81l0.906,5.882h-0.027V426.404z"/>
						<polyline fill="none" stroke="#6D6E71" points="377.82,456.85 384.65,459.126 390.342,457.987 396.603,457.987 
							401.155,457.987 406.277,457.987 414.245,456.85 419.368,456.85 425.06,456.85 425.06,459.126 429.468,459.899 						"/>
						<polyline fill="none" stroke="#6D6E71" points="370.661,415.262 377.82,415.262 383.514,415.262 393.188,415.262 
							399.448,411.318 400.062,406.766 400.062,403.907 403.645,398.797 407.985,396.738 407.416,390.83 429.468,381.723 
							429.468,373.188 425.853,371.19 						"/>
					</g>
					<polyline fill="none" stroke="#6D6E71" points="407.985,396.738 415.953,400.036 425.969,406.196 429.468,409.018 
						430.237,417.01 429.468,422.701 424.6,428.393 424.6,432.373 424.6,437.498 429.468,441.794 429.468,444.328 429.468,444.328 
						433.198,446.604 434.276,450.02 443.952,454.922 					"/>
				</g>
				<polyline fill="none" stroke="#6D6E71" points="430.237,417.01 438.719,412.811 443.952,412.811 450.102,412.811 
					454.085,415.262 462.622,412.811 466.606,412.811 466.606,412.811 472.866,415.262 475.745,420.424 482.542,425.5 
					482.542,435.223 482.423,441.794 				"/>
			</g>
			<polyline fill="none" stroke="#6D6E71" points="462.495,359.525 470.59,368.562 462.495,376.734 462.495,384.271 462.495,390.83 
				464.898,396.738 468.25,400.036 467.966,403.907 466.606,412.811 467.966,409.018 			"/>
		</g>
		<polyline fill="none" stroke="#6D6E71" points="462.495,384.271 472.608,380.469 476.364,379.418 483.901,384.271 
			491.647,386.168 497.908,390.83 505.308,393.227 502.462,403.907 497.908,411.888 490.526,418.148 479.646,423.338 		"/>
	</g>
	<line fill="none" stroke="#6D6E71" x1="502.462" y1="393.227" x2="514.936" y2="384.271"/>
</g>
<g>
	<g>
		<g>
			<g>
				<g>
					<g>
						<g>
							<g>
								<path id="path10865" fill="none" stroke="#6D6E71" d="M331.064,322.536l8.617,2.877l0.409,2.052l0.408,4.511l-1.229,7.797
									l-2.052,6.153v2.868l-0.407,2.052l0.407,1.234v1.226v0.825v0.817l-1.639,2.051l-1.234,2.052l-1.229,2.051l-0.408,0.821
									l-0.82,0.413l-1.23,0.408l0.408-4.511l-0.408-1.234l-1.643,1.643l-0.408,0.817v2.052l-0.414,0.825l-0.407,0.817l-1.23,1.232
									l-0.411,0.817l-0.408,2.052v4.104l-0.408,2.051l-0.414,0.821l-1.229,1.639l-0.41,0.826l0.41,0.407l0.407,3.281l0.82,0.412
									l-0.82,2.052l0.412,2.052l0.822,1.227h2.866l1.644,0.825h0.821l3.693-1.644h2.051l7.386,0.821l3.688,1.229l1.234-0.821
									l-1.234-1.229l-1.639-2.052l-0.82-2.051l0.82-0.821l1.639,1.229l1.234,2.46l4.102,13.542v2.46l-0.82,2.46L351.578,405
									l0.82,2.872l-0.82,9.026l-0.818,2.873l1.639,0.816l1.23,1.644l0.412,2.46l-0.412,4.103l0.412,4.924v1.644l0.408,0.407v3.694
									l1.23,11.073l-0.82,2.464l-2.461-17.231l0.408-3.688l0.414-2.052l-0.414-2.052l-0.816-2.464l-0.822-1.639l-0.82-0.821
									l-1.229,1.64v0.82l1.639-0.409l0.412,0.821l-0.412,1.64l-0.815,1.229l-0.822,0.821l-1.23,0.412l-0.82,0.816v1.644
									l1.23-0.821l0.82,1.643l-0.412,2.46l-1.23,1.644l2.873,0.409l0.82,0.407l-1.229,2.053l-0.414,1.643v1.644l0.414,2.051v0.409
									l-0.822,2.46l-0.408,2.051l-0.412,3.694v3.284l1.643,0.817l1.229,0.408v1.643l-0.819,1.644l-0.408,0.816l-0.414,3.285
									l-0.816,1.644L347.07,469l-0.408,1.233l-0.414,1.229l-0.82,1.229l-0.818,1.233l-0.819,0.408l-0.822,1.23l-0.407,1.639
									l-0.412,1.643l1.229,2.052l1.644,1.643v1.639l-1.23,0.413l-0.408-0.82l-0.414-0.821l-0.408-0.821l-3.692-1.229l-0.822,0.82
									l-1.229,0.409l-0.821-0.409l-0.815-0.82l0.815,4.103l0.821,1.643l1.229,0.409l0.822,0.821v1.639l-0.408,2.464h-1.229
									l-0.822-0.412l-0.82,0.412l-1.23,1.229l-0.411,0.821v1.229l-0.408,1.644l0.408,1.229l1.233-0.821l1.64,0.821l1.229,1.639
									l1.234,2.053l-2.052,1.232l-4.104,4.104l-2.051,1.229v-0.413l0.408-1.639l0.41-1.643l1.643-2.46l-2.461-1.229l-1.643,4.104
									l-0.82,2.051l0.82,1.229v0.408l-4.924,1.23l-2.052,0.82l-1.229,2.052h1.643h1.23l0.819,0.413h1.23l4.104-2.465v0.821
									l-2.053,2.051l-2.051,5.333l-1.644,1.229l-0.408,1.643l-2.051,8.614l-1.229-0.409h-0.822l-0.412,0.821l-0.815,1.229
									l0.408-0.408v0.408h0.407v0.408l0.822-0.816h0.819l0.408,0.408l0.414,1.229l-0.414,0.821l-1.229,2.46l-0.41,2.052
									l-0.412,0.412l-0.816,0.82l-1.643,0.817v0.821l0.408,0.82l0.412,0.821l-0.82,3.281l-2.053,2.873l-2.871,2.872l-4.104,2.869
									l-0.82,0.411h-0.822l-1.23-0.82v-0.821l0.414-0.821v-1.639l-0.414-2.051l-0.408-2.052l0.408-2.052l2.052-9.436l-0.41-4.104
									l-2.459-3.284l-1.234-0.408h-1.639l-2.873,0.408l-0.821,0.413l-1.229,0.411l-0.821,0.409h-0.821v-0.409v-0.824l-0.821-0.817
									l-1.23-0.412l-1.229,0.821l-2.46,0.821l-1.23,1.229l-0.412,0.821l-0.821,0.82l-1.23,0.409v-0.409l-1.639-0.407l-0.821-0.825
									v-0.817v-1.643l-0.412-0.409l-0.817-0.821l-3.285-1.643h-1.23l-0.821-0.408l-1.229-1.643l-0.409-0.409l-3.281,0.409h-1.233
									l-1.23-1.64l-0.821-1.233l-1.229-0.817h-0.821l-0.409,0.409l-0.408,0.408h-0.413l-0.821-0.408l-0.408-0.409l-0.409-0.412
									l-9.847-6.976l-2.873-1.229l-2.46-1.639l-1.23-3.285l0.409,0.412l0.409,0.413l0.821,0.408l-0.409-2.052v-4.924l-0.413-1.229
									l-3.281-2.46l-1.23-0.825v-0.817l1.23-2.051l1.23-1.234l0.413-0.816v-1.233v-1.227v-1.233l0.821-1.229v-0.821l0.409-0.817
									l0.821-0.412v-0.82l-0.413-2.873l1.234-3.281l2.051-3.281l2.46-2.872l4.103-2.873l2.873-1.639l2.051-0.412l1.23-0.409
									l2.46-2.051l1.643-0.821v-0.408h0.408v-0.412h1.643l0.821-1.23l0.821-1.643l1.23-1.229l-1.643-1.229l-0.821-1.644v-1.226
									h1.233l0.817-1.644l0.821,0.817l2.052-5.741l0.821-1.639l2.46-2.052l0.821-0.825l2.464-4.104l0.817-1.226l2.872-1.644
									l0.821-0.408l2.052-3.285l0.408-0.408l2.052-0.821l2.464-1.229l2.051-2.051l0.409-2.465l-1.23-2.052l-2.46-1.639
									l-5.336-2.464l-2.869-2.46l-3.693-3.281l-0.409-0.412l-0.821-0.817l-4.924-2.877L271.991,405l-1.23-1.639l-2.872,2.051
									l-2.052-0.825l-1.643-2.051l-1.229-1.64l-2.46-7.793l-2.052-2.464l-4.102-0.412l-2.051,1.233l-1.23-0.408l-1.234-2.464
									l-0.409-1.229l-0.409-0.821v-1.229l-0.821-3.284l-0.413-0.817v-0.821l-0.409-1.229l-0.409-1.233v-1.226l0.409-3.286h-0.409
									l-0.413-0.817l-0.409-0.825l0.409-0.407l0.413-0.409l0.409-0.821l0.409-2.051l1.643,0.413l1.23-0.413l1.23-1.23v-2.051
									v-2.46l0.821-1.234l0.821-1.229l0.409-1.639l-0.817-2.053l-1.643-1.643l-1.23-0.821l-0.821-0.82l-0.409-0.816h-0.413h-0.409
									h-0.409h-0.413v-0.413v-0.413l-0.409-0.408l-0.821-1.229l-0.821-0.821l-0.409-0.408l0.409-2.052l1.643-2.051l1.23-1.644
									l1.23-0.407l1.643-1.234l1.23-1.227l2.051-4.929h0.409v-0.408l-0.409-1.229l0.409-0.412l0.413-0.817l0.821-0.82l0.409-0.413
									l0.821-0.817l2.872-6.562l0.817-4.929v-2.867v-0.821v-1.23l3.286-4.924v-0.412l0.408-1.226v-0.413l0.408-0.412h0.821
									l0.821-1.228l0.822-0.411l1.638-0.822l1.234-1.229l8.613,2.873l8.614,2.868l8.617,2.877l8.614,2.868l9.027,2.872
									l8.613,2.873l8.616,2.868l0,0V322.536z"/>
								<polyline fill="none" stroke="#6D6E71" points="290.754,309.237 290.754,317 290.754,322.5 290.754,332.66 287.5,346 
									281.5,358 271,363.5 259.5,371.105 251.5,371.105 249.427,368.49 								"/>
							</g>
							<polyline fill="none" stroke="#6D6E71" points="290.754,330.5 299.477,330.5 304,332.66 304,336 308,340.172 308,349.5 
								305.5,355 305.5,363.5 308,368.5 313,371.105 316.5,371.105 319,374.5 323.682,375.869 							"/>
							<polyline fill="none" stroke="#6D6E71" points="278.735,359.448 282,366.5 286,371.105 294,375.869 302.5,378.5 311.5,381 
								319,383.5 324.09,382.849 							"/>
						</g>
						<polyline fill="none" stroke="#6D6E71" points="299.477,377.564 299.477,390.465 299.477,394.5 301.412,399.459 
							301.412,404.5 304,409 310.5,413.366 316.5,413.366 329,413.366 335,403 335,395.465 336.4,385.309 						"/>
					</g>
					<polyline fill="none" stroke="#6D6E71" points="295.376,427.155 303.5,424.5 307.218,420 308,413.366 310.5,413.366 					"/>
				</g>
				<polyline fill="none" stroke="#6D6E71" points="335.172,480.896 332,481.5 327.059,481.5 324.09,466.258 324.09,462 328,442 
					328,428.34 330.025,420.261 330.025,411.594 				"/>
			</g>
			<polyline fill="none" stroke="#6D6E71" points="285.528,435.36 290.754,441 299.477,449 310.5,456 317.938,461.5 324.09,462 			
				"/>
		</g>
		<polyline fill="none" stroke="#6D6E71" points="307.218,453.916 299.477,477 299.477,487.473 302.938,500.5 302.938,509.5 
			302.938,521.5 298.657,528.484 		"/>
	</g>
	<polyline fill="none" stroke="#6D6E71" points="257.632,467.768 264,475.5 274,481.5 282.5,481.5 290.754,484.5 295.376,489.355 
		300.543,491.487 	"/>
</g>
<g>
	<g>
		<g>
			<g>
				<g>
					<g>
						<g>
							<g>
								<path id="_x31_0m_x5F_admin_x5F_1_x5F_states_x5F_provinces_x5F_shp.81" fill="none" stroke="#6D6E71" d="M236.937,431.893
									l-0.39,0.391l-1.169,0.975l-0.781,0.394l-0.975,1.559l-0.781,0.391l-0.585,0.391l-0.39,0.977l0.195,1.169l0.391,0.975
									l-0.391,0.586l-2.146,1.365l-1.363,1.171l-0.781,0.388l-0.977-0.193l-2.144,1.756l-0.586,0.193l-0.585,0.391l-0.584,1.562
									l-0.781-0.389l-1.168-0.394l-1.562-0.195h-1.755l-1.753,0.589l-0.781,0.194l-1.17,0.584l-0.586,0.585l-0.584,0.78
									l-0.585,0.777l-0.585,1.757L211,452.176l-0.586,1.56h-0.194l-4.485,0.976l-4.291,0.975l-4.291,0.781l-4.291,0.975
									l-4.289,0.977l-4.291,0.778l-4.291,0.975l-4.485,0.976l-4.29,0.78l-4.291,0.977l-4.291,0.779l-4.289,0.779l-4.291,0.976
									l-4.485,0.779l-4.291,0.975l-4.291,0.781l-4.291,0.778l-4.485,0.978l-4.29,0.778l-4.291,0.782l-4.29,0.778l-4.29,0.974
									l-4.485,0.781l-4.291,0.781l-4.291,0.779l-4.291,0.779l-4.485,0.78l-4.291,0.777l-4.29,0.782l-4.485,0.779l-4.291,0.781
									l-4.292,0.776l-4.875,0.781l-4.875,0.976l-5.07,0.78l-4.875,0.781l-4.875,0.975l-4.875,0.778l-4.876,0.779l-5.069,0.781
									l-0.391-3.313l-0.584-3.511l-0.584-3.513l-0.586-3.314l-0.585-3.9l-0.779-4.094l-0.586-3.901l-0.584-3.899l-0.779-3.899
									l-0.586-4.096l-0.585-3.898l-0.779-3.9v-0.197l-0.781-5.264l-0.975-5.07l-0.781-5.267l-0.779-5.07l-0.975-5.265
									l-0.781-5.071l-0.781-5.265l-0.975-5.071l-0.779-5.072l-0.781-5.263l-0.976-5.069l-0.781-5.269l-0.779-5.068l-0.975-5.265
									l-0.781-5.071l-0.779-5.266l0.389-0.194l4.681-1.757l4.485-1.56l5.071-3.705l5.07-3.705l5.266-3.512l0.779-0.585
									l0.195,1.562l0.391,1.755l0.194,1.561l0.39,1.755l0.195,1.756l0.196,1.561l0.389,1.757l0.196,1.558l0.39,1.562l0.194,1.363
									l0.195,1.366l0.196,1.56l0.39,1.367l0.194,1.362l0.194,1.562l0.391,1.363l0.193,1.562l1.366-0.197l4.875-0.777l5.072-0.977
									l4.875-0.779l5.07-0.976l4.875-0.781l5.07-0.975l4.875-0.781l4.876-0.975l5.071-0.976l4.875-0.78l5.069-0.974l4.876-0.977
									l4.875-0.976l5.07-0.778l4.875-0.975l5.072-0.976l4.875-0.977l4.876-0.976l5.069-0.976l4.875-0.976l4.876-1.171l5.071-0.976
									l4.875-0.975l4.876-0.977l5.069-0.975l4.876-1.171l4.875-0.976l4.875-0.976l5.07-1.17l4.875-0.976l4.875-1.17l4.876-0.975
									l0.975-0.195l0.391-0.195l0.196,0.779l0.976,0.392l1.169,0.391l0.975,0.391l0.391,0.779l0.391,1.171l0.388,0.975
									l0.586,0.391l1.95-0.779h0.585l0.976,0.584l0.975,0.195l0.779,0.78l0.39,0.195h0.585l-0.194,0.389l-0.585,1.365l0.975,0.195
									l0.584,0.194l0.585,0.194l0.39,1.171v0.391l-0.39,0.584v0.392l0.78,1.755l0.194,0.976l0.391,2.533l0.193,0.587l0.587,0.389
									l2.729,3.512l0.78,0.586l0.585,0.39l1.757,0.194l0.583,0.193l0.391,0.588l0.78,0.389h0.78l1.754-0.584l0.975,0.195
									l0.391,0.389h0.39l0.391-0.389l0.39-0.195l0.39,0.195l0.194,0.389l0.39,0.585l0.585,0.391l0.781,0.975l0.389,0.976
									l-0.585,0.586l-0.778,0.39l-0.391,0.196l-0.39,0.584h-0.39l-0.195,0.193v0.196l-0.196,0.585v0.193l-1.56,2.344v0.583v0.392
									v1.364l-0.391,2.339l-1.363,3.122l-0.391,0.391l-0.195,0.192l-0.39,0.394l-0.195,0.389l-0.194,0.193l0.194,0.587v0.192
									h-0.194l-0.975,2.343l-0.585,0.584l-0.779,0.588l-0.586,0.192l-0.584,0.781l-0.782,0.976l-0.194,0.975l0.194,0.195
									l0.392,0.39l0.391,0.585l0.194,0.194v0.195v0.193h0.193h0.197h0.193h0.195l0.198,0.392l0.39,0.392l0.583,0.39l0.78,0.78
									l0.391,0.975l-0.195,0.78l-0.39,0.584l-0.391,0.585v1.171v0.977l-0.584,0.585l-0.583,0.192l-0.783-0.192l-0.193,0.975
									l-0.194,0.391l-0.197,0.193l-0.193,0.195l0.193,0.391l0.197,0.391h0.194l-0.194,1.56v0.585l0.194,0.586l0.193,0.587v0.389
									l0.197,0.392l0.388,1.561v0.584l0.198,0.392l0.192,0.584l0.586,1.17l0.586,0.197l0.975-0.589l1.95,0.195l0.975,1.17
									l1.169,3.707l0.585,0.778l0.781,0.975l0.975,0.393l1.366-0.977l0.584,0.78l0.975,1.754l2.341,1.364l0.389,0.392l0.196,0.196
									l1.754,1.558l1.366,1.171l2.534,1.171l1.171,0.781l0.584,0.974l-0.193,1.174l-0.975,0.973l-1.172,0.583l-0.975,0.395
									l-0.194,0.192l-0.976,1.562l-0.39,0.194l-1.366,0.78l-0.39,0.584l-1.169,1.95h0.005V431.893z"/>
								<polyline fill="none" stroke="#6D6E71" points="57.717,367.928 57.717,375 57.717,381 63.5,390.5 68.5,400.5 61.5,410.894 
									52.5,416.5 44,416.5 33.5,422.5 21.895,424.285 								"/>
							</g>
							<polyline fill="none" stroke="#6D6E71" points="52.5,416.5 58,425.5 65.5,433 78.5,447 78.5,460.5 75,467.5 71.562,480.84 
															"/>
						</g>
						<polyline fill="none" stroke="#6D6E71" points="67.3,398.1 86.5,403 110.5,403 128.02,398.5 126,389 131,374.5 134,364 
							127.142,355.057 						"/>
					</g>
					<polyline fill="none" stroke="#6D6E71" points="128.02,398.5 131,403 134,407.5 132.5,413.366 133.5,418 128.02,435.5 
						115.5,435.5 106.5,438 91.5,443 78.5,452.5 					"/>
				</g>
				<polyline fill="none" stroke="#6D6E71" points="128.02,435.5 142.5,441.049 157,443 160.5,453 160.5,459.5 162.635,463.681 				
					"/>
			</g>
			<polyline fill="none" stroke="#6D6E71" points="222.701,384.311 194.5,379.028 178.251,379.028 155.439,379.028 131,374.5 			"/>
		</g>
		<polyline fill="none" stroke="#6D6E71" points="222.503,404.787 200,407 192.5,410.894 169,403 149.5,403 134,407.5 		"/>
	</g>
	<polyline fill="none" stroke="#6D6E71" points="192.5,410.894 186,424.285 172.5,434 162.635,438.5 157,443 	"/>
	<polyline fill="none" stroke="#6D6E71" points="213.925,446.715 209.5,441.049 201.5,435 189.5,429 186,424.285 	"/>
</g>
<line opacity="0.7" fill="none" stroke="#000000" stroke-width="2" stroke-miterlimit="10" x1="207.671" y1="79.526" x2="323.454" y2="36.498"/>
<line opacity="0.7" fill="none" stroke="#000000" stroke-width="2" stroke-miterlimit="10" x1="382.504" y1="164.041" x2="420.671" y2="198.083"/>
<line opacity="0.7" fill="none" stroke="#000000" stroke-width="2" stroke-miterlimit="10" x1="492.056" y1="193.693" x2="501.199" y2="220.422"/>
<line opacity="0.7" fill="none" stroke="#000000" stroke-width="2" stroke-miterlimit="10" x1="539.289" y1="274.977" x2="564.406" y2="297.205"/>
<line opacity="0.7" fill="none" stroke="#000000" stroke-width="2" stroke-miterlimit="10" x1="541.59" y1="442.496" x2="402.784" y2="482.075"/>
<line opacity="0.7" fill="none" stroke="#000000" stroke-width="2" stroke-miterlimit="10" x1="375.631" y1="444.052" x2="331.001" y2="519.5"/>
<line opacity="0.7" fill="none" stroke="#000000" stroke-width="2" stroke-miterlimit="10" x1="372.917" y1="428.211" x2="339.27" y2="339.772"/>
<line opacity="0.7" fill="none" stroke="#000000" stroke-width="2" stroke-miterlimit="10" x1="244.517" y1="492.792" x2="188.573" y2="458.418"/>
<line opacity="0.7" fill="none" stroke="#000000" stroke-width="2" stroke-miterlimit="10" x1="322.912" y1="257.396" x2="229.733" y2="154.738"/>
<line opacity="0.7" fill="none" stroke="#000000" stroke-width="2" stroke-miterlimit="10" x1="266.766" y1="257.774" x2="405.507" y2="372.538"/>
<line opacity="0.7" fill="none" stroke="#000000" stroke-width="2" stroke-miterlimit="10" x1="73.738" y1="237.62" x2="92.425" y2="361.688"/>
<line opacity="0.7" fill="none" stroke="#000000" stroke-width="2" stroke-miterlimit="10" x1="186.42" y1="342.766" x2="213.23" y2="249.518"/>
<line opacity="0.7" fill="none" stroke="#000000" stroke-width="2" stroke-miterlimit="10" x1="483.806" y1="354.436" x2="421.036" y2="264.356"/>
<line opacity="0.7" fill="none" stroke="#000000" stroke-width="2" stroke-miterlimit="10" x1="337.921" y1="215.661" x2="337.518" y2="185.001"/>
<line opacity="0.7" fill="none" stroke="#000000" stroke-width="2" stroke-miterlimit="10" x1="224.646" y1="392.694" x2="246.965" y2="350.85"/>
</svg>
